<svg width="1000" height="1000" viewBox="0 0 1000 1000" fill="none" xmlns="http://www.w3.org/2000/svg" version="1.1" baseProfile="full">
<rect width="1000" height="1000" fill="#6D0230"/>
<path d="M378.87 339.884C408.986 339.884 432.423 348.871 449.181 366.843C466.182 384.573 474.683 410.317 474.683 444.076V600H402.55V446.262C402.55 430.961 398.542 419.425 390.527 411.653C382.513 403.638 371.826 399.631 358.468 399.631C344.139 399.631 332.724 403.881 324.223 412.382C315.966 420.639 311.837 433.147 311.837 449.905V600H239.704V446.262C239.704 430.961 235.94 419.425 228.41 411.653C221.124 403.638 211.045 399.631 198.173 399.631C184.329 399.631 173.279 403.881 165.021 412.382C156.763 420.639 152.634 433.147 152.634 449.905V600H80.5015V344.985H150.449V373.401C158.221 362.471 168.178 354.214 180.322 348.628C192.708 342.799 207.038 339.884 223.31 339.884C240.068 339.884 254.641 342.92 267.027 348.992C279.656 355.064 289.857 363.929 297.629 375.586C306.372 363.929 317.787 355.064 331.874 348.992C345.96 342.92 361.626 339.884 378.87 339.884ZM621.424 399.631C602.966 399.631 588.88 403.638 579.165 411.653C569.45 419.668 564.592 431.811 564.592 448.084V456.827H662.591V512.566H564.592V600H492.46V449.177C492.46 414.446 503.267 387.609 524.883 368.665C546.499 349.478 576.858 339.884 615.96 339.884C630.775 339.884 644.619 341.342 657.491 344.256C670.606 347.17 681.778 351.299 691.007 356.642L669.877 412.017C655.791 403.76 639.64 399.631 621.424 399.631ZM801.293 339.884C825.337 339.884 846.467 344.742 864.682 354.457C883.141 363.929 897.349 377.894 907.306 396.352C917.507 414.567 922.607 436.547 922.607 462.292V600H850.474V543.532H751.018V600H679.978V462.292C679.978 436.547 684.957 414.567 694.915 396.352C705.116 377.894 719.324 363.929 737.539 354.457C755.997 344.742 777.249 339.884 801.293 339.884ZM850.474 487.793V456.098C850.474 437.397 845.981 423.311 836.995 413.839C828.009 404.367 815.987 399.631 800.929 399.631C785.628 399.631 773.484 404.367 764.498 413.839C755.512 423.311 751.018 437.397 751.018 456.098V487.793H850.474Z" fill="#F8FAF9"/>
<path d="M128.357 630.813V675.224H123.852V639.695L106.405 669.577H104.184L86.7372 639.885V675.224H82.2326V630.813H86.1027L105.39 663.74L124.487 630.813H128.357ZM216.359 663.359H191.616L186.286 675.224H181.401L201.703 630.813H206.335L226.637 675.224H221.688L216.359 663.359ZM214.646 659.553L203.987 635.698L193.329 659.553H214.646ZM279.663 630.813H284.358V671.163H309.228V675.224H279.663V630.813ZM452.84 663.359H428.097L422.767 675.224H417.882L438.184 630.813H442.816L463.118 675.224H458.169L452.84 663.359ZM451.127 659.553L440.468 635.698L429.81 659.553H451.127ZM553.259 630.813V675.224H549.389L520.839 639.187V675.224H516.144V630.813H520.014L548.628 666.849V630.813H553.259ZM613.435 630.813H631.516C636.211 630.813 640.356 631.764 643.951 633.668C647.547 635.529 650.338 638.151 652.326 641.535C654.314 644.876 655.308 648.704 655.308 653.018C655.308 657.332 654.314 661.181 652.326 664.565C650.338 667.906 647.547 670.529 643.951 672.432C640.356 674.293 636.211 675.224 631.516 675.224H613.435V630.813ZM631.263 671.163C635.154 671.163 638.559 670.402 641.477 668.879C644.396 667.314 646.658 665.178 648.266 662.471C649.873 659.722 650.677 656.571 650.677 653.018C650.677 649.465 649.873 646.335 648.266 643.628C646.658 640.879 644.396 638.743 641.477 637.22C638.559 635.655 635.154 634.873 631.263 634.873H618.13V671.163H631.263ZM742.935 671.163V675.224H711.53V630.813H741.984V634.873H716.225V650.671H739.192V654.668H716.225V671.163H742.935ZM829.977 675.224L819.826 660.949C818.684 661.075 817.5 661.139 816.274 661.139H804.346V675.224H799.651V630.813H816.274C821.941 630.813 826.382 632.166 829.597 634.873C832.811 637.58 834.419 641.302 834.419 646.039C834.419 649.507 833.53 652.447 831.754 654.858C830.02 657.226 827.524 658.939 824.267 659.997L835.116 675.224H829.977ZM816.147 657.142C820.545 657.142 823.908 656.169 826.234 654.223C828.561 652.278 829.724 649.55 829.724 646.039C829.724 642.444 828.561 639.695 826.234 637.791C823.908 635.846 820.545 634.873 816.147 634.873H804.346V657.142H816.147ZM903.424 675.604C900.125 675.604 896.953 675.075 893.907 674.018C890.904 672.961 888.578 671.565 886.929 669.831L888.768 666.214C890.376 667.822 892.512 669.133 895.176 670.148C897.841 671.121 900.59 671.607 903.424 671.607C907.4 671.607 910.382 670.888 912.37 669.45C914.358 667.97 915.352 666.066 915.352 663.74C915.352 661.964 914.802 660.547 913.702 659.489C912.645 658.432 911.333 657.628 909.769 657.078C908.204 656.486 906.025 655.852 903.234 655.175C899.892 654.329 897.228 653.526 895.24 652.764C893.252 651.961 891.539 650.755 890.101 649.148C888.705 647.541 888.007 645.362 888.007 642.613C888.007 640.371 888.599 638.341 889.784 636.523C890.968 634.661 892.787 633.181 895.24 632.081C897.693 630.982 900.738 630.432 904.376 630.432C906.914 630.432 909.388 630.791 911.799 631.51C914.252 632.187 916.367 633.139 918.143 634.365L916.557 638.109C914.696 636.882 912.708 635.973 910.593 635.381C908.479 634.746 906.406 634.429 904.376 634.429C900.485 634.429 897.545 635.19 895.557 636.713C893.611 638.193 892.639 640.118 892.639 642.486C892.639 644.263 893.167 645.701 894.225 646.8C895.324 647.858 896.678 648.683 898.285 649.275C899.935 649.825 902.134 650.438 904.883 651.115C908.14 651.918 910.762 652.722 912.75 653.526C914.781 654.287 916.494 655.471 917.889 657.078C919.285 658.643 919.983 660.779 919.983 663.486C919.983 665.728 919.37 667.779 918.143 669.64C916.959 671.459 915.119 672.918 912.624 674.018C910.128 675.075 907.062 675.604 903.424 675.604Z" fill="#F8FAF9"/>
</svg>
