<svg width="1000" height="1000" viewBox="0 0 1000 1000" fill="none" xmlns="http://www.w3.org/2000/svg">
<rect width="1000" height="1000" rx="500" fill="#6D0230"/>
<path d="M311.4 564.4C310 565.8 309.3 567.55 308.25 567.55C307.55 567.55 306.5 566.15 305.8 566.15C305.1 566.15 304.05 567.9 303.35 567.9C302.65 567.9 302.3 567.2 302.3 565.1C302.3 563 303 560.9 303 558.8C303 557.4 301.95 556 301.95 554.6C301.95 550.75 311.75 543.05 311.75 541.3C311.75 538.85 311.75 536.05 311.75 532.2C308.25 537.8 305.8 540.6 302.3 540.6C302.3 534.3 303 529.05 303 523.45C303 519.95 301.95 516.8 301.95 513.3C301.95 509.1 302.65 504.2 302.65 500C302.65 497.55 299.5 492.65 299.5 487.05C299.5 480.05 299.15 474.45 299.15 466.4C299.15 461.85 299.15 456.25 300.2 456.25C300.9 456.25 301.6 456.6 302.65 456.6C303.7 456.6 305.45 450.3 305.45 448.55C305.45 443.3 304.75 439.1 304.75 434.2C304.75 430.35 306.5 427.9 306.5 425.1C306.5 419.85 303.7 415.65 303.7 409.7C303.7 399.9 308.25 393.95 308.25 386.95C308.25 382.4 307.2 377.5 307.2 373.3C307.2 369.8 308.25 366.3 308.25 362.45C308.25 355.1 305.45 354.75 300.55 349.5C301.95 347.05 304.75 343.2 304.75 341.1C304.75 337.95 298.8 335.85 298.8 331.65C298.8 330.6 299.15 328.85 299.15 327.45C299.15 322.55 294.6 312.75 288.65 312.75C287.6 313.1 286.2 313.45 284.8 313.8C285.15 313.8 285.15 313.8 285.15 314.15H284.8C285.15 313.1 285.85 311.7 285.85 310.65C284.45 307.15 280.6 306.8 277.45 306.8C276.05 306.8 274.65 307.5 273.25 307.5C270.8 307.5 268.7 306.8 266.6 306.1C261.7 311 255.4 312.75 252.25 319.4C249.45 325.7 243.15 327.8 240 334.1C222.85 357.55 211.65 383.8 196.95 407.6C196.6 408.3 195.9 408.65 195.2 408.65C191.35 408.65 188.55 404.45 188.55 397.45C188.55 389.4 180.15 379.95 178.75 372.6C177.7 367 174.55 363.5 173.5 357.9C170.7 343.55 162.65 330.95 161.95 318C161.95 310.65 158.8 308.9 150.75 308.9C135 308.9 129.4 332.7 129.4 331.65C129.4 333.75 131.5 335.85 131.5 338.65C131.5 366.3 125.55 384.15 125.55 404.8C125.55 407.25 128.7 409.7 128.7 411.1C128.7 411.45 121.35 418.45 121.35 423.35C121.35 425.1 122.4 427.2 123.45 428.95C120.65 432.8 118.55 440.15 118.55 445.05C118.55 449.95 120.3 454.85 120.3 460.1C120.3 462.9 119.25 465.7 119.25 468.5C119.25 470.95 119.95 473.75 119.95 476.55C119.95 479.7 118.9 483.2 118.9 486.35C118.9 487.05 119.25 487.75 119.25 488.45C118.2 490.55 117.5 492.65 117.5 494.75C117.5 508.05 123.1 525.9 123.1 542.35C123.1 545.85 123.45 549.35 125.2 551.1C129.4 553.9 128.7 568.6 137.8 568.6C143.4 568.6 145.15 558.8 150.4 557.05C150.75 553.9 153.55 550.75 153.55 547.25C153.55 545.85 152.5 544.1 152.5 542.7C152.5 540.6 155.3 540.6 155.3 537.1C155.3 536.4 152.5 533.95 152.5 532.2C152.5 531.15 152.85 530.1 153.55 529.05C153.2 527.3 151.8 525.55 151.8 524.15C151.8 522.75 153.9 521.35 153.9 519.95C153.9 517.85 151.8 517.5 151.1 515.75L151.8 516.45L151.45 516.1C152.85 514 154.25 511.9 154.25 509.45C154.25 507.7 152.5 505.6 152.5 503.15C152.5 501.4 154.25 499.3 154.25 497.55C154.25 488.1 145.15 487.75 145.15 482.15C145.15 474.1 153.55 478.65 153.55 466.4C153.55 462.55 153.9 458.35 153.9 454.5C153.9 451.7 153.55 448.55 153.55 445.75C153.55 434.9 154.6 421.25 160.9 414.95C162.65 417.05 164.05 419.15 164.05 421.95C164.05 423 163.7 424.05 163.7 425.1C163.7 433.15 179.45 451.35 185.75 453.8C188.55 455.55 191.7 456.25 195.2 456.25C219.35 456.25 221.8 433.85 230.55 406.2C230.2 405.5 230.2 404.8 230.2 404.1C230.2 402.7 234.4 377.15 240 374.35C244.9 372.25 243.5 363.85 244.2 358.6C247.35 354.4 246.65 348.8 248.75 343.9C251.2 342.15 255.4 342.15 257.15 338.65C257.85 336.9 258.55 334.1 261.35 334.1C267.3 334.1 271.5 364.2 271.85 367C273.25 381.35 272.9 395.7 275 410.05C276.4 421.25 278.15 434.2 278.15 445.75C278.15 448.2 277.45 450.65 277.45 453.1C277.45 462.2 280.95 470.25 280.95 480.05C280.95 489.5 287.6 491.95 287.6 492.65C287.6 498.6 283.75 504.2 283.75 506.65C283.75 519.6 288.3 526.25 288.3 529.4C288.3 534.65 283.4 539.55 283.4 547.95C283.4 549.7 284.1 551.45 284.1 553.2C284.1 556.35 280.95 559.15 280.95 561.6C280.95 568.6 285.5 575.25 285.5 582.6C285.5 584 285.5 585.4 285.15 586.8C285.85 588.9 287.6 595.55 287.6 597.3V596.95C287.25 596.95 287.25 597.3 287.25 597.3C288.65 601.5 294.25 607.1 297.75 607.1C305.45 607.1 304.75 593.8 311.05 590.65C311.75 590.3 312.1 589.6 312.1 588.9C312.1 580.85 311.75 573.15 311.4 564.4ZM301.25 352.3C300.2 351.95 300.55 350.9 300.2 349.5C300.9 350.2 301.6 350.55 301.6 351.25C301.6 351.6 301.25 351.95 301.25 352.3ZM300.2 426.5C300.9 428.6 301.25 429.3 301.25 430C301.25 431.75 300.9 433.5 300.9 436.3C299.85 434.55 299.5 433.15 299.5 431.75C299.5 430 299.85 428.6 300.2 426.5ZM124.15 446.8C124.15 446.1 125.2 445.05 125.9 445.05C126.6 445.05 127.3 445.75 127.3 446.8C127.3 447.15 126.25 448.2 125.9 448.2C125.2 448.2 124.5 447.5 124.15 446.8ZM127.65 481.45C127.65 481.45 127.65 481.8 127.3 481.8C127.3 481.8 126.95 481.45 126.6 481.1C126.6 480.05 127.65 479.35 129.05 479.35C129.05 479.35 129.4 480.05 129.4 480.4C129.05 480.75 128.35 481.45 127.65 481.45ZM128.7 472.7C128 472.7 126.25 471.65 126.25 470.95C126.25 469.9 128.35 467.1 129.4 467.1C130.45 468.15 130.8 468.15 130.8 469.55C130.8 471.3 129.75 472.7 128.7 472.7ZM134.65 426.5C134.65 425.8 133.95 424.4 133.95 423.35C133.95 423 134.65 422.65 134.65 422.3C135 422.65 135.35 422.65 135.35 423C135.35 424.05 135 425.1 134.65 426.5ZM137.1 459.75H137.45H137.1ZM139.2 459.05C139.2 459.05 139.2 459.05 138.85 459.05C139.2 458.7 139.55 458.35 139.55 458C139.9 458.35 139.9 458.35 139.9 458.7C139.9 459.05 139.9 459.05 139.2 459.05ZM140.25 439.8C139.9 439.1 139.55 438.4 139.55 437.7C139.55 436.65 139.55 435.6 139.9 433.5C140.25 435.95 140.6 437.35 140.6 438.4C140.6 439.1 140.25 439.45 140.25 439.8ZM150.4 422.65C150.4 423.35 150.75 423.7 150.75 424.05C150.75 424.05 150.4 424.4 150.05 424.75C150.05 424.4 149.7 424.05 149.7 423.7C149.7 423.35 150.05 423 150.4 422.65ZM145.85 477.25C145.85 476.9 145.85 476.2 145.85 475.85C145.85 476.2 146.2 476.55 146.2 476.55C146.2 476.9 146.2 477.25 145.85 477.25ZM144.8 461.85C144.8 460.45 144.1 459.05 144.1 458C144.45 455.2 144.45 452.75 144.45 449.95C144.45 444.35 144.1 438.75 144.1 432.8C144.1 429.3 144.1 426.5 144.8 423.35C146.2 423.7 146.55 426.15 146.55 428.6C146.55 430 146.55 431.4 146.55 432.45C146.55 439.1 150.4 436.65 150.4 442.95L150.05 443.3C150.4 444 151.1 444.7 151.1 445.05C151.1 449.6 147.6 458.35 144.8 461.85ZM285.15 442.6C284.45 442.6 284.45 442.25 284.45 441.9C284.45 441.55 284.45 441.2 284.45 440.85C285.15 440.85 285.15 442.25 285.15 442.6ZM294.95 379.95C295.65 380.3 295.65 381 295.65 381.7C295.65 382.4 295.65 383.1 294.95 383.1C294.6 382.4 294.25 381.7 294.25 381C294.25 380.65 294.6 380.3 294.95 379.95ZM293.2 434.9C295.65 434.9 295.65 439.8 295.65 441.9C295.65 442.6 294.6 444 294.6 444C293.9 443.65 293.55 443.65 293.55 442.95C293.55 441.2 293.9 439.45 293.9 438.75C293.2 437.35 292.85 436.65 292.5 435.6L293.2 434.9ZM292.15 463.95C292.5 463.6 293.2 463.25 293.9 463.25C295.65 463.25 296.35 465.7 296.7 467.45C296 469.2 295.3 474.1 293.9 474.1C293.2 474.1 292.5 473.75 292.5 473.05C292.5 472 293.55 470.95 293.55 469.55C293.55 468.15 292.85 467.1 291.45 465.7C291.45 465.7 291.45 464.3 292.15 463.95ZM292.85 483.55C292.85 483.2 294.25 483.2 294.25 483.2C295.3 483.2 295.65 483.9 295.65 485.65C295.65 486.35 295.3 487.05 294.95 487.75C293.9 487.4 292.15 487.05 292.15 485.3C292.15 484.6 292.5 483.9 292.85 483.55ZM298.45 526.95C298.45 529.75 298.8 536.05 296.7 537.1C295.3 536.05 292.85 526.25 292.85 522.75C292.85 519.6 293.2 513.65 294.6 513.65C297.05 513.65 298.8 515.75 298.8 517.85C298.8 520.65 298.45 523.8 298.1 526.6C298.45 526.6 298.45 526.95 298.45 526.95ZM365.751 453.1C365.751 458 361.201 460.8 361.201 465.7C361.201 467.1 361.551 468.85 361.551 470.25C361.551 488.1 353.151 511.9 336.351 516.45C332.501 517.15 322.701 519.95 322.701 526.6C322.701 535 341.601 536.05 342.651 544.1C343.001 545.85 343.701 547.95 343.701 550.05C343.701 554.25 343.001 559.15 342.651 563.35C345.451 564.75 347.201 565.45 347.201 568.95C345.801 575.6 347.551 581.9 344.051 588.2L343.701 587.85C344.051 588.9 344.751 590.3 344.751 591.35C343.351 597.3 345.101 603.25 342.651 609.2C341.951 610.25 341.951 611.65 341.951 613.05C341.951 616.2 343.701 619 343.701 622.15C343.701 628.1 341.251 634.05 341.251 640.35C341.251 643.15 341.601 645.6 341.951 648.4C341.951 651.55 337.751 652.25 337.751 653.65C337.751 654.7 339.151 656.1 339.151 657.15C339.151 657.5 338.801 658.2 338.101 658.55C340.551 660.65 341.601 662.75 341.601 665.55C341.601 671.5 337.051 674.3 337.051 679.55C337.051 683.05 339.151 686.55 339.151 690.05C339.151 694.95 337.051 700.9 337.051 705.8C337.051 707.2 337.751 708.25 337.751 709.65C337.751 710.35 336.701 711.4 336.701 712.1C336.701 713.5 339.851 713.85 339.851 715.25C340.201 718.75 340.201 722.25 340.201 725.75C339.151 727.15 338.801 728.9 338.801 730.3C338.801 731.7 339.151 733.1 339.151 734.5C339.151 736.25 338.451 738 338.451 739.75C338.451 750.6 343.701 776.85 350.351 776.85C355.601 777.55 360.501 778.25 365.751 778.6C369.601 778.6 372.401 774.75 372.401 769.85C372.401 768.1 371.351 766 371.351 764.25C371.351 761.8 374.851 756.55 374.851 751.65C374.851 749.2 374.501 746.75 374.501 744.3C374.501 729.95 380.451 714.2 380.451 699.15C380.451 696.35 379.401 693.9 379.401 691.45C379.401 687.25 384.301 672.2 384.301 667.65C384.301 663.8 382.201 659.95 382.201 657.15C382.201 655.4 384.301 652.25 384.301 649.8C384.301 610.25 382.551 572.8 366.801 539.2C368.201 532.9 369.601 521.35 374.501 518.2C406.701 496.85 432.951 478.3 470.751 462.2C473.201 461.5 475.651 459.75 475.651 457.3C475.651 455.2 472.151 452.75 469.351 452.75C447.301 452.75 413.351 481.8 386.751 490.55C385.351 490.55 385.001 488.45 385.001 488.1C385.001 482.85 395.151 477.25 395.151 472C395.151 463.95 409.501 456.6 410.551 449.25C413.001 430.7 425.951 427.2 427.701 413.9C428.401 406.55 439.951 402.35 439.951 390.1C439.951 378.9 445.901 384.85 445.901 375.4C445.901 372.25 449.401 371.55 450.451 369.1C451.151 365.6 451.151 362.1 451.501 359.65C456.401 354.75 465.501 335.85 465.501 335.15C465.501 325.35 471.801 317.3 471.801 308.2C476.701 300.5 477.751 277.05 477.751 274.25C477.751 260.95 470.051 249.4 454.301 249.4C430.501 249.4 440.651 259.55 424.901 275.3C424.201 279.15 424.551 282.65 422.101 286.5C421.051 287.9 414.051 298.75 413.701 305.05C413.701 307.85 408.801 311.7 408.801 316.95C408.801 322.9 406.351 329.2 401.801 333.4C397.951 336.9 398.301 351.25 393.051 358.95C393.751 357.9 381.501 390.1 381.851 390.8C381.851 395.35 377.651 411.8 373.451 419.15C373.451 420.2 373.801 420.9 373.801 421.6C373.801 428.6 369.251 434.55 368.551 441.9C367.851 445.75 366.801 449.6 365.751 453.1ZM429.451 389.05C428.051 388 426.651 385.9 424.901 385.9C421.401 385.9 413.351 407.95 410.901 411.45C409.151 414.25 406.001 420.2 406.001 423C406.001 423.7 406.351 424.75 406.701 425.8C400.401 427.55 398.301 426.5 398.301 435.95C398.301 440.85 393.051 441.9 392.351 445.75C391.651 449.25 388.851 450.3 385.351 451C385.001 450.3 383.951 448.55 384.301 447.85C391.651 432.45 391.651 407.95 399.001 399.2C400.051 397.45 400.751 390.1 402.851 385.55C414.751 356.85 424.201 331.3 436.801 300.5C439.601 293.15 445.551 279.5 452.551 278.45C453.951 280.9 457.101 283.7 457.101 286.85C457.101 289.3 455.701 291.75 455.701 294.2C455.701 295.25 456.051 295.95 456.401 297C456.401 300.85 452.901 305.75 452.901 310.65C452.901 319.05 446.951 327.8 446.951 334.45C446.951 335.5 446.951 336.2 447.301 337.25C447.301 340.4 437.501 354.4 436.451 361.05C435.401 367.7 430.851 371.55 430.501 377.85C430.501 379.25 430.851 380.65 430.851 382.05C430.851 384.5 429.801 386.95 429.101 389.4C429.801 390.1 430.151 390.8 430.501 391.5C430.501 391.5 430.501 391.85 430.151 392.2C430.151 391.15 429.801 390.1 429.451 389.05ZM359.801 725.4C358.051 723.3 356.651 721.2 356.651 718.75C356.651 717.7 357.001 716.65 357.351 715.6C356.651 714.2 356.301 712.8 356.301 711.05C356.301 708.95 357.001 706.5 357.001 704.4C357.001 693.55 355.601 683.75 355.601 673.25C355.601 668 357.701 661.7 357.701 657.15C357.701 653.65 355.951 649.8 355.951 646.3C355.951 640.35 358.051 634.4 358.051 628.8C358.051 626 357.701 622.85 357.701 620.05C357.701 613.4 360.501 603.25 360.501 595.55C360.501 592.75 360.151 589.6 360.151 586.8C360.151 584.7 360.851 582.6 363.301 582.6C371.351 582.6 371.001 618.65 371.001 628.1C371.001 631.6 371.701 635.1 371.701 638.95C371.701 647 369.951 655.4 369.951 664.5C369.951 672.55 369.951 683.4 367.151 690.4C364.001 703.35 366.451 714.2 359.801 725.4ZM352.451 593.8C352.101 594.15 352.101 594.5 351.751 595.2C351.051 594.5 350.701 594.15 350.701 593.45C350.701 593.1 351.051 592.75 351.401 592.75C352.101 592.75 351.751 593.45 352.451 593.8ZM338.101 658.55C338.101 660.3 337.751 662.05 337.751 662.75C337.751 663.1 338.101 663.1 338.101 663.1C338.801 663.1 339.151 663.1 339.151 661.7C338.801 660.65 338.451 659.6 338.101 658.55ZM343.701 587.85C344.051 587.85 344.401 587.85 344.401 587.85C344.401 587.5 344.401 587.5 344.051 587.5C344.051 587.5 344.051 587.5 344.051 588.2L343.701 587.85ZM366.101 453.1H365.751C365.751 452.75 366.101 452.4 366.101 452.05C366.101 451.7 365.751 451.35 365.401 451.35C365.051 451.35 364.701 451.35 364.351 451.7C365.051 452.05 365.401 452.4 366.101 453.1ZM429.101 389.4C429.451 390.1 430.501 391.5 430.501 391.5C430.501 391.85 430.501 391.85 430.151 392.2C430.151 391.15 429.801 390.1 429.451 389.05L429.101 389.4ZM446.24 517.85C452.89 518.55 450.44 522.05 451.49 524.5C451.49 539.2 464.44 546.9 475.99 546.9C492.44 546.9 491.74 546.55 509.24 514.7C516.24 500 528.49 473.05 530.94 472.35C539.69 469.9 538.29 464.3 540.39 455.55C541.09 452.4 553.69 441.2 554.39 441.2C558.94 438.75 559.99 435.6 562.44 430C571.19 430 566.99 421.25 572.59 420.2C575.39 419.85 577.84 419.15 580.99 418.45C581.34 422.3 583.09 425.8 583.09 430C579.59 436.65 577.84 432.1 577.84 456.6C577.84 458.35 577.84 460.45 578.19 462.2C578.19 466.05 572.94 472.35 572.59 479.35C570.84 509.1 567.69 543.75 567.69 571.05C567.69 575.95 572.94 577.7 572.94 583.65C572.94 587.15 572.59 590.65 572.59 594.15C572.94 600.1 572.24 606.4 577.49 610.95C579.24 612 577.84 616.2 581.34 619.35C587.29 624.95 591.49 630.55 600.24 630.55C605.49 630.55 613.89 630.55 616.69 624.25C619.14 618.65 624.04 614.45 625.09 607.1C625.09 599.75 625.09 587.85 627.89 582.6C631.39 578.05 629.29 572.45 631.74 568.95C636.29 560.2 638.04 547.25 640.49 537.45C642.94 527.3 648.54 517.85 649.94 507.35C649.94 496.5 668.49 474.1 670.94 470.25C671.29 469.9 671.64 469.2 671.64 468.5C671.64 465 666.39 463.25 663.94 463.25C656.59 463.25 646.44 474.8 643.99 483.9C643.64 485.3 642.94 487.4 641.54 488.45C631.74 497.55 633.49 506.3 629.99 519.6C628.94 524.15 625.44 524.5 625.09 528C620.54 540.6 617.04 553.2 613.19 566.85C613.19 574.55 605.14 600.8 599.89 600.8C598.84 600.8 594.99 588.55 594.99 587.15C594.99 585.75 595.34 584 595.69 582.6C593.59 580.5 592.89 578.05 592.89 575.6C592.89 573.5 593.24 570.7 593.24 568.25C593.24 563 592.89 557.75 592.89 552.15C592.89 536.05 596.39 518.2 596.39 502.1C596.39 494.75 601.99 487.4 601.99 482.15C601.99 455.9 612.14 429.3 612.14 406.55C612.14 390.1 601.29 386.25 593.59 386.25C584.84 386.25 581.34 392.2 575.39 394.65C564.54 398.85 558.59 410.05 549.49 414.6C541.44 404.1 533.39 396.75 517.29 396.75C493.14 396.75 488.94 414.25 479.14 428.25C466.89 445.75 464.44 457.3 460.24 468.15C456.04 479 451.49 490.55 451.49 502.1C451.14 505.25 449.04 506.65 446.24 507.35V517.85ZM541.44 421.6C541.44 422.65 541.79 423.35 541.79 424.05C541.79 427.55 536.54 434.55 536.54 434.55C528.84 440.5 524.64 449.6 517.29 455.55C513.44 458.7 510.64 462.9 508.19 466.75C503.29 474.8 485.09 499.3 483.69 499.3C481.94 499.3 481.59 498.25 481.59 496.85C486.84 470.25 503.29 436.3 525.34 421.6C527.79 420.2 529.89 419.5 532.69 419.5C535.14 419.5 538.99 420.55 541.44 421.6Z" fill="#F8FAF9"/>
<path d="M483.87 673V722H478.9V682.8L459.65 715.77H457.2L437.95 683.01V722H432.98V673H437.25L458.53 709.33L479.6 673H483.87ZM530.565 708.91H503.265L497.385 722H491.995L514.395 673H519.505L541.905 722H536.445L530.565 708.91ZM528.675 704.71L516.915 678.39L505.155 704.71H528.675ZM550.011 673H555.191V717.52H582.631V722H550.011V673ZM640.282 708.91H612.982L607.102 722H601.712L624.112 673H629.222L651.622 722H646.162L640.282 708.91ZM638.392 704.71L626.632 678.39L614.872 704.71H638.392ZM700.678 673V722H696.408L664.908 682.24V722H659.728V673H663.998L695.568 712.76V673H700.678ZM716.671 673H736.621C741.801 673 746.375 674.05 750.341 676.15C754.308 678.203 757.388 681.097 759.581 684.83C761.775 688.517 762.871 692.74 762.871 697.5C762.871 702.26 761.775 706.507 759.581 710.24C757.388 713.927 754.308 716.82 750.341 718.92C746.375 720.973 741.801 722 736.621 722H716.671V673ZM736.341 717.52C740.635 717.52 744.391 716.68 747.611 715C750.831 713.273 753.328 710.917 755.101 707.93C756.875 704.897 757.761 701.42 757.761 697.5C757.761 693.58 756.875 690.127 755.101 687.14C753.328 684.107 750.831 681.75 747.611 680.07C744.391 678.343 740.635 677.48 736.341 677.48H721.851V717.52H736.341ZM809.153 717.52V722H774.503V673H808.103V677.48H779.683V694.91H805.023V699.32H779.683V717.52H809.153ZM854.79 722L843.59 706.25C842.33 706.39 841.023 706.46 839.67 706.46H826.51V722H821.33V673H839.67C845.923 673 850.823 674.493 854.37 677.48C857.916 680.467 859.69 684.573 859.69 689.8C859.69 693.627 858.71 696.87 856.75 699.53C854.836 702.143 852.083 704.033 848.49 705.2L860.46 722H854.79ZM839.53 702.05C844.383 702.05 848.093 700.977 850.66 698.83C853.226 696.683 854.51 693.673 854.51 689.8C854.51 685.833 853.226 682.8 850.66 680.7C848.093 678.553 844.383 677.48 839.53 677.48H826.51V702.05H839.53ZM885.426 722.42C881.786 722.42 878.286 721.837 874.926 720.67C871.612 719.503 869.046 717.963 867.226 716.05L869.256 712.06C871.029 713.833 873.386 715.28 876.326 716.4C879.266 717.473 882.299 718.01 885.426 718.01C889.812 718.01 893.102 717.217 895.296 715.63C897.489 713.997 898.586 711.897 898.586 709.33C898.586 707.37 897.979 705.807 896.766 704.64C895.599 703.473 894.152 702.587 892.426 701.98C890.699 701.327 888.296 700.627 885.216 699.88C881.529 698.947 878.589 698.06 876.396 697.22C874.202 696.333 872.312 695.003 870.726 693.23C869.186 691.457 868.416 689.053 868.416 686.02C868.416 683.547 869.069 681.307 870.376 679.3C871.682 677.247 873.689 675.613 876.396 674.4C879.102 673.187 882.462 672.58 886.476 672.58C889.276 672.58 892.006 672.977 894.666 673.77C897.372 674.517 899.706 675.567 901.666 676.92L899.916 681.05C897.862 679.697 895.669 678.693 893.336 678.04C891.002 677.34 888.716 676.99 886.476 676.99C882.182 676.99 878.939 677.83 876.746 679.51C874.599 681.143 873.526 683.267 873.526 685.88C873.526 687.84 874.109 689.427 875.276 690.64C876.489 691.807 877.982 692.717 879.756 693.37C881.576 693.977 884.002 694.653 887.036 695.4C890.629 696.287 893.522 697.173 895.716 698.06C897.956 698.9 899.846 700.207 901.386 701.98C902.926 703.707 903.696 706.063 903.696 709.05C903.696 711.523 903.019 713.787 901.666 715.84C900.359 717.847 898.329 719.457 895.576 720.67C892.822 721.837 889.439 722.42 885.426 722.42Z" fill="#F8FAF9"/>
</svg>
