<?xml version="1.0" standalone="no"?>
<!DOCTYPE svg PUBLIC "-//W3C//DTD SVG 20010904//EN"
 "http://www.w3.org/TR/2001/REC-SVG-20010904/DTD/svg10.dtd">
<svg version="1.0" xmlns="http://www.w3.org/2000/svg"
 width="700.000000pt" height="700.000000pt" viewBox="0 0 700.000000 700.000000"
 preserveAspectRatio="xMidYMid meet">
<metadata>
Created by potrace 1.14, written by Peter Selinger 2001-2017
</metadata>
<g transform="translate(0.000000,700.000000) scale(0.100000,-0.100000)"
fill="#000000" stroke="none">
<path d="M3280 6994 c-19 -2 -84 -9 -145 -14 -639 -62 -1264 -315 -1795 -726
-149 -115 -481 -446 -595 -594 -410 -532 -653 -1132 -727 -1795 -17 -155 -17
-575 0 -730 75 -673 332 -1300 748 -1820 114 -143 339 -372 484 -494 537 -451
1163 -717 1885 -803 142 -17 586 -17 730 0 682 79 1268 318 1802 734 138 107
389 351 512 498 451 538 717 1162 803 1885 16 139 16 595 0 730 -77 629 -275
1158 -620 1649 -234 333 -577 668 -917 896 -460 308 -968 495 -1535 566 -117
15 -552 27 -630 18z m-1510 -2399 c100 -31 186 -83 251 -154 l62 -66 61 60
c71 70 168 124 281 157 106 30 334 33 434 5 113 -31 190 -75 271 -157 82 -82
122 -152 161 -280 23 -74 23 -82 27 -717 l3 -643 -250 0 -250 0 -3 588 c-4
641 -1 616 -64 704 -46 66 -119 101 -220 106 -191 10 -315 -83 -343 -258 -7
-39 -11 -277 -11 -602 l0 -538 -250 0 -250 0 0 553 c0 357 -4 574 -11 612 -27
146 -114 224 -260 233 -145 8 -257 -53 -310 -170 l-24 -53 -3 -587 -3 -588
-254 0 -255 0 2 893 3 892 243 3 242 2 0 -102 0 -103 40 46 c70 82 182 144
315 175 79 18 289 12 365 -11z m2740 10 c144 -21 320 -81 320 -108 0 -15 -131
-360 -140 -370 -4 -5 -27 1 -50 13 -72 37 -185 60 -289 60 -163 0 -272 -41
-338 -128 -39 -52 -52 -94 -60 -194 l-6 -78 347 0 346 0 0 -195 0 -195 -345 0
-345 0 0 -305 0 -305 -250 0 -251 0 3 618 3 617 32 92 c113 323 387 489 813
492 63 0 158 -6 210 -14z m1355 -15 c44 -12 122 -41 174 -66 79 -39 108 -60
180 -132 100 -101 150 -181 190 -307 45 -141 51 -225 51 -777 l0 -508 -255 0
-255 0 0 200 0 200 -345 0 -345 0 0 -200 0 -200 -250 0 -250 0 0 518 c0 303 4
553 11 602 27 217 134 418 282 526 114 84 252 142 392 164 99 15 328 5 420
-20z m516 -2012 c22 -6 39 -17 39 -26 0 -10 -6 -12 -22 -8 -88 26 -148 10
-148 -38 0 -32 15 -42 96 -69 80 -26 105 -56 89 -104 -21 -59 -135 -81 -201
-39 -36 24 -18 42 22 21 42 -22 109 -20 134 5 39 39 17 69 -69 94 -83 24 -101
40 -101 85 0 71 72 106 161 79z m-5711 -108 c36 -62 68 -106 73 -101 4 4 34
53 66 107 84 145 91 141 91 -50 0 -131 -2 -156 -15 -156 -12 0 -15 23 -17 123
l-3 122 -58 -97 c-32 -54 -62 -100 -67 -103 -5 -3 -36 41 -69 97 l-60 103 -3
-119 c-2 -85 -7 -121 -15 -124 -10 -3 -13 32 -13 152 0 119 3 156 13 156 6 0
41 -50 77 -110z m843 -37 c37 -82 67 -151 67 -155 0 -5 -6 -8 -13 -8 -7 0 -23
20 -35 45 l-22 45 -83 0 -83 0 -22 -45 c-12 -25 -28 -45 -37 -45 -17 0 -15 5
40 125 20 44 48 104 61 133 37 85 50 75 127 -95z m477 7 l0 -140 85 0 c69 0
85 -3 85 -15 0 -12 -18 -15 -100 -15 l-100 0 0 155 c0 131 2 155 15 155 13 0
15 -22 15 -140z m1182 -14 c37 -81 68 -150 68 -152 0 -2 -7 -4 -16 -4 -8 0
-24 19 -35 45 l-20 45 -85 0 -84 0 -22 -45 c-12 -25 -28 -45 -35 -45 -7 0 -13
3 -13 6 0 3 30 73 67 155 56 124 71 149 87 147 14 -2 37 -42 88 -152z m568 32
l95 -121 3 122 c2 98 5 121 17 121 13 0 15 -25 15 -155 0 -94 -4 -155 -10
-155 -5 0 -53 55 -107 122 l-98 122 -5 -120 c-4 -97 -8 -119 -20 -119 -13 0
-15 25 -18 153 -2 140 -1 152 15 152 11 0 56 -49 113 -122z m767 105 c41 -19
69 -60 78 -115 5 -30 1 -49 -17 -86 -34 -68 -70 -85 -182 -86 l-91 -1 -3 153
-3 152 92 0 c64 0 101 -5 126 -17z m683 7 c0 -5 -39 -11 -87 -12 l-88 -3 -3
-52 -3 -53 80 0 c64 0 81 -3 81 -15 0 -11 -18 -15 -77 -17 l-78 -3 -3 -57 -3
-58 96 0 c78 0 95 -3 95 -15 0 -12 -19 -15 -110 -15 l-110 0 0 155 0 155 105
0 c60 0 105 -4 105 -10z m599 -4 c31 -17 51 -54 51 -98 0 -22 -10 -40 -34 -63
l-34 -31 34 -45 c37 -49 41 -59 20 -59 -8 0 -30 23 -50 50 -36 50 -36 50 -91
50 l-55 0 0 -50 c0 -38 -4 -50 -15 -50 -13 0 -15 24 -15 155 l0 155 80 0 c51
0 91 -5 109 -14z"/>
<path d="M5480 4184 c-96 -35 -160 -98 -196 -194 -13 -34 -18 -87 -22 -222
l-4 -178 347 0 347 0 -4 178 c-4 154 -7 184 -27 234 -27 70 -88 135 -156 168
-66 31 -216 39 -285 14z"/>
<path d="M1391 2469 c-17 -40 -31 -76 -31 -80 0 -5 32 -9 70 -9 39 0 70 3 70
6 0 9 -68 154 -73 154 -2 0 -18 -32 -36 -71z"/>
<path d="M3046 2466 c-20 -43 -36 -80 -36 -82 0 -2 32 -4 70 -4 50 0 70 4 70
13 -1 6 -16 44 -34 82 l-33 70 -37 -79z"/>
<path d="M4330 2430 l0 -130 55 0 c107 0 165 46 165 131 0 84 -59 129 -172
129 l-48 0 0 -130z"/>
<path d="M5630 2480 l0 -82 71 4 c60 3 74 8 90 27 25 31 24 64 -4 96 -19 23
-33 28 -90 32 l-67 6 0 -83z"/>
</g>
</svg>
