<svg width="1080" height="730" viewBox="0 0 1080 730" fill="none" xmlns="http://www.w3.org/2000/svg">
<path opacity="0.18" d="M254.879 176.216C195.32 208.073 133.953 241.437 92.4393 294.791C67.509 326.869 50.8981 365.054 42.1511 404.787C27.1681 472.605 38.2605 551.227 89.8042 597.867C107.74 614.169 129.676 625.677 152.302 634.518C199.203 652.812 249.616 660.296 299.8 656.415C341.011 653.196 382.152 642.324 423.155 647.505C473.167 653.804 516.833 683.092 563.424 702.378C621.316 726.25 684.355 734.86 746.517 727.384C762.19 725.477 778.056 722.424 791.838 714.715C808.201 705.556 820.328 690.594 833.228 676.917C862.311 645.961 896.62 620.384 934.577 601.362C954.485 591.388 975.58 583.112 992.867 569.076C1038.4 532.19 1046.19 466.181 1043.54 407.646C1040.89 349.112 1027.72 284.498 980.933 248.952C970.489 241.022 958.734 234.875 948.608 226.516C914.834 198.637 904.735 151.97 883.102 113.826C834.594 28.5319 726.36 -8.81042 628.916 1.74434C489.281 16.8719 374.922 112.017 254.879 176.216Z" fill="#B94559"/>
<path d="M335.987 612.803L334.224 636.899C334.145 637.99 334.299 639.085 334.678 640.111C335.056 641.137 335.649 642.071 336.417 642.849C337.186 643.627 338.112 644.232 339.133 644.623C340.155 645.013 341.248 645.181 342.339 645.116L354.716 644.366C355.289 644.331 355.848 644.17 356.353 643.895C356.857 643.62 357.295 643.238 357.634 642.774C357.974 642.31 358.207 641.778 358.318 641.215C358.429 640.65 358.414 640.069 358.274 639.511L351.405 612.032L335.987 612.803Z" fill="#A88D92" fill-opacity="0.5"/>
<path d="M439.512 627.052C454.078 630.46 464.484 635.303 471.32 641.858C473.754 644.174 476.939 645.539 480.295 645.705C484.583 645.931 488.088 645.451 490.723 644.274C491.398 643.976 491.981 643.503 492.411 642.905C492.842 642.306 493.104 641.604 493.171 640.869C493.25 640.122 493.129 639.369 492.819 638.685C492.51 638.002 492.023 637.414 491.409 636.982L456.863 612.402L442.189 618.272L438.765 621.695C438.395 622.065 438.115 622.518 437.949 623.014C437.782 623.511 437.734 624.04 437.805 624.559C437.878 625.078 438.069 625.573 438.366 626.006C438.662 626.439 439.054 626.797 439.512 627.052Z" fill="#A88D92" fill-opacity="0.5"/>
<path d="M394.684 233.629L295.937 232.714C296.185 218.332 299.532 204.208 306.847 191.57C311.65 183.269 311.547 174.236 310.389 166.625C308.602 154.881 312.758 142.865 321.989 135.388C329.044 129.665 337.949 126.719 347.026 127.105L348.942 127.185C355.189 127.444 361.269 129.269 366.625 132.491C371.983 135.712 376.444 140.228 379.601 145.624C382.809 151.384 384.103 158.015 383.295 164.558C382.669 170.715 384.167 176.935 387.67 183.214C393.714 197.001 395.023 214.644 394.684 233.629Z" fill="#2F2E41"/>
<path d="M460.751 613.683L441.371 618.739L346.998 413.14L352.897 613.683H333.516C312.807 519.334 275.418 410.444 292.228 376.065L392.499 370.167L460.751 613.683Z" fill="#100A0F" fill-opacity="0.8"/>
<path d="M346.155 199.116C360.581 199.116 372.276 187.421 372.276 172.995C372.276 158.568 360.581 146.874 346.155 146.874C331.729 146.874 320.034 158.568 320.034 172.995C320.034 187.421 331.729 199.116 346.155 199.116Z" fill="#FFB9B9"/>
<path d="M368.907 221.024L346.707 225.519L325.933 218.496C330.144 208.83 331.826 199.522 330.146 190.69H362.165C362.092 197.471 365.467 209.201 368.907 221.024Z" fill="#FFB9B9"/>
<path d="M398.471 386.875C398.005 389.673 353.236 389.673 341.577 389.673C329.918 389.673 288.427 393.683 288.427 387.48C288.427 381.279 293.331 358.894 294.942 342.106C296.554 325.317 302.404 219.457 302.404 219.457L327.587 211.995L345.308 223.188L366.293 209.197C366.293 209.197 399.87 219.923 400.803 221.322C401.736 222.721 391.476 273.553 390.077 287.543C388.678 301.534 386.346 336.51 387.279 345.37C388.212 354.231 398.937 384.077 398.471 386.875Z" fill="#6D0230"/>
<path d="M286.33 314.554L261.894 299.388L282.733 238.352C285.058 232.055 289.509 226.766 295.319 223.403C295.319 223.403 300.072 220.389 302.404 219.457C304.736 218.524 300.072 272.154 300.072 272.154L286.33 314.554Z" fill="#6D0230"/>
<path d="M446.038 302.933L426.204 299.388L393.808 261.428L400.803 221.322L451.483 291.804L446.038 302.933Z" fill="#6D0230"/>
<path d="M377.654 339.768C378.026 341.402 379.032 342.821 380.449 343.715C381.865 344.609 383.58 344.904 385.214 344.536L404.526 340.163L401.735 327.836L382.422 332.209C380.788 332.579 379.368 333.584 378.473 335.001C377.579 336.419 377.285 338.133 377.654 339.768Z" fill="#FFB9B9"/>
<path d="M368.907 166.254C354.398 160.288 340.068 159.856 325.933 165.411L320.034 144.346H373.962L368.907 166.254Z" fill="#2F2E41"/>
<path d="M395.028 325.508L404.067 342.106C422.492 336.967 449.303 306.663 451.483 302C453.662 297.337 451.483 291.804 451.483 291.804L425.362 298.544L395.028 325.508Z" fill="#6D0230"/>
<path d="M252.203 262.074L273.233 265.829L321.298 334.173L295.763 328.165L252.203 262.074Z" fill="#B94559"/>
<path d="M248.474 261.238C248.153 261.242 247.84 261.333 247.566 261.501C247.293 261.668 247.07 261.905 246.92 262.189C246.77 262.471 246.699 262.79 246.714 263.11C246.729 263.43 246.83 263.741 247.006 264.009L291.935 332.177C292.186 332.558 292.573 332.828 293.017 332.933L313.922 337.851C314.274 337.934 314.644 337.908 314.98 337.776C315.318 337.645 315.607 337.413 315.809 337.113C316.013 336.813 316.119 336.458 316.116 336.096C316.113 335.734 315.999 335.382 315.791 335.086L266.462 264.946C266.328 264.755 266.158 264.592 265.961 264.467C265.764 264.342 265.545 264.256 265.315 264.216L248.81 261.268C248.699 261.248 248.587 261.238 248.474 261.238Z" fill="#3F3D56"/>
<path d="M276.5 309.977L277.749 322.555L297.454 320.599C299.122 320.434 300.655 319.612 301.717 318.316C302.78 317.019 303.284 315.353 303.118 313.686C302.953 312.018 302.131 310.484 300.835 309.421C299.539 308.36 297.873 307.855 296.205 308.021L276.5 309.977Z" fill="#FFB9B9"/>
<path d="M259.367 308.52C259.5 310.394 261.589 315.765 264.63 318.788C267.67 321.812 271.067 323.914 275.356 323.918H278.62L280.486 308.52L262.298 297.803C262.298 297.803 259.232 306.647 259.367 308.52Z" fill="#6D0230"/>
<path d="M939.019 108H554.75V310.394H939.019V108Z" fill="#FFFCFD" fill-opacity="0.8"/>
<path opacity="0.8" d="M565.943 299.202H927.827V119.192H565.943V299.202Z" fill="white"/>
<path d="M722.635 145.308H593.923V274.019H722.635V145.308Z" fill="#3F3D56"/>
<path d="M691.856 204.067C693.916 204.067 695.587 202.397 695.587 200.337C695.587 198.276 693.916 196.606 691.856 196.606C689.796 196.606 688.125 198.276 688.125 200.337C688.125 202.397 689.796 204.067 691.856 204.067Z" fill="#B94559"/>
<path d="M677.866 191.01C679.926 191.01 681.596 189.339 681.596 187.279C681.596 185.218 679.926 183.548 677.866 183.548C675.805 183.548 674.135 185.218 674.135 187.279C674.135 189.339 675.805 191.01 677.866 191.01Z" fill="#B94559"/>
<path d="M676 200.337C674.627 200.337 673.281 200.718 672.113 201.438C671.083 199.89 669.873 198.47 668.508 197.208C668.524 197.008 668.539 196.809 668.539 196.606C668.54 195.142 668.11 193.71 667.302 192.489C666.495 191.267 665.346 190.311 663.998 189.738C662.651 189.166 661.165 189.002 659.726 189.269C658.286 189.535 656.957 190.22 655.904 191.236C653.906 190.953 651.878 190.935 649.876 191.184C649.877 191.125 649.885 191.068 649.885 191.01C649.886 189.761 649.574 188.531 648.977 187.434C648.38 186.337 647.518 185.408 646.468 184.73C645.419 184.053 644.216 183.651 642.971 183.559C641.725 183.467 640.477 183.69 639.339 184.206C638.202 184.722 637.212 185.515 636.462 186.513C635.711 187.511 635.222 188.682 635.04 189.917C634.859 191.153 634.991 192.414 635.424 193.586C635.856 194.757 636.576 195.802 637.517 196.623C636.269 197.693 635.135 198.891 634.137 200.198C633.216 199.432 632.125 198.899 630.953 198.643C629.783 198.388 628.568 198.419 627.412 198.732C626.255 199.046 625.191 199.634 624.311 200.446C623.429 201.257 622.756 202.269 622.348 203.396C621.941 204.522 621.811 205.731 621.969 206.919C622.127 208.107 622.569 209.238 623.257 210.219C623.946 211.2 624.861 212.001 625.923 212.553C626.986 213.106 628.167 213.394 629.366 213.394L629.389 213.393C629.377 213.703 629.366 214.014 629.366 214.327C629.366 216.204 629.592 218.074 630.04 219.898C627.823 220.733 625.853 222.117 624.318 223.921C622.782 225.724 621.729 227.889 621.259 230.212C620.789 232.534 620.916 234.938 621.629 237.197C622.343 239.456 623.618 241.497 625.336 243.128C627.055 244.76 629.16 245.927 631.453 246.523C633.747 247.119 636.154 247.12 638.448 246.531C640.743 245.941 642.85 244.777 644.572 243.15C646.294 241.522 647.574 239.483 648.292 237.225C653.482 238.223 658.857 237.426 663.535 234.965C664.012 236.088 664.759 237.079 665.708 237.848C666.657 238.616 667.78 239.139 668.98 239.372C670.179 239.606 671.417 239.54 672.585 239.183C673.753 238.826 674.816 238.188 675.679 237.324C676.543 236.461 677.182 235.397 677.539 234.23C677.896 233.061 677.962 231.823 677.729 230.624C677.495 229.425 676.971 228.301 676.203 227.352C675.434 226.402 674.445 225.656 673.321 225.179C674.936 222.112 675.844 218.722 675.976 215.259L676 215.26C677.979 215.26 679.877 214.473 681.276 213.074C682.676 211.675 683.462 209.777 683.462 207.798C683.462 205.819 682.676 203.921 681.276 202.522C679.877 201.123 677.979 200.337 676 200.337V200.337Z" fill="#B94559"/>
<path d="M674.135 142.51H636.827V148.106H674.135V142.51Z" fill="#FFFCFD"/>
<path d="M886.789 145.308H758.077V274.019H886.789V145.308Z" fill="#3F3D56"/>
<path d="M846.869 232.608C847.796 232.608 848.548 231.856 848.548 230.929C848.548 230.002 847.796 229.25 846.869 229.25C845.942 229.25 845.19 230.002 845.19 230.929C845.19 231.856 845.942 232.608 846.869 232.608Z" fill="#B94559"/>
<path d="M840.574 226.732C841.501 226.732 842.253 225.98 842.253 225.053C842.253 224.126 841.501 223.374 840.574 223.374C839.647 223.374 838.895 224.126 838.895 225.053C838.895 225.98 839.647 226.732 840.574 226.732Z" fill="#B94559"/>
<path d="M839.734 230.929C839.116 230.929 838.511 231.1 837.985 231.424C837.521 230.727 836.977 230.089 836.363 229.521C836.37 229.431 836.377 229.341 836.377 229.25C836.377 228.592 836.184 227.947 835.82 227.398C835.457 226.847 834.939 226.417 834.333 226.16C833.727 225.902 833.058 225.829 832.411 225.948C831.763 226.069 831.165 226.376 830.691 226.833C829.792 226.707 828.88 226.698 827.978 226.81C827.979 226.784 827.982 226.758 827.982 226.732C827.982 226.169 827.842 225.616 827.574 225.123C827.305 224.629 826.917 224.211 826.444 223.906C825.972 223.602 825.431 223.42 824.871 223.379C824.31 223.338 823.748 223.438 823.237 223.67C822.725 223.902 822.28 224.259 821.941 224.709C821.604 225.157 821.384 225.684 821.302 226.24C821.22 226.796 821.28 227.364 821.475 227.891C821.67 228.418 821.994 228.888 822.417 229.257C821.855 229.739 821.345 230.279 820.896 230.866C820.482 230.522 819.99 230.282 819.463 230.167C818.936 230.052 818.39 230.066 817.869 230.207C817.349 230.348 816.87 230.613 816.474 230.978C816.077 231.343 815.774 231.799 815.591 232.306C815.408 232.813 815.349 233.357 815.42 233.891C815.492 234.426 815.69 234.935 816 235.376C816.31 235.817 816.721 236.178 817.2 236.426C817.678 236.675 818.21 236.805 818.749 236.805L818.759 236.804C818.753 236.944 818.749 237.084 818.749 237.225C818.749 238.07 818.85 238.911 819.052 239.732C818.054 240.107 817.168 240.73 816.477 241.542C815.786 242.353 815.312 243.327 815.1 244.373C814.889 245.417 814.946 246.499 815.267 247.516C815.588 248.533 816.162 249.451 816.936 250.185C817.709 250.919 818.655 251.445 819.688 251.713C820.72 251.981 821.803 251.982 822.836 251.716C823.868 251.451 824.817 250.927 825.591 250.195C826.366 249.462 826.942 248.545 827.265 247.529C829.601 247.978 832.02 247.619 834.124 246.511C834.34 247.018 834.675 247.463 835.103 247.809C835.53 248.155 836.035 248.391 836.575 248.495C837.114 248.6 837.671 248.571 838.197 248.41C838.723 248.249 839.201 247.962 839.59 247.573C839.979 247.185 840.266 246.706 840.426 246.18C840.588 245.655 840.617 245.098 840.512 244.558C840.407 244.018 840.171 243.513 839.826 243.086C839.48 242.658 839.034 242.323 838.528 242.108C839.255 240.728 839.663 239.203 839.723 237.643L839.734 237.644C840.624 237.644 841.478 237.291 842.108 236.661C842.738 236.031 843.092 235.177 843.092 234.287C843.092 233.396 842.738 232.542 842.108 231.912C841.478 231.282 840.624 230.929 839.734 230.929Z" fill="#B94559"/>
<path d="M860.04 200.749C860.968 200.749 861.719 199.997 861.719 199.07C861.719 198.142 860.968 197.391 860.04 197.391C859.113 197.391 858.361 198.142 858.361 199.07C858.361 199.997 859.113 200.749 860.04 200.749Z" fill="#B94559"/>
<path d="M863.99 193.096C864.917 193.096 865.669 192.344 865.669 191.417C865.669 190.49 864.917 189.738 863.99 189.738C863.063 189.738 862.311 190.49 862.311 191.417C862.311 192.344 863.063 193.096 863.99 193.096Z" fill="#B94559"/>
<path d="M858.106 192.202C857.939 191.607 857.609 191.071 857.155 190.652C857.7 190.018 858.167 189.32 858.548 188.575C858.636 188.557 858.724 188.539 858.812 188.515C859.446 188.337 860.014 187.976 860.445 187.477C860.875 186.978 861.149 186.364 861.233 185.71C861.317 185.057 861.206 184.393 860.915 183.802C860.624 183.211 860.166 182.719 859.597 182.387C859.476 181.487 859.236 180.607 858.884 179.77C858.909 179.763 858.935 179.759 858.961 179.752C859.502 179.6 859.996 179.315 860.398 178.923C860.801 178.531 861.099 178.044 861.264 177.506C861.429 176.969 861.457 176.399 861.345 175.848C861.232 175.298 860.984 174.784 860.621 174.354C860.259 173.925 859.795 173.593 859.27 173.389C858.747 173.186 858.18 173.117 857.623 173.189C857.066 173.261 856.535 173.472 856.081 173.803C855.625 174.133 855.262 174.572 855.02 175.08C854.405 174.67 853.747 174.325 853.06 174.052C853.279 173.56 853.377 173.021 853.345 172.483C853.312 171.945 853.151 171.423 852.874 170.96C852.597 170.497 852.213 170.108 851.754 169.825C851.295 169.543 850.774 169.375 850.236 169.336C849.698 169.297 849.159 169.388 848.664 169.601C848.169 169.815 847.733 170.144 847.392 170.562C847.051 170.98 846.815 171.473 846.706 172.001C846.596 172.529 846.616 173.076 846.761 173.595L846.765 173.605C846.629 173.637 846.493 173.67 846.357 173.708C845.544 173.938 844.761 174.264 844.027 174.68C843.395 173.822 842.555 173.137 841.587 172.692C840.618 172.247 839.551 172.055 838.488 172.135C837.425 172.214 836.4 172.563 835.508 173.147C834.617 173.732 833.888 174.534 833.391 175.477C832.894 176.42 832.645 177.474 832.666 178.54C832.689 179.606 832.981 180.649 833.517 181.571C834.052 182.493 834.813 183.264 835.728 183.811C836.643 184.358 837.682 184.664 838.747 184.7C838.949 187.07 839.95 189.301 841.587 191.026C841.158 191.37 840.82 191.814 840.603 192.319C840.385 192.824 840.296 193.375 840.341 193.923C840.386 194.47 840.566 194.999 840.863 195.461C841.16 195.924 841.566 196.306 842.045 196.575C842.526 196.844 843.064 196.991 843.613 197.003C844.163 197.015 844.707 196.892 845.198 196.645C845.689 196.398 846.112 196.034 846.429 195.585C846.746 195.136 846.95 194.617 847.019 194.071C848.544 194.397 850.124 194.377 851.64 194.012L851.642 194.022C851.761 194.447 851.963 194.844 852.236 195.191C852.508 195.537 852.847 195.827 853.232 196.043C853.616 196.258 854.04 196.396 854.478 196.448C854.917 196.501 855.361 196.466 855.785 196.346C856.209 196.227 856.607 196.025 856.953 195.752C857.3 195.479 857.589 195.14 857.804 194.755C858.02 194.37 858.158 193.946 858.209 193.508C858.261 193.07 858.226 192.626 858.106 192.202Z" fill="#B94559"/>
<path d="M795.016 177.935C795.944 177.935 796.695 177.183 796.695 176.256C796.695 175.329 795.944 174.577 795.016 174.577C794.089 174.577 793.338 175.329 793.338 176.256C793.338 177.183 794.089 177.935 795.016 177.935Z" fill="#B94559"/>
<path d="M786.432 178.622C787.359 178.622 788.111 177.871 788.111 176.944C788.111 176.016 787.359 175.265 786.432 175.265C785.505 175.265 784.753 176.016 784.753 176.944C784.753 177.871 785.505 178.622 786.432 178.622Z" fill="#B94559"/>
<path d="M790.206 181.525C789.789 181.982 789.508 182.544 789.392 183.151C788.565 183.024 787.727 182.995 786.893 183.066C786.831 183 786.77 182.935 786.702 182.873C786.216 182.428 785.609 182.137 784.958 182.035C784.307 181.932 783.641 182.024 783.042 182.298C782.443 182.572 781.938 183.017 781.589 183.576C781.242 184.135 781.065 184.784 781.084 185.443C780.384 186.021 779.762 186.689 779.238 187.43C779.219 187.412 779.202 187.392 779.182 187.374C778.768 186.995 778.264 186.726 777.719 186.591C777.173 186.457 776.602 186.461 776.06 186.605C775.516 186.748 775.017 187.025 774.608 187.412C774.201 187.798 773.896 188.28 773.722 188.815C773.549 189.349 773.511 189.919 773.616 190.471C773.719 191.024 773.96 191.541 774.315 191.976C774.672 192.411 775.131 192.75 775.651 192.962C776.171 193.174 776.738 193.251 777.295 193.187C777.272 193.927 777.327 194.667 777.459 195.396C776.924 195.469 776.416 195.67 775.976 195.982C775.535 196.294 775.177 196.707 774.931 197.186C774.684 197.666 774.557 198.198 774.559 198.737C774.562 199.276 774.693 199.807 774.944 200.284C775.195 200.761 775.558 201.171 776 201.478C776.443 201.786 776.953 201.983 777.487 202.052C778.023 202.121 778.566 202.059 779.072 201.874C779.579 201.688 780.033 201.384 780.396 200.985L780.403 200.977C780.502 201.075 780.602 201.173 780.706 201.268C781.33 201.838 782.02 202.33 782.762 202.735C782.366 203.724 782.229 204.799 782.363 205.856C782.496 206.915 782.896 207.921 783.526 208.782C784.154 209.643 784.992 210.329 785.959 210.778C786.926 211.227 787.992 211.422 789.056 211.346C790.119 211.27 791.146 210.924 792.039 210.342C792.933 209.761 793.664 208.962 794.164 208.02C794.664 207.079 794.917 206.026 794.898 204.96C794.88 203.894 794.591 202.849 794.059 201.926C795.965 200.504 797.331 198.475 797.931 196.174C798.45 196.357 799.006 196.409 799.549 196.327C800.092 196.244 800.607 196.03 801.049 195.702C801.49 195.374 801.844 194.943 802.08 194.446C802.316 193.95 802.426 193.403 802.401 192.854C802.375 192.305 802.216 191.77 801.936 191.297C801.656 190.824 801.265 190.427 800.795 190.14C800.326 189.854 799.794 189.687 799.245 189.654C798.697 189.622 798.148 189.724 797.649 189.953C797.12 188.486 796.268 187.155 795.157 186.06L795.165 186.053C795.463 185.727 795.694 185.346 795.845 184.932C795.995 184.517 796.063 184.076 796.042 183.635C796.023 183.194 795.917 182.762 795.73 182.362C795.543 181.962 795.279 181.603 794.952 181.306C794.627 181.008 794.245 180.778 793.83 180.628C793.415 180.478 792.975 180.411 792.534 180.432C792.093 180.452 791.66 180.559 791.261 180.747C790.861 180.934 790.503 181.199 790.206 181.525Z" fill="#B94559"/>
<path d="M838.289 142.51H800.981V148.106H838.289V142.51Z" fill="#FFFCFD"/>
<path d="M165.462 583.9C178.912 601.911 206.829 603.807 206.829 603.807C206.829 603.807 212.942 576.501 199.493 558.489C186.043 540.478 158.126 538.582 158.126 538.582C158.126 538.582 152.013 565.888 165.462 583.9Z" fill="#2FAF43" fill-opacity="0.69"/>
<path d="M233.975 590.671C225.1 602.555 206.678 603.807 206.678 603.807C206.678 603.807 202.645 585.788 211.52 573.903C220.394 562.018 238.817 560.767 238.817 560.767C238.817 560.767 242.85 578.786 233.975 590.671Z" fill="#2FAF43" fill-opacity="0.69"/>
<path d="M626.567 644.91H141.981V647H626.567V644.91Z" fill="#3F3D56"/>
<path d="M231.106 645.231H178.875L173.279 600.461H236.702L231.106 645.231Z" fill="#6D0230"/>
<path d="M358.365 266.247C358.365 265.469 358.114 245.106 358.365 245.106H379.817C379.948 245.106 379.817 265.469 379.817 266.247C379.817 267.024 369.558 273.086 369.091 273.086C368.625 273.086 358.365 267.024 358.365 266.247Z" fill="#B94559" fill-opacity="0.5"/>
<path d="M358.274 246.971C358.274 246.971 358.274 245.142 358.365 245.106C358.457 245.069 379.773 245.069 379.817 245.106C379.861 245.142 379.861 246.971 379.861 246.971H358.274Z" fill="#6D0230" fill-opacity="0.54"/>
</svg>
