<svg width="1000" height="500" viewBox="0 0 1000 500" fill="none" xmlns="http://www.w3.org/2000/svg">
<g clip-path="url(#clip0_817_294)">
<path d="M354.845 62.3005C390.539 62.3005 418.316 72.9509 438.178 94.2517C458.327 115.265 468.402 145.776 468.402 185.787V370.586H382.911V188.378C382.911 170.244 378.161 156.571 368.662 147.36C359.163 137.861 346.498 133.111 330.666 133.111C313.683 133.111 300.154 138.149 290.08 148.223C280.293 158.01 275.399 172.834 275.399 192.696V370.586H189.909V188.378C189.909 170.244 185.447 156.571 176.524 147.36C167.888 137.861 155.942 133.111 140.686 133.111C124.279 133.111 111.182 138.149 101.395 148.223C91.6084 158.01 86.7149 172.834 86.7149 192.696V370.586H1.22405V68.3453H84.1243V102.024C93.3355 89.0704 105.137 79.2836 119.53 72.663C134.21 65.7547 151.193 62.3005 170.479 62.3005C190.34 62.3005 207.611 65.8986 222.291 73.0948C237.26 80.291 249.349 90.7975 258.56 104.614C268.923 90.7975 282.452 80.291 299.147 73.0948C315.842 65.8986 334.408 62.3005 354.845 62.3005ZM642.318 133.111C620.442 133.111 603.746 137.861 592.232 147.36C580.719 156.859 574.962 171.251 574.962 190.537V200.899H691.108V266.961H574.962V370.586H489.471V191.832C489.471 150.67 502.28 118.863 527.898 96.4105C553.517 73.6705 589.498 62.3005 635.841 62.3005C653.4 62.3005 669.808 64.0276 685.063 67.4818C700.607 70.936 713.848 75.8294 724.787 82.162L699.744 147.791C683.049 138.005 663.907 133.111 642.318 133.111ZM855.495 62.3005C883.992 62.3005 909.035 68.0575 930.624 79.5714C952.5 90.7975 969.339 107.349 981.141 129.225C993.231 150.814 999.276 176.864 999.276 207.376V370.586H913.785V303.661H795.911V370.586H711.715V207.376C711.715 176.864 717.616 150.814 729.418 129.225C741.508 107.349 758.347 90.7975 779.935 79.5714C801.812 68.0575 826.998 62.3005 855.495 62.3005ZM913.785 237.6V200.036C913.785 177.872 908.459 161.176 897.809 149.95C887.159 138.724 872.91 133.111 855.064 133.111C836.929 133.111 822.537 138.724 811.886 149.95C801.236 161.176 795.911 177.872 795.911 200.036V237.6H913.785Z" fill="#F8FAF9"/>
<path d="M55.6006 411.33V464.267H50.2312V421.917L29.4344 457.537H26.7875L5.99062 422.144V464.267H0.62125V411.33H5.23437L28.2244 450.579L50.9875 411.33H55.6006ZM160.498 450.125H131.005L124.652 464.267H118.829L143.029 411.33H148.55L172.75 464.267H166.851L160.498 450.125ZM158.457 445.588L145.752 417.153L133.047 445.588H158.457ZM235.957 411.33H241.553V459.427H271.198V464.267H235.957V411.33ZM442.382 450.125H412.888L406.535 464.267H400.712L424.912 411.33H430.433L454.633 464.267H448.734L442.382 450.125ZM440.34 445.588L427.635 417.153L414.93 445.588H440.34ZM562.081 411.33V464.267H557.468L523.436 421.312V464.267H517.84V411.33H522.453L556.56 454.285V411.33H562.081ZM633.809 411.33H655.362C660.959 411.33 665.899 412.464 670.185 414.733C674.47 416.951 677.798 420.077 680.167 424.11C682.537 428.093 683.722 432.656 683.722 437.798C683.722 442.941 682.537 447.529 680.167 451.562C677.798 455.545 674.47 458.671 670.185 460.94C665.899 463.158 660.959 464.267 655.362 464.267H633.809V411.33ZM655.06 459.427C659.698 459.427 663.757 458.52 667.235 456.705C670.714 454.839 673.412 452.293 675.327 449.067C677.243 445.789 678.201 442.033 678.201 437.798C678.201 433.563 677.243 429.833 675.327 426.606C673.412 423.329 670.714 420.783 667.235 418.968C663.757 417.102 659.698 416.17 655.06 416.17H639.405V459.427H655.06ZM788.173 459.427V464.267H750.738V411.33H787.038V416.17H756.335V435H783.711V439.765H756.335V459.427H788.173ZM891.926 464.267L879.826 447.252C878.465 447.403 877.053 447.478 875.591 447.478H861.374V464.267H855.777V411.33H875.591C882.347 411.33 887.641 412.943 891.472 416.17C895.304 419.396 897.22 423.833 897.22 429.48C897.22 433.614 896.161 437.118 894.044 439.992C891.977 442.815 889.002 444.857 885.12 446.117L898.052 464.267H891.926ZM875.44 442.714C880.683 442.714 884.691 441.554 887.464 439.235C890.237 436.916 891.624 433.664 891.624 429.48C891.624 425.194 890.237 421.917 887.464 419.648C884.691 417.329 880.683 416.17 875.44 416.17H861.374V442.714H875.44ZM979.474 464.721C975.541 464.721 971.76 464.091 968.13 462.83C964.551 461.57 961.778 459.906 959.811 457.839L962.005 453.528C963.92 455.444 966.466 457.007 969.643 458.217C972.819 459.377 976.096 459.957 979.474 459.957C984.213 459.957 987.767 459.099 990.137 457.385C992.507 455.621 993.691 453.352 993.691 450.579C993.691 448.462 993.036 446.773 991.725 445.512C990.465 444.252 988.902 443.294 987.036 442.638C985.171 441.933 982.575 441.176 979.247 440.37C975.264 439.361 972.088 438.403 969.718 437.496C967.349 436.538 965.307 435.101 963.593 433.185C961.929 431.269 961.097 428.673 961.097 425.396C961.097 422.724 961.803 420.304 963.215 418.136C964.626 415.918 966.794 414.153 969.718 412.842C972.642 411.531 976.272 410.876 980.608 410.876C983.633 410.876 986.583 411.304 989.456 412.162C992.381 412.968 994.901 414.103 997.019 415.565L995.128 420.027C992.91 418.564 990.54 417.48 988.02 416.775C985.499 416.018 983.028 415.64 980.608 415.64C975.97 415.64 972.466 416.548 970.096 418.363C967.777 420.127 966.618 422.421 966.618 425.245C966.618 427.362 967.248 429.076 968.508 430.387C969.819 431.648 971.432 432.631 973.348 433.337C975.315 433.992 977.936 434.723 981.213 435.53C985.095 436.488 988.221 437.445 990.591 438.403C993.011 439.311 995.053 440.723 996.716 442.638C998.38 444.504 999.212 447.05 999.212 450.277C999.212 452.949 998.481 455.394 997.019 457.612C995.607 459.78 993.414 461.519 990.44 462.83C987.465 464.091 983.81 464.721 979.474 464.721Z" fill="#F8FAF9"/>
</g>
<defs>
<clipPath id="clip0_817_294">
<rect width="1000" height="500" fill="white"/>
</clipPath>
</defs>
</svg>
