<svg width="600" height="301" viewBox="0 0 600 301" fill="none" xmlns="http://www.w3.org/2000/svg">
<path d="M217.984 273.095L217.925 237.174L200.648 267.518H199.174L181.897 237.294V273.095H178.949V231.117H181.484L199.941 263.56L218.397 231.117H220.873L220.932 273.095H217.984ZM260.855 261.281H236.915L231.667 273.095H228.424L247.411 231.117H250.418L269.405 273.095H266.162L260.855 261.281ZM259.735 258.703L248.885 234.475L238.094 258.703H259.735ZM276.899 231.117H279.906V270.336H303.669V273.095H276.899V231.117ZM352.068 261.281H328.128L322.88 273.095H319.637L338.624 231.117H341.631L360.618 273.095H357.375L352.068 261.281ZM350.948 258.703L340.098 234.475L329.307 258.703H350.948ZM401.722 231.117V273.095H399.246L371.119 236.634V273.095H368.112V231.117H370.647L398.715 267.578V231.117H401.722ZM416.136 231.117H432.47C436.755 231.117 440.548 232.017 443.85 233.816C447.192 235.615 449.787 238.114 451.634 241.312C453.481 244.47 454.405 248.068 454.405 252.106C454.405 256.144 453.481 259.762 451.634 262.96C449.787 266.119 447.192 268.597 443.85 270.396C440.548 272.195 436.755 273.095 432.47 273.095H416.136V231.117ZM432.234 270.336C436.047 270.336 439.409 269.577 442.317 268.058C445.226 266.498 447.467 264.34 449.039 261.581C450.612 258.822 451.398 255.664 451.398 252.106C451.398 248.548 450.612 245.39 449.039 242.631C447.467 239.873 445.226 237.733 442.317 236.214C439.409 234.655 436.047 233.876 432.234 233.876H419.144V270.336H432.234ZM493.333 270.336V273.095H464.852V231.117H492.448V233.876H467.86V250.427H489.854V253.125H467.86V270.336H493.333ZM532.955 273.095L523.108 259.062C521.653 259.262 520.316 259.362 519.098 259.362H507.305V273.095H504.298V231.117H519.098C524.287 231.117 528.356 232.376 531.304 234.895C534.252 237.374 535.726 240.832 535.726 245.27C535.726 248.588 534.881 251.386 533.191 253.665C531.54 255.904 529.161 257.483 526.056 258.403L536.375 273.095H532.955ZM519.098 256.664C523.5 256.664 526.861 255.684 529.181 253.725C531.5 251.726 532.66 248.908 532.66 245.27C532.66 241.631 531.5 238.833 529.181 236.874C526.861 234.875 523.5 233.876 519.098 233.876H507.305V256.664H519.098ZM557.586 273.395C554.559 273.395 551.67 272.875 548.918 271.836C546.206 270.756 544.083 269.377 542.55 267.698L543.906 265.419C545.361 266.978 547.307 268.257 549.744 269.257C552.22 270.216 554.815 270.696 557.527 270.696C561.458 270.696 564.426 269.936 566.431 268.417C568.436 266.898 569.438 264.919 569.438 262.481C569.438 260.602 568.908 259.103 567.846 257.983C566.785 256.863 565.468 256.004 563.896 255.404C562.323 254.805 560.201 254.185 557.527 253.545C554.5 252.785 552.063 252.046 550.215 251.326C548.408 250.607 546.854 249.508 545.557 248.028C544.299 246.509 543.67 244.49 543.67 241.971C543.67 239.932 544.201 238.073 545.262 236.394C546.324 234.675 547.936 233.316 550.097 232.316C552.299 231.317 555.031 230.817 558.294 230.817C560.574 230.817 562.815 231.157 565.016 231.837C567.218 232.516 569.124 233.436 570.736 234.595L569.615 237.054C567.964 235.895 566.136 235.015 564.131 234.415C562.166 233.816 560.22 233.516 558.294 233.516C554.481 233.516 551.592 234.295 549.626 235.855C547.66 237.414 546.677 239.433 546.677 241.911C546.677 243.79 547.208 245.289 548.27 246.409C549.331 247.529 550.648 248.388 552.22 248.988C553.793 249.587 555.935 250.227 558.648 250.907C561.675 251.666 564.092 252.406 565.9 253.125C567.709 253.845 569.242 254.944 570.5 256.424C571.797 257.863 572.446 259.822 572.446 262.301C572.446 264.34 571.895 266.199 570.794 267.878C569.733 269.557 568.082 270.896 565.841 271.896C563.601 272.895 560.849 273.395 557.586 273.395ZM582.523 273.335C581.855 273.335 581.266 273.095 580.754 272.615C580.283 272.095 580.047 271.476 580.047 270.756C580.047 270.037 580.283 269.437 580.754 268.957C581.266 268.477 581.855 268.237 582.523 268.237C583.191 268.237 583.762 268.477 584.233 268.957C584.745 269.437 585 270.037 585 270.756C585 271.476 584.745 272.095 584.233 272.615C583.762 273.095 583.191 273.335 582.523 273.335Z" fill="#FFFCFD"/>
<path d="M109.081 175.438C108.402 176.129 108.062 176.992 107.553 176.992C107.213 176.992 106.704 176.301 106.364 176.301C106.024 176.301 105.515 177.165 105.175 177.165C104.836 177.165 104.666 176.819 104.666 175.783C104.666 174.747 105.005 173.711 105.005 172.674C105.005 171.984 104.496 171.293 104.496 170.602C104.496 168.702 109.251 164.903 109.251 164.039C109.251 162.83 109.251 161.448 109.251 159.549C107.553 162.312 106.364 163.694 104.666 163.694C104.666 160.585 105.005 157.994 105.005 155.231C105.005 153.504 104.496 151.949 104.496 150.222C104.496 148.15 104.836 145.732 104.836 143.659C104.836 142.45 103.307 140.033 103.307 137.269C103.307 133.815 103.137 131.052 103.137 127.079C103.137 124.834 103.137 122.071 103.647 122.071C103.987 122.071 104.326 122.244 104.836 122.244C105.345 122.244 106.194 119.135 106.194 118.271C106.194 115.681 105.855 113.608 105.855 111.19C105.855 109.29 106.704 108.081 106.704 106.7C106.704 104.109 105.345 102.037 105.345 99.1006C105.345 94.2647 107.553 91.3287 107.553 87.8745C107.553 85.6293 107.043 83.2114 107.043 81.1389C107.043 79.4118 107.553 77.6847 107.553 75.7849C107.553 72.158 106.194 71.9853 103.817 69.3947C104.496 68.1857 105.855 66.2859 105.855 65.2497C105.855 63.6953 102.968 62.659 102.968 60.5865C102.968 60.0684 103.137 59.2049 103.137 58.514C103.137 56.0961 100.93 51.2603 98.0428 51.2603C97.5333 51.433 96.854 51.6057 96.1748 51.7784C96.3446 51.7784 96.3446 51.7784 96.3446 51.9511H96.1748C96.3446 51.433 96.6842 50.7421 96.6842 50.224C96.0049 48.4969 94.1369 48.3242 92.6085 48.3242C91.9292 48.3242 91.2499 48.6696 90.5706 48.6696C89.3819 48.6696 88.363 48.3242 87.344 47.9788C84.9665 50.3967 81.9097 51.2603 80.3813 54.5417C79.0228 57.6505 75.966 58.6867 74.4376 61.7955C66.1163 73.367 60.682 86.3201 53.5495 98.0643C53.3797 98.4097 53.0401 98.5824 52.7004 98.5824C50.8324 98.5824 49.4738 96.5099 49.4738 93.0558C49.4738 89.0835 45.3981 84.4203 44.7188 80.7934C44.2093 78.0301 42.6809 76.303 42.1715 73.5397C40.8129 66.4586 36.907 60.2411 36.5674 53.8509C36.5674 50.224 35.039 49.3605 31.1331 49.3605C23.4911 49.3605 20.7739 61.1047 20.7739 60.5865C20.7739 61.6228 21.7929 62.659 21.7929 64.0407C21.7929 77.6847 18.9059 86.4928 18.9059 96.6826C18.9059 97.8916 20.4343 99.1006 20.4343 99.7914C20.4343 99.9641 16.868 103.418 16.868 105.836C16.868 106.7 17.3775 107.736 17.887 108.6C16.5284 110.499 15.5095 114.126 15.5095 116.544C15.5095 118.962 16.3586 121.38 16.3586 123.971C16.3586 125.352 15.8491 126.734 15.8491 128.116C15.8491 129.325 16.1888 130.706 16.1888 132.088C16.1888 133.642 15.6793 135.369 15.6793 136.924C15.6793 137.269 15.8491 137.615 15.8491 137.96C15.3396 138.996 15 140.033 15 141.069C15 147.632 17.7171 156.44 17.7171 164.557C17.7171 166.284 17.887 168.011 18.7361 168.875C20.7739 170.257 20.4343 177.51 24.8497 177.51C27.5668 177.51 28.4159 172.674 30.9632 171.811C31.1331 170.257 32.4916 168.702 32.4916 166.975C32.4916 166.284 31.9822 165.421 31.9822 164.73C31.9822 163.694 33.3407 163.694 33.3407 161.967C33.3407 161.621 31.9822 160.412 31.9822 159.549C31.9822 159.03 32.152 158.512 32.4916 157.994C32.3218 157.131 31.6425 156.267 31.6425 155.576C31.6425 154.885 32.6615 154.195 32.6615 153.504C32.6615 152.468 31.6425 152.295 31.3029 151.431L31.6425 151.777L31.4727 151.604C32.152 150.568 32.8313 149.531 32.8313 148.323C32.8313 147.459 31.9822 146.423 31.9822 145.214C31.9822 144.35 32.8313 143.314 32.8313 142.45C32.8313 137.787 28.4159 137.615 28.4159 134.851C28.4159 130.879 32.4916 133.124 32.4916 127.079C32.4916 125.18 32.6615 123.107 32.6615 121.207C32.6615 119.826 32.4916 118.271 32.4916 116.89C32.4916 111.536 33.0011 104.8 36.0579 101.691C36.907 102.727 37.5863 103.764 37.5863 105.145C37.5863 105.663 37.4165 106.182 37.4165 106.7C37.4165 110.672 45.0584 119.653 48.1152 120.862C49.4738 121.725 51.0022 122.071 52.7004 122.071C64.4181 122.071 65.6069 111.017 69.8524 97.3735C69.6826 97.0281 69.6826 96.6826 69.6826 96.3372C69.6826 95.6464 71.7204 83.0387 74.4376 81.657C76.8151 80.6207 76.1358 76.4757 76.4754 73.8851C78.0038 71.8126 77.6642 69.0493 78.6831 66.6313C79.8719 65.7678 81.9097 65.7678 82.7588 64.0407C83.0985 63.1772 83.4381 61.7955 84.7967 61.7955C87.6837 61.7955 89.7215 76.6484 89.8914 78.0301C90.5706 85.1112 90.4008 92.1922 91.4197 99.2733C92.099 104.8 92.9481 111.19 92.9481 116.89C92.9481 118.099 92.6085 119.307 92.6085 120.516C92.6085 125.007 94.3067 128.979 94.3067 133.815C94.3067 138.478 97.5333 139.687 97.5333 140.033C97.5333 142.969 95.6653 145.732 95.6653 146.941C95.6653 153.331 97.873 156.613 97.873 158.167C97.873 160.758 95.4955 163.175 95.4955 167.32C95.4955 168.184 95.8351 169.048 95.8351 169.911C95.8351 171.465 94.3067 172.847 94.3067 174.056C94.3067 177.51 96.5144 180.792 96.5144 184.419C96.5144 185.109 96.5144 185.8 96.3446 186.491C96.6842 187.527 97.5333 190.809 97.5333 191.672V191.5C97.3635 191.5 97.3635 191.672 97.3635 191.672C98.0428 193.745 100.76 196.508 102.458 196.508C106.194 196.508 105.855 189.945 108.911 188.391C109.251 188.218 109.421 187.873 109.421 187.527C109.421 183.555 109.251 179.756 109.081 175.438ZM104.156 70.7763C103.647 70.6036 103.817 70.0855 103.647 69.3947C103.987 69.7401 104.326 69.9128 104.326 70.2582C104.326 70.4309 104.156 70.6036 104.156 70.7763ZM103.647 107.391C103.987 108.427 104.156 108.772 104.156 109.118C104.156 109.981 103.987 110.845 103.987 112.226C103.477 111.363 103.307 110.672 103.307 109.981C103.307 109.118 103.477 108.427 103.647 107.391ZM18.2266 117.408C18.2266 117.062 18.7361 116.544 19.0757 116.544C19.4154 116.544 19.755 116.89 19.755 117.408C19.755 117.58 19.2455 118.099 19.0757 118.099C18.7361 118.099 18.3964 117.753 18.2266 117.408ZM19.9248 134.506C19.9248 134.506 19.9248 134.679 19.755 134.679C19.755 134.679 19.5852 134.506 19.4154 134.333C19.4154 133.815 19.9248 133.47 20.6041 133.47C20.6041 133.47 20.7739 133.815 20.7739 133.988C20.6041 134.16 20.2645 134.506 19.9248 134.506ZM20.4343 130.188C20.0946 130.188 19.2455 129.67 19.2455 129.325C19.2455 128.806 20.2645 127.425 20.7739 127.425C21.2834 127.943 21.4532 127.943 21.4532 128.634C21.4532 129.497 20.9438 130.188 20.4343 130.188ZM23.3213 107.391C23.3213 107.045 22.9816 106.354 22.9816 105.836C22.9816 105.663 23.3213 105.491 23.3213 105.318C23.4911 105.491 23.6609 105.491 23.6609 105.663C23.6609 106.182 23.4911 106.7 23.3213 107.391ZM24.51 123.798H24.6798H24.51ZM25.5289 123.452C25.5289 123.452 25.5289 123.452 25.3591 123.452C25.5289 123.28 25.6988 123.107 25.6988 122.934C25.8686 123.107 25.8686 123.107 25.8686 123.28C25.8686 123.452 25.8686 123.452 25.5289 123.452ZM26.0384 113.954C25.8686 113.608 25.6988 113.263 25.6988 112.917C25.6988 112.399 25.6988 111.881 25.8686 110.845C26.0384 112.054 26.2082 112.745 26.2082 113.263C26.2082 113.608 26.0384 113.781 26.0384 113.954ZM30.9632 105.491C30.9632 105.836 31.1331 106.009 31.1331 106.182C31.1331 106.182 30.9632 106.354 30.7934 106.527C30.7934 106.354 30.6236 106.182 30.6236 106.009C30.6236 105.836 30.7934 105.663 30.9632 105.491ZM28.7556 132.433C28.7556 132.261 28.7556 131.915 28.7556 131.742C28.7556 131.915 28.9254 132.088 28.9254 132.088C28.9254 132.261 28.9254 132.433 28.7556 132.433ZM28.2461 124.834C28.2461 124.143 27.9064 123.452 27.9064 122.934C28.0763 121.553 28.0763 120.344 28.0763 118.962C28.0763 116.199 27.9064 113.435 27.9064 110.499C27.9064 108.772 27.9064 107.391 28.2461 105.836C28.9254 106.009 29.0952 107.218 29.0952 108.427C29.0952 109.118 29.0952 109.809 29.0952 110.327C29.0952 113.608 30.9632 112.399 30.9632 115.508L30.7934 115.681C30.9632 116.026 31.3029 116.371 31.3029 116.544C31.3029 118.789 29.6047 123.107 28.2461 124.834ZM96.3446 115.335C96.0049 115.335 96.0049 115.162 96.0049 114.99C96.0049 114.817 96.0049 114.644 96.0049 114.472C96.3446 114.472 96.3446 115.162 96.3446 115.335ZM101.1 84.4203C101.439 84.593 101.439 84.9385 101.439 85.2839C101.439 85.6293 101.439 85.9747 101.1 85.9747C100.93 85.6293 100.76 85.2839 100.76 84.9385C100.76 84.7657 100.93 84.593 101.1 84.4203ZM100.25 111.536C101.439 111.536 101.439 113.954 101.439 114.99C101.439 115.335 100.93 116.026 100.93 116.026C100.59 115.853 100.42 115.853 100.42 115.508C100.42 114.644 100.59 113.781 100.59 113.435C100.25 112.745 100.081 112.399 99.9108 111.881L100.25 111.536ZM99.741 125.87C99.9108 125.698 100.25 125.525 100.59 125.525C101.439 125.525 101.779 126.734 101.949 127.597C101.609 128.461 101.269 130.879 100.59 130.879C100.25 130.879 99.9108 130.706 99.9108 130.361C99.9108 129.843 100.42 129.325 100.42 128.634C100.42 127.943 100.081 127.425 99.4014 126.734C99.4014 126.734 99.4014 126.043 99.741 125.87ZM100.081 135.542C100.081 135.369 100.76 135.369 100.76 135.369C101.269 135.369 101.439 135.715 101.439 136.578C101.439 136.924 101.269 137.269 101.1 137.615C100.59 137.442 99.741 137.269 99.741 136.406C99.741 136.06 99.9108 135.715 100.081 135.542ZM102.798 156.958C102.798 158.34 102.968 161.448 101.949 161.967C101.269 161.448 100.081 156.613 100.081 154.885C100.081 153.331 100.25 150.395 100.93 150.395C102.119 150.395 102.968 151.431 102.968 152.468C102.968 153.849 102.798 155.404 102.628 156.785C102.798 156.785 102.798 156.958 102.798 156.958ZM135.452 120.516C135.452 122.934 133.245 124.316 133.245 126.734C133.245 127.425 133.415 128.288 133.415 128.979C133.415 137.787 129.339 149.531 121.187 151.777C119.319 152.122 114.564 153.504 114.564 156.785C114.564 160.93 123.735 161.448 124.244 165.421C124.414 166.284 124.754 167.32 124.754 168.357C124.754 170.429 124.414 172.847 124.244 174.92C125.603 175.61 126.452 175.956 126.452 177.683C125.773 180.964 126.622 184.073 124.924 187.182L124.754 187.009C124.924 187.527 125.263 188.218 125.263 188.736C124.584 191.672 125.433 194.608 124.244 197.544C123.905 198.063 123.905 198.753 123.905 199.444C123.905 200.999 124.754 202.38 124.754 203.935C124.754 206.871 123.565 209.807 123.565 212.916C123.565 214.297 123.735 215.506 123.905 216.888C123.905 218.442 121.867 218.788 121.867 219.478C121.867 219.997 122.546 220.687 122.546 221.206C122.546 221.378 122.376 221.724 122.037 221.896C123.225 222.933 123.735 223.969 123.735 225.351C123.735 228.287 121.527 229.668 121.527 232.259C121.527 233.986 122.546 235.713 122.546 237.44C122.546 239.858 121.527 242.794 121.527 245.212C121.527 245.903 121.867 246.421 121.867 247.112C121.867 247.457 121.357 247.975 121.357 248.321C121.357 249.012 122.886 249.184 122.886 249.875C123.056 251.602 123.056 253.329 123.056 255.056C122.546 255.747 122.376 256.611 122.376 257.302C122.376 257.993 122.546 258.683 122.546 259.374C122.546 260.238 122.206 261.101 122.206 261.965C122.206 267.319 124.754 280.272 127.98 280.272C130.528 280.617 132.905 280.963 135.452 281.135C137.321 281.135 138.679 279.236 138.679 276.818C138.679 275.954 138.17 274.918 138.17 274.054C138.17 272.845 139.868 270.255 139.868 267.837C139.868 266.628 139.698 265.419 139.698 264.21C139.698 257.129 142.585 249.357 142.585 241.931C142.585 240.549 142.076 239.34 142.076 238.131C142.076 236.059 144.453 228.632 144.453 226.387C144.453 224.487 143.434 222.587 143.434 221.206C143.434 220.342 144.453 218.788 144.453 217.579C144.453 198.063 143.604 179.583 135.962 163.003C136.641 159.894 137.321 154.195 139.698 152.64C155.322 142.105 168.058 132.951 186.399 125.007C187.588 124.661 188.777 123.798 188.777 122.589C188.777 121.553 187.078 120.344 185.72 120.344C175.021 120.344 158.548 134.679 145.642 138.996C144.963 138.996 144.793 137.96 144.793 137.787C144.793 135.197 149.718 132.433 149.718 129.843C149.718 125.87 156.68 122.244 157.19 118.617C158.378 109.463 164.662 107.736 165.511 101.173C165.851 97.5462 171.455 95.4737 171.455 89.4289C171.455 83.9022 174.342 86.8383 174.342 82.1751C174.342 80.6207 176.04 80.2753 176.549 79.0664C176.889 77.3393 176.889 75.6122 177.059 74.4032C179.436 71.9853 183.852 62.659 183.852 62.3136C183.852 57.4778 186.908 53.5055 186.908 49.0151C189.286 45.2155 189.795 33.644 189.795 32.2623C189.795 25.6994 186.059 20 178.417 20C166.87 20 171.794 25.0086 164.152 32.7804C163.813 34.6802 163.983 36.4073 162.794 38.3071C162.284 38.998 158.888 44.3519 158.718 47.4607C158.718 48.8423 156.341 50.7421 156.341 53.3328C156.341 56.2688 155.152 59.3776 152.944 61.4501C151.076 63.1772 151.246 70.2582 148.699 74.0578C149.038 73.5397 143.094 89.4289 143.264 89.7743C143.264 92.0195 141.226 100.137 139.189 103.764C139.189 104.282 139.358 104.627 139.358 104.973C139.358 108.427 137.151 111.363 136.811 114.99C136.471 116.89 135.962 118.789 135.452 120.516ZM166.36 88.9108C165.681 88.3926 165.001 87.3564 164.152 87.3564C162.454 87.3564 158.548 98.237 157.359 99.9641C156.51 101.346 154.982 104.282 154.982 105.663C154.982 106.009 155.152 106.527 155.322 107.045C152.265 107.909 151.246 107.391 151.246 112.054C151.246 114.472 148.699 114.99 148.359 116.89C148.019 118.617 146.661 119.135 144.963 119.48C144.793 119.135 144.283 118.271 144.453 117.926C148.019 110.327 148.019 98.237 151.586 93.9193C152.095 93.0558 152.435 89.4289 153.454 87.1837C159.228 73.0216 163.813 60.4138 169.926 45.2155C171.285 41.5886 174.172 34.8529 177.568 34.3348C178.248 35.5438 179.776 36.9254 179.776 38.4798C179.776 39.6888 179.097 40.8977 179.097 42.1067C179.097 42.6248 179.266 42.9703 179.436 43.4884C179.436 45.3882 177.738 47.8061 177.738 50.224C177.738 54.369 174.851 58.6867 174.851 61.9682C174.851 62.4863 174.851 62.8317 175.021 63.3499C175.021 64.9042 170.266 71.8126 169.756 75.0941C169.247 78.3755 167.039 80.2753 166.87 83.3841C166.87 84.0749 167.039 84.7657 167.039 85.4566C167.039 86.6655 166.53 87.8745 166.19 89.0835C166.53 89.4289 166.7 89.7743 166.87 90.1197C166.87 90.1197 166.87 90.2924 166.7 90.4651C166.7 89.947 166.53 89.4289 166.36 88.9108ZM132.566 254.884C131.716 253.848 131.037 252.811 131.037 251.602C131.037 251.084 131.207 250.566 131.377 250.048C131.037 249.357 130.867 248.666 130.867 247.803C130.867 246.766 131.207 245.557 131.207 244.521C131.207 239.167 130.528 234.331 130.528 229.15C130.528 226.56 131.547 223.451 131.547 221.206C131.547 219.478 130.697 217.579 130.697 215.852C130.697 212.916 131.716 209.98 131.716 207.216C131.716 205.835 131.547 204.28 131.547 202.898C131.547 199.617 132.905 194.608 132.905 190.809C132.905 189.427 132.735 187.873 132.735 186.491C132.735 185.455 133.075 184.419 134.264 184.419C138.17 184.419 138 202.208 138 206.871C138 208.598 138.339 210.325 138.339 212.225C138.339 216.197 137.49 220.342 137.49 224.832C137.49 228.805 137.49 234.159 136.132 237.613C134.603 244.003 135.792 249.357 132.566 254.884ZM128.999 189.945C128.829 190.118 128.829 190.291 128.66 190.636C128.32 190.291 128.15 190.118 128.15 189.773C128.15 189.6 128.32 189.427 128.49 189.427C128.829 189.427 128.66 189.773 128.999 189.945ZM122.037 221.896C122.037 222.76 121.867 223.623 121.867 223.969C121.867 224.142 122.037 224.142 122.037 224.142C122.376 224.142 122.546 224.142 122.546 223.451C122.376 222.933 122.206 222.415 122.037 221.896ZM124.754 187.009C124.924 187.009 125.093 187.009 125.093 187.009C125.093 186.837 125.093 186.837 124.924 186.837C124.924 186.837 124.924 186.837 124.924 187.182L124.754 187.009ZM135.622 120.516H135.452C135.452 120.344 135.622 120.171 135.622 119.998C135.622 119.826 135.453 119.653 135.283 119.653C135.113 119.653 134.943 119.653 134.773 119.826C135.113 119.998 135.283 120.171 135.622 120.516ZM166.19 89.0835C166.36 89.4289 166.87 90.1197 166.87 90.1197C166.87 90.2924 166.87 90.2924 166.7 90.4651C166.7 89.947 166.53 89.4289 166.36 88.9108L166.19 89.0835ZM174.506 152.468C177.733 152.813 176.544 154.54 177.053 155.749C177.053 163.003 183.337 166.802 188.941 166.802C196.923 166.802 196.583 166.63 205.074 150.913C208.471 143.659 214.414 130.361 215.603 130.015C219.849 128.806 219.169 126.043 220.188 121.725C220.528 120.171 226.641 114.644 226.981 114.644C229.189 113.435 229.698 111.881 230.887 109.118C235.133 109.118 233.095 104.8 235.812 104.282C237.17 104.109 238.359 103.764 239.888 103.418C240.057 105.318 240.906 107.045 240.906 109.118C239.208 112.399 238.359 110.154 238.359 122.244C238.359 123.107 238.359 124.143 238.529 125.007C238.529 126.907 235.982 130.015 235.812 133.47C234.963 148.15 233.434 165.248 233.434 178.719C233.434 181.137 235.982 182.001 235.982 184.937C235.982 186.664 235.812 188.391 235.812 190.118C235.982 193.054 235.642 196.163 238.189 198.408C239.038 198.926 238.359 200.999 240.057 202.553C242.944 205.316 244.982 208.08 249.228 208.08C251.775 208.08 255.851 208.08 257.209 204.971C258.398 202.208 260.776 200.135 261.285 196.508C261.285 192.881 261.285 187.009 262.644 184.419C264.342 182.173 263.323 179.41 264.512 177.683C266.719 173.365 267.568 166.975 268.757 162.139C269.946 157.131 272.663 152.468 273.342 147.286C273.342 141.932 282.343 130.879 283.532 128.979C283.702 128.806 283.871 128.461 283.871 128.116C283.871 126.389 281.324 125.525 280.135 125.525C276.569 125.525 271.644 131.224 270.455 135.715C270.286 136.406 269.946 137.442 269.267 137.96C264.512 142.45 265.361 146.768 263.663 153.331C263.153 155.576 261.455 155.749 261.285 157.476C259.077 163.694 257.379 169.911 255.511 176.647C255.511 180.446 251.605 193.399 249.058 193.399C248.548 193.399 246.68 187.355 246.68 186.664C246.68 185.973 246.85 185.109 247.02 184.419C246.001 183.382 245.661 182.173 245.661 180.964C245.661 179.928 245.831 178.547 245.831 177.338C245.831 174.747 245.661 172.156 245.661 169.393C245.661 161.448 247.36 152.64 247.36 144.696C247.36 141.069 250.077 137.442 250.077 134.851C250.077 121.898 255.002 108.772 255.002 97.5462C255.002 89.4289 249.737 87.5291 246.001 87.5291C241.756 87.5291 240.057 90.4651 237.17 91.6741C231.906 93.7466 229.019 99.2733 224.604 101.518C220.698 96.3372 216.792 92.7103 208.98 92.7103C197.262 92.7103 195.224 101.346 190.469 108.254C184.526 116.89 183.337 122.589 181.299 127.943C179.261 133.297 177.053 138.996 177.053 144.696C176.884 146.25 175.865 146.941 174.506 147.286V152.468ZM220.698 104.973C220.698 105.491 220.867 105.836 220.867 106.182C220.867 107.909 218.32 111.363 218.32 111.363C214.584 114.299 212.546 118.789 208.98 121.725C207.112 123.28 205.753 125.352 204.565 127.252C202.187 131.224 193.356 143.314 192.677 143.314C191.828 143.314 191.658 142.796 191.658 142.105C194.205 128.979 202.187 112.226 212.886 104.973C214.075 104.282 215.094 103.936 216.452 103.936C217.641 103.936 219.509 104.455 220.698 104.973Z" fill="#FFFCFD"/>
</svg>
