<svg width="1017" height="500" viewBox="0 0 1017 500" fill="none" xmlns="http://www.w3.org/2000/svg">
<g clip-path="url(#clip0)">
<path d="M364.4 461L364.3 401.1L335 451.7H332.5L303.2 401.3V461H298.2V391H302.5L333.8 445.1L365.1 391H369.3L369.4 461H364.4ZM437.105 441.3H396.505L387.605 461H382.105L414.305 391H419.405L451.605 461H446.105L437.105 441.3ZM435.205 437L416.805 396.6L398.505 437H435.205ZM464.313 391H469.413V456.4H509.713V461H464.313V391ZM591.793 441.3H551.193L542.293 461H536.793L568.993 391H574.093L606.293 461H600.793L591.793 441.3ZM589.893 437L571.493 396.6L553.193 437H589.893ZM676.001 391V461H671.801L624.101 400.2V461H619.001V391H623.301L670.901 451.8V391H676.001ZM700.446 391H728.146C735.413 391 741.846 392.5 747.446 395.5C753.113 398.5 757.513 402.667 760.646 408C763.779 413.267 765.346 419.267 765.346 426C765.346 432.733 763.779 438.767 760.646 444.1C757.513 449.367 753.113 453.5 747.446 456.5C741.846 459.5 735.413 461 728.146 461H700.446V391ZM727.746 456.4C734.213 456.4 739.913 455.133 744.846 452.6C749.779 450 753.579 446.4 756.246 441.8C758.913 437.2 760.246 431.933 760.246 426C760.246 420.067 758.913 414.8 756.246 410.2C753.579 405.6 749.779 402.033 744.846 399.5C739.913 396.9 734.213 395.6 727.746 395.6H705.546V456.4H727.746ZM831.363 456.4V461H783.063V391H829.863V395.6H788.163V423.2H825.463V427.7H788.163V456.4H831.363ZM898.558 461L881.858 437.6C879.391 437.933 877.124 438.1 875.058 438.1H855.058V461H849.958V391H875.058C883.858 391 890.758 393.1 895.758 397.3C900.758 401.433 903.258 407.2 903.258 414.6C903.258 420.133 901.824 424.8 898.958 428.6C896.158 432.333 892.124 434.967 886.858 436.5L904.358 461H898.558ZM875.058 433.6C882.524 433.6 888.224 431.967 892.158 428.7C896.091 425.367 898.058 420.667 898.058 414.6C898.058 408.533 896.091 403.867 892.158 400.6C888.224 397.267 882.524 395.6 875.058 395.6H855.058V433.6H875.058ZM940.33 461.5C935.197 461.5 930.297 460.633 925.63 458.9C921.03 457.1 917.43 454.8 914.83 452L917.13 448.2C919.597 450.8 922.897 452.933 927.03 454.6C931.23 456.2 935.63 457 940.23 457C946.897 457 951.93 455.733 955.33 453.2C958.73 450.667 960.43 447.367 960.43 443.3C960.43 440.167 959.53 437.667 957.73 435.8C955.93 433.933 953.697 432.5 951.03 431.5C948.364 430.5 944.764 429.467 940.23 428.4C935.097 427.133 930.964 425.9 927.83 424.7C924.764 423.5 922.13 421.667 919.93 419.2C917.797 416.667 916.73 413.3 916.73 409.1C916.73 405.7 917.63 402.6 919.43 399.8C921.23 396.933 923.964 394.667 927.63 393C931.364 391.333 935.997 390.5 941.53 390.5C945.397 390.5 949.197 391.067 952.93 392.2C956.664 393.333 959.897 394.867 962.63 396.8L960.73 400.9C957.93 398.967 954.83 397.5 951.43 396.5C948.097 395.5 944.797 395 941.53 395C935.064 395 930.164 396.3 926.83 398.9C923.497 401.5 921.83 404.867 921.83 409C921.83 412.133 922.73 414.633 924.53 416.5C926.33 418.367 928.564 419.8 931.23 420.8C933.897 421.8 937.53 422.867 942.13 424C947.264 425.267 951.364 426.5 954.43 427.7C957.497 428.9 960.097 430.733 962.23 433.2C964.43 435.6 965.53 438.867 965.53 443C965.53 446.4 964.597 449.5 962.73 452.3C960.93 455.1 958.13 457.333 954.33 459C950.53 460.667 945.864 461.5 940.33 461.5ZM982.621 461.4C981.488 461.4 980.488 461 979.621 460.2C978.821 459.333 978.421 458.3 978.421 457.1C978.421 455.9 978.821 454.9 979.621 454.1C980.488 453.3 981.488 452.9 982.621 452.9C983.754 452.9 984.721 453.3 985.521 454.1C986.388 454.9 986.821 455.9 986.821 457.1C986.821 458.3 986.388 459.333 985.521 460.2C984.721 461 983.754 461.4 982.621 461.4Z" fill="#F8FAF9"/>
<path d="M179.712 298.152C178.56 299.304 177.984 300.744 177.12 300.744C176.544 300.744 175.68 299.592 175.104 299.592C174.528 299.592 173.664 301.032 173.088 301.032C172.512 301.032 172.224 300.456 172.224 298.728C172.224 297 172.8 295.272 172.8 293.544C172.8 292.392 171.936 291.24 171.936 290.088C171.936 286.92 180 280.584 180 279.144C180 277.128 180 274.824 180 271.656C177.12 276.264 175.104 278.568 172.224 278.568C172.224 273.384 172.8 269.064 172.8 264.456C172.8 261.576 171.936 258.984 171.936 256.104C171.936 252.648 172.512 248.616 172.512 245.16C172.512 243.144 169.92 239.112 169.92 234.504C169.92 228.744 169.632 224.136 169.632 217.512C169.632 213.768 169.632 209.16 170.496 209.16C171.072 209.16 171.648 209.448 172.512 209.448C173.376 209.448 174.816 204.264 174.816 202.824C174.816 198.504 174.24 195.048 174.24 191.016C174.24 187.848 175.68 185.832 175.68 183.528C175.68 179.208 173.376 175.752 173.376 170.856C173.376 162.792 177.12 157.896 177.12 152.136C177.12 148.392 176.256 144.36 176.256 140.904C176.256 138.024 177.12 135.144 177.12 131.976C177.12 125.928 174.816 125.64 170.784 121.32C171.936 119.304 174.24 116.136 174.24 114.408C174.24 111.816 169.344 110.088 169.344 106.632C169.344 105.768 169.632 104.328 169.632 103.176C169.632 99.144 165.888 91.08 160.992 91.08C160.128 91.368 158.976 91.656 157.824 91.944C158.112 91.944 158.112 91.944 158.112 92.232H157.824C158.112 91.368 158.688 90.216 158.688 89.352C157.536 86.472 154.368 86.184 151.776 86.184C150.624 86.184 149.472 86.76 148.32 86.76C146.304 86.76 144.576 86.184 142.848 85.608C138.816 89.64 133.632 91.08 131.04 96.552C128.736 101.736 123.552 103.464 120.96 108.648C106.848 127.944 97.632 149.544 85.536 169.128C85.248 169.704 84.672 169.992 84.096 169.992C80.928 169.992 78.624 166.536 78.624 160.776C78.624 154.152 71.712 146.376 70.56 140.328C69.696 135.72 67.104 132.84 66.24 128.232C63.936 116.424 57.312 106.056 56.736 95.4C56.736 89.352 54.144 87.912 47.52 87.912C34.56 87.912 29.952 107.496 29.952 106.632C29.952 108.36 31.68 110.088 31.68 112.392C31.68 135.144 26.784 149.832 26.784 166.824C26.784 168.84 29.376 170.856 29.376 172.008C29.376 172.296 23.328 178.056 23.328 182.088C23.328 183.528 24.192 185.256 25.056 186.696C22.752 189.864 21.024 195.912 21.024 199.944C21.024 203.976 22.464 208.008 22.464 212.328C22.464 214.632 21.6 216.936 21.6 219.24C21.6 221.256 22.176 223.56 22.176 225.864C22.176 228.456 21.312 231.336 21.312 233.928C21.312 234.504 21.6 235.08 21.6 235.656C20.736 237.384 20.16 239.112 20.16 240.84C20.16 251.784 24.768 266.472 24.768 280.008C24.768 282.888 25.056 285.768 26.496 287.208C29.952 289.512 29.376 301.608 36.864 301.608C41.472 301.608 42.912 293.544 47.232 292.104C47.52 289.512 49.824 286.92 49.824 284.04C49.824 282.888 48.96 281.448 48.96 280.296C48.96 278.568 51.264 278.568 51.264 275.688C51.264 275.112 48.96 273.096 48.96 271.656C48.96 270.792 49.248 269.928 49.824 269.064C49.536 267.624 48.384 266.184 48.384 265.032C48.384 263.88 50.112 262.728 50.112 261.576C50.112 259.848 48.384 259.56 47.808 258.12L48.384 258.696L48.096 258.408C49.248 256.68 50.4 254.952 50.4 252.936C50.4 251.496 48.96 249.768 48.96 247.752C48.96 246.312 50.4 244.584 50.4 243.144C50.4 235.368 42.912 235.08 42.912 230.472C42.912 223.848 49.824 227.592 49.824 217.512C49.824 214.344 50.112 210.888 50.112 207.72C50.112 205.416 49.824 202.824 49.824 200.52C49.824 191.592 50.688 180.36 55.872 175.176C57.312 176.904 58.464 178.632 58.464 180.936C58.464 181.8 58.176 182.664 58.176 183.528C58.176 190.152 71.136 205.128 76.32 207.144C78.624 208.584 81.216 209.16 84.096 209.16C103.968 209.16 105.984 190.728 113.184 167.976C112.896 167.4 112.896 166.824 112.896 166.248C112.896 165.096 116.352 144.072 120.96 141.768C124.992 140.04 123.84 133.128 124.416 128.808C127.008 125.352 126.432 120.744 128.16 116.712C130.176 115.272 133.632 115.272 135.072 112.392C135.648 110.952 136.224 108.648 138.528 108.648C143.424 108.648 146.88 133.416 147.168 135.72C148.32 147.528 148.032 159.336 149.76 171.144C150.912 180.36 152.352 191.016 152.352 200.52C152.352 202.536 151.776 204.552 151.776 206.568C151.776 214.056 154.656 220.68 154.656 228.744C154.656 236.52 160.128 238.536 160.128 239.112C160.128 244.008 156.96 248.616 156.96 250.632C156.96 261.288 160.704 266.76 160.704 269.352C160.704 273.672 156.672 277.704 156.672 284.616C156.672 286.056 157.248 287.496 157.248 288.936C157.248 291.528 154.656 293.832 154.656 295.848C154.656 301.608 158.4 307.08 158.4 313.128C158.4 314.28 158.4 315.432 158.112 316.584C158.688 318.312 160.128 323.784 160.128 325.224V324.936C159.84 324.936 159.84 325.224 159.84 325.224C160.992 328.68 165.6 333.288 168.48 333.288C174.816 333.288 174.24 322.344 179.424 319.752C180 319.464 180.288 318.888 180.288 318.312C180.288 311.688 180 305.352 179.712 298.152ZM171.36 123.624C170.496 123.336 170.784 122.472 170.496 121.32C171.072 121.896 171.648 122.184 171.648 122.76C171.648 123.048 171.36 123.336 171.36 123.624ZM170.496 184.68C171.072 186.408 171.36 186.984 171.36 187.56C171.36 189 171.072 190.44 171.072 192.744C170.208 191.304 169.92 190.152 169.92 189C169.92 187.56 170.208 186.408 170.496 184.68ZM25.632 201.384C25.632 200.808 26.496 199.944 27.072 199.944C27.648 199.944 28.224 200.52 28.224 201.384C28.224 201.672 27.36 202.536 27.072 202.536C26.496 202.536 25.92 201.96 25.632 201.384ZM28.512 229.896C28.512 229.896 28.512 230.184 28.224 230.184C28.224 230.184 27.936 229.896 27.648 229.608C27.648 228.744 28.512 228.168 29.664 228.168C29.664 228.168 29.952 228.744 29.952 229.032C29.664 229.32 29.088 229.896 28.512 229.896ZM29.376 222.696C28.8 222.696 27.36 221.832 27.36 221.256C27.36 220.392 29.088 218.088 29.952 218.088C30.816 218.952 31.104 218.952 31.104 220.104C31.104 221.544 30.24 222.696 29.376 222.696ZM34.272 184.68C34.272 184.104 33.696 182.952 33.696 182.088C33.696 181.8 34.272 181.512 34.272 181.224C34.56 181.512 34.848 181.512 34.848 181.8C34.848 182.664 34.56 183.528 34.272 184.68ZM36.288 212.04H36.576H36.288ZM38.016 211.464C38.016 211.464 38.016 211.464 37.728 211.464C38.016 211.176 38.304 210.888 38.304 210.6C38.592 210.888 38.592 210.888 38.592 211.176C38.592 211.464 38.592 211.464 38.016 211.464ZM38.88 195.624C38.592 195.048 38.304 194.472 38.304 193.896C38.304 193.032 38.304 192.168 38.592 190.44C38.88 192.456 39.168 193.608 39.168 194.472C39.168 195.048 38.88 195.336 38.88 195.624ZM47.232 181.512C47.232 182.088 47.52 182.376 47.52 182.664C47.52 182.664 47.232 182.952 46.944 183.24C46.944 182.952 46.656 182.664 46.656 182.376C46.656 182.088 46.944 181.8 47.232 181.512ZM43.488 226.44C43.488 226.152 43.488 225.576 43.488 225.288C43.488 225.576 43.776 225.864 43.776 225.864C43.776 226.152 43.776 226.44 43.488 226.44ZM42.624 213.768C42.624 212.616 42.048 211.464 42.048 210.6C42.336 208.296 42.336 206.28 42.336 203.976C42.336 199.368 42.048 194.76 42.048 189.864C42.048 186.984 42.048 184.68 42.624 182.088C43.776 182.376 44.064 184.392 44.064 186.408C44.064 187.56 44.064 188.712 44.064 189.576C44.064 195.048 47.232 193.032 47.232 198.216L46.944 198.504C47.232 199.08 47.808 199.656 47.808 199.944C47.808 203.688 44.928 210.888 42.624 213.768ZM158.112 197.928C157.536 197.928 157.536 197.64 157.536 197.352C157.536 197.064 157.536 196.776 157.536 196.488C158.112 196.488 158.112 197.64 158.112 197.928ZM166.176 146.376C166.752 146.664 166.752 147.24 166.752 147.816C166.752 148.392 166.752 148.968 166.176 148.968C165.888 148.392 165.6 147.816 165.6 147.24C165.6 146.952 165.888 146.664 166.176 146.376ZM164.736 191.592C166.752 191.592 166.752 195.624 166.752 197.352C166.752 197.928 165.888 199.08 165.888 199.08C165.312 198.792 165.024 198.792 165.024 198.216C165.024 196.776 165.312 195.336 165.312 194.76C164.736 193.608 164.448 193.032 164.16 192.168L164.736 191.592ZM163.872 215.496C164.16 215.208 164.736 214.92 165.312 214.92C166.752 214.92 167.328 216.936 167.616 218.376C167.04 219.816 166.464 223.848 165.312 223.848C164.736 223.848 164.16 223.56 164.16 222.984C164.16 222.12 165.024 221.256 165.024 220.104C165.024 218.952 164.448 218.088 163.296 216.936C163.296 216.936 163.296 215.784 163.872 215.496ZM164.448 231.624C164.448 231.336 165.6 231.336 165.6 231.336C166.464 231.336 166.752 231.912 166.752 233.352C166.752 233.928 166.464 234.504 166.176 235.08C165.312 234.792 163.872 234.504 163.872 233.064C163.872 232.488 164.16 231.912 164.448 231.624ZM169.056 267.336C169.056 269.64 169.344 274.824 167.616 275.688C166.464 274.824 164.448 266.76 164.448 263.88C164.448 261.288 164.736 256.392 165.888 256.392C167.904 256.392 169.344 258.12 169.344 259.848C169.344 262.152 169.056 264.744 168.768 267.048C169.056 267.048 169.056 267.336 169.056 267.336ZM224.435 206.568C224.435 210.6 220.691 212.904 220.691 216.936C220.691 218.088 220.979 219.528 220.979 220.68C220.979 235.368 214.067 254.952 200.243 258.696C197.075 259.272 189.011 261.576 189.011 267.048C189.011 273.96 204.563 274.824 205.427 281.448C205.715 282.888 206.291 284.616 206.291 286.344C206.291 289.8 205.715 293.832 205.427 297.288C207.731 298.44 209.171 299.016 209.171 301.896C208.019 307.368 209.459 312.552 206.579 317.736L206.291 317.448C206.579 318.312 207.155 319.464 207.155 320.328C206.003 325.224 207.443 330.12 205.427 335.016C204.851 335.88 204.851 337.032 204.851 338.184C204.851 340.776 206.291 343.08 206.291 345.672C206.291 350.568 204.275 355.464 204.275 360.648C204.275 362.952 204.563 364.968 204.851 367.272C204.851 369.864 201.395 370.44 201.395 371.592C201.395 372.456 202.547 373.608 202.547 374.472C202.547 374.76 202.259 375.336 201.683 375.624C203.699 377.352 204.563 379.08 204.563 381.384C204.563 386.28 200.819 388.584 200.819 392.904C200.819 395.784 202.547 398.664 202.547 401.544C202.547 405.576 200.819 410.472 200.819 414.504C200.819 415.656 201.395 416.52 201.395 417.672C201.395 418.248 200.531 419.112 200.531 419.688C200.531 420.84 203.123 421.128 203.123 422.28C203.411 425.16 203.411 428.04 203.411 430.92C202.547 432.072 202.259 433.512 202.259 434.664C202.259 435.816 202.547 436.968 202.547 438.12C202.547 439.56 201.971 441 201.971 442.44C201.971 451.368 206.291 472.968 211.763 472.968C216.083 473.544 220.115 474.12 224.435 474.408C227.603 474.408 229.907 471.24 229.907 467.208C229.907 465.768 229.043 464.04 229.043 462.6C229.043 460.584 231.923 456.264 231.923 452.232C231.923 450.216 231.635 448.2 231.635 446.184C231.635 434.376 236.531 421.416 236.531 409.032C236.531 406.728 235.667 404.712 235.667 402.696C235.667 399.24 239.699 386.856 239.699 383.112C239.699 379.944 237.971 376.776 237.971 374.472C237.971 373.032 239.699 370.44 239.699 368.424C239.699 335.88 238.259 305.064 225.299 277.416C226.451 272.232 227.603 262.728 231.635 260.136C258.131 242.568 279.731 227.304 310.835 214.056C312.851 213.48 314.867 212.04 314.867 210.024C314.867 208.296 311.987 206.28 309.683 206.28C291.539 206.28 263.603 230.184 241.715 237.384C240.563 237.384 240.275 235.656 240.275 235.368C240.275 231.048 248.627 226.44 248.627 222.12C248.627 215.496 260.435 209.448 261.299 203.4C263.315 188.136 273.971 185.256 275.411 174.312C275.987 168.264 285.491 164.808 285.491 154.728C285.491 145.512 290.387 150.408 290.387 142.632C290.387 140.04 293.267 139.464 294.131 137.448C294.707 134.568 294.707 131.688 294.995 129.672C299.027 125.64 306.515 110.088 306.515 109.512C306.515 101.448 311.699 94.824 311.699 87.336C315.731 81 316.595 61.704 316.595 59.4C316.595 48.456 310.259 38.952 297.299 38.952C277.715 38.952 286.067 47.304 273.107 60.264C272.531 63.432 272.819 66.312 270.803 69.48C269.939 70.632 264.179 79.56 263.891 84.744C263.891 87.048 259.859 90.216 259.859 94.536C259.859 99.432 257.843 104.616 254.099 108.072C250.931 110.952 251.219 122.76 246.899 129.096C247.475 128.232 237.395 154.728 237.683 155.304C237.683 159.048 234.227 172.584 230.771 178.632C230.771 179.496 231.059 180.072 231.059 180.648C231.059 186.408 227.315 191.304 226.739 197.352C226.163 200.52 225.299 203.688 224.435 206.568ZM276.851 153.864C275.699 153 274.547 151.272 273.107 151.272C270.227 151.272 263.603 169.416 261.587 172.296C260.147 174.6 257.555 179.496 257.555 181.8C257.555 182.376 257.843 183.24 258.131 184.104C252.947 185.544 251.219 184.68 251.219 192.456C251.219 196.488 246.899 197.352 246.323 200.52C245.747 203.4 243.443 204.264 240.563 204.84C240.275 204.264 239.411 202.824 239.699 202.248C245.747 189.576 245.747 169.416 251.795 162.216C252.659 160.776 253.235 154.728 254.963 150.984C264.755 127.368 272.531 106.344 282.899 81C285.203 74.952 290.099 63.72 295.859 62.856C297.011 64.872 299.603 67.176 299.603 69.768C299.603 71.784 298.451 73.8 298.451 75.816C298.451 76.68 298.739 77.256 299.027 78.12C299.027 81.288 296.147 85.32 296.147 89.352C296.147 96.264 291.251 103.464 291.251 108.936C291.251 109.8 291.251 110.376 291.539 111.24C291.539 113.832 283.475 125.352 282.611 130.824C281.747 136.296 278.003 139.464 277.715 144.648C277.715 145.8 278.003 146.952 278.003 148.104C278.003 150.12 277.139 152.136 276.563 154.152C277.139 154.728 277.427 155.304 277.715 155.88C277.715 155.88 277.715 156.168 277.427 156.456C277.427 155.592 277.139 154.728 276.851 153.864ZM219.539 430.632C218.099 428.904 216.947 427.176 216.947 425.16C216.947 424.296 217.235 423.432 217.523 422.568C216.947 421.416 216.659 420.264 216.659 418.824C216.659 417.096 217.235 415.08 217.235 413.352C217.235 404.424 216.083 396.36 216.083 387.72C216.083 383.4 217.811 378.216 217.811 374.472C217.811 371.592 216.371 368.424 216.371 365.544C216.371 360.648 218.099 355.752 218.099 351.144C218.099 348.84 217.811 346.248 217.811 343.944C217.811 338.472 220.115 330.12 220.115 323.784C220.115 321.48 219.827 318.888 219.827 316.584C219.827 314.856 220.403 313.128 222.419 313.128C229.043 313.128 228.755 342.792 228.755 350.568C228.755 353.448 229.331 356.328 229.331 359.496C229.331 366.12 227.891 373.032 227.891 380.52C227.891 387.144 227.891 396.072 225.587 401.832C222.995 412.488 225.011 421.416 219.539 430.632ZM213.491 322.344C213.203 322.632 213.203 322.92 212.915 323.496C212.339 322.92 212.051 322.632 212.051 322.056C212.051 321.768 212.339 321.48 212.627 321.48C213.203 321.48 212.915 322.056 213.491 322.344ZM201.683 375.624C201.683 377.064 201.395 378.504 201.395 379.08C201.395 379.368 201.683 379.368 201.683 379.368C202.259 379.368 202.547 379.368 202.547 378.216C202.259 377.352 201.971 376.488 201.683 375.624ZM206.291 317.448C206.579 317.448 206.867 317.448 206.867 317.448C206.867 317.16 206.867 317.16 206.579 317.16C206.579 317.16 206.579 317.16 206.579 317.736L206.291 317.448ZM224.723 206.568H224.435C224.435 206.28 224.723 205.992 224.723 205.704C224.723 205.416 224.435 205.128 224.147 205.128C223.859 205.128 223.571 205.128 223.283 205.416C223.859 205.704 224.147 205.992 224.723 206.568ZM276.563 154.152C276.851 154.728 277.715 155.88 277.715 155.88C277.715 156.168 277.715 156.168 277.427 156.456C277.427 155.592 277.139 154.728 276.851 153.864L276.563 154.152ZM290.666 259.848C296.138 260.424 294.122 263.304 294.986 265.32C294.986 277.416 305.642 283.752 315.146 283.752C328.682 283.752 328.106 283.464 342.506 257.256C348.266 245.16 358.346 222.984 360.362 222.408C367.562 220.392 366.41 215.784 368.138 208.584C368.714 205.992 379.082 196.776 379.658 196.776C383.402 194.76 384.266 192.168 386.282 187.56C393.482 187.56 390.026 180.36 394.634 179.496C396.938 179.208 398.954 178.632 401.546 178.056C401.834 181.224 403.274 184.104 403.274 187.56C400.394 193.032 398.954 189.288 398.954 209.448C398.954 210.888 398.954 212.616 399.242 214.056C399.242 217.224 394.922 222.408 394.634 228.168C393.194 252.648 390.602 281.16 390.602 303.624C390.602 307.656 394.922 309.096 394.922 313.992C394.922 316.872 394.634 319.752 394.634 322.632C394.922 327.528 394.346 332.712 398.666 336.456C400.106 337.32 398.954 340.776 401.834 343.368C406.73 347.976 410.186 352.584 417.386 352.584C421.706 352.584 428.618 352.584 430.922 347.4C432.938 342.792 436.97 339.336 437.834 333.288C437.834 327.24 437.834 317.448 440.138 313.128C443.018 309.384 441.29 304.776 443.306 301.896C447.05 294.696 448.49 284.04 450.506 275.976C452.522 267.624 457.13 259.848 458.282 251.208C458.282 242.28 473.546 223.848 475.562 220.68C475.85 220.392 476.138 219.816 476.138 219.24C476.138 216.36 471.818 214.92 469.802 214.92C463.754 214.92 455.402 224.424 453.386 231.912C453.098 233.064 452.522 234.792 451.37 235.656C443.306 243.144 444.746 250.344 441.866 261.288C441.002 265.032 438.122 265.32 437.834 268.2C434.09 278.568 431.21 288.936 428.042 300.168C428.042 306.504 421.418 328.104 417.098 328.104C416.234 328.104 413.066 318.024 413.066 316.872C413.066 315.72 413.354 314.28 413.642 313.128C411.914 311.4 411.338 309.384 411.338 307.368C411.338 305.64 411.626 303.336 411.626 301.32C411.626 297 411.338 292.68 411.338 288.072C411.338 274.824 414.218 260.136 414.218 246.888C414.218 240.84 418.826 234.792 418.826 230.472C418.826 208.872 427.178 186.984 427.178 168.264C427.178 154.728 418.25 151.56 411.914 151.56C404.714 151.56 401.834 156.456 396.938 158.472C388.01 161.928 383.114 171.144 375.626 174.888C369.002 166.248 362.378 160.2 349.13 160.2C329.258 160.2 325.802 174.6 317.738 186.12C307.658 200.52 305.642 210.024 302.186 218.952C298.73 227.88 294.986 237.384 294.986 246.888C294.698 249.48 292.97 250.632 290.666 251.208V259.848ZM369.002 180.648C369.002 181.512 369.29 182.088 369.29 182.664C369.29 185.544 364.97 191.304 364.97 191.304C358.634 196.2 355.178 203.688 349.13 208.584C345.962 211.176 343.658 214.632 341.642 217.8C337.61 224.424 322.634 244.584 321.482 244.584C320.042 244.584 319.754 243.72 319.754 242.568C324.074 220.68 337.61 192.744 355.754 180.648C357.77 179.496 359.498 178.92 361.802 178.92C363.818 178.92 366.986 179.784 369.002 180.648Z" fill="#F8FAF9"/>
</g>
<defs>
<clipPath id="clip0">
<rect width="1017" height="500" fill="white"/>
</clipPath>
</defs>
</svg>
