<svg width="862" height="555" viewBox="0 0 862 555" fill="none" xmlns="http://www.w3.org/2000/svg">
<path d="M23 553.572H165.033" stroke="#3F3D56" stroke-miterlimit="10"/>
<path d="M844.911 28.3667H247.513C238.347 28.3667 230.916 35.8014 230.916 44.9726V438.945C230.916 448.116 238.347 455.551 247.513 455.551H844.911C854.077 455.551 861.508 448.116 861.508 438.945V44.9726C861.508 35.8014 854.077 28.3667 844.911 28.3667Z" fill="#F2F2F2"/>
<path d="M825.659 1.40015H228.261C219.095 1.40015 211.664 8.83488 211.664 18.0061V411.978C211.664 421.15 219.095 428.584 228.261 428.584H825.659C834.826 428.584 842.256 421.15 842.256 411.978V18.0061C842.256 8.83488 834.826 1.40015 825.659 1.40015Z" stroke="#3F3D56" stroke-miterlimit="10"/>
<path d="M211.664 42.3552H842.256" stroke="#3F3D56" stroke-miterlimit="10"/>
<path opacity="0.3" d="M754.476 138.373H594.633C591.282 138.373 588.565 141.091 588.565 144.445V158.84C588.565 162.193 591.282 164.912 594.633 164.912H754.476C757.828 164.912 760.545 162.193 760.545 158.84V144.445C760.545 141.091 757.828 138.373 754.476 138.373Z" fill="#B94559"/>
<path opacity="0.3" d="M787.417 211.996H561.692C558.341 211.996 555.624 214.714 555.624 218.068V227.326C555.624 230.679 558.341 233.398 561.692 233.398H787.417C790.769 233.398 793.486 230.679 793.486 227.326V218.068C793.486 214.714 790.769 211.996 787.417 211.996Z" fill="#B94559"/>
<path opacity="0.3" d="M787.417 270.209H561.692C558.341 270.209 555.624 272.928 555.624 276.281V285.54C555.624 288.893 558.341 291.611 561.692 291.611H787.417C790.769 291.611 793.486 288.893 793.486 285.54V276.281C793.486 272.928 790.769 270.209 787.417 270.209Z" fill="#B94559"/>
<path opacity="0.3" d="M787.417 328.423H561.692C558.341 328.423 555.624 331.141 555.624 334.495V343.753C555.624 347.106 558.341 349.825 561.692 349.825H787.417C790.769 349.825 793.486 347.106 793.486 343.753V334.495C793.486 331.141 790.769 328.423 787.417 328.423Z" fill="#B94559"/>
<path d="M763.032 129.812H603.19C599.838 129.812 597.121 132.531 597.121 135.884V150.279C597.121 153.632 599.838 156.351 603.19 156.351H763.032C766.384 156.351 769.101 153.632 769.101 150.279V135.884C769.101 132.531 766.384 129.812 763.032 129.812Z" stroke="#3F3D56" stroke-miterlimit="10"/>
<path d="M795.974 203.435H570.248C566.897 203.435 564.18 206.153 564.18 209.507V218.765C564.18 222.119 566.897 224.837 570.248 224.837H795.974C799.325 224.837 802.042 222.119 802.042 218.765V209.507C802.042 206.153 799.325 203.435 795.974 203.435Z" stroke="#3F3D56" stroke-miterlimit="10"/>
<path d="M795.974 261.649H570.248C566.897 261.649 564.18 264.367 564.18 267.72V276.979C564.18 280.332 566.897 283.051 570.248 283.051H795.974C799.325 283.051 802.042 280.332 802.042 276.979V267.72C802.042 264.367 799.325 261.649 795.974 261.649Z" stroke="#3F3D56" stroke-miterlimit="10"/>
<path d="M795.974 319.862H570.248C566.897 319.862 564.18 322.58 564.18 325.934V335.192C564.18 338.546 566.897 341.264 570.248 341.264H795.974C799.325 341.264 802.042 338.546 802.042 335.192V325.934C802.042 322.58 799.325 319.862 795.974 319.862Z" stroke="#3F3D56" stroke-miterlimit="10"/>
<path opacity="0.3" d="M259.579 39.9237C266.667 39.9237 272.413 34.1745 272.413 27.0825C272.413 19.9905 266.667 14.2413 259.579 14.2413C252.491 14.2413 246.745 19.9905 246.745 27.0825C246.745 34.1745 252.491 39.9237 259.579 39.9237Z" fill="#B94559"/>
<path opacity="0.3" d="M295.515 39.9237C302.603 39.9237 308.349 34.1745 308.349 27.0825C308.349 19.9905 302.603 14.2413 295.515 14.2413C288.427 14.2413 282.681 19.9905 282.681 27.0825C282.681 34.1745 288.427 39.9237 295.515 39.9237Z" fill="#B94559"/>
<path opacity="0.3" d="M331.451 39.9237C338.539 39.9237 344.285 34.1745 344.285 27.0825C344.285 19.9905 338.539 14.2413 331.451 14.2413C324.363 14.2413 318.617 19.9905 318.617 27.0825C318.617 34.1745 324.363 39.9237 331.451 39.9237Z" fill="#B94559"/>
<path d="M264.713 34.7873C271.801 34.7873 277.547 29.0381 277.547 21.9461C277.547 14.8541 271.801 9.10486 264.713 9.10486C257.625 9.10486 251.878 14.8541 251.878 21.9461C251.878 29.0381 257.625 34.7873 264.713 34.7873Z" stroke="#3F3D56" stroke-miterlimit="10"/>
<path d="M300.649 34.7873C307.737 34.7873 313.483 29.0381 313.483 21.9461C313.483 14.8541 307.737 9.10486 300.649 9.10486C293.561 9.10486 287.814 14.8541 287.814 21.9461C287.814 29.0381 293.561 34.7873 300.649 34.7873Z" stroke="#3F3D56" stroke-miterlimit="10"/>
<path d="M336.585 34.7873C343.673 34.7873 349.419 29.0381 349.419 21.9461C349.419 14.8541 343.673 9.10486 336.585 9.10486C329.497 9.10486 323.75 14.8541 323.75 21.9461C323.75 29.0381 329.497 34.7873 336.585 34.7873Z" stroke="#3F3D56" stroke-miterlimit="10"/>
<path d="M469.401 83.5839H272.218C260.985 83.5839 251.878 92.6951 251.878 103.934V367.142C251.878 378.381 260.985 387.492 272.218 387.492H469.401C480.634 387.492 489.741 378.381 489.741 367.142V103.934C489.741 92.6951 480.634 83.5839 469.401 83.5839Z" stroke="#3F3D56" stroke-miterlimit="10"/>
<path d="M38.9438 178.938L44.909 238H94L91.6404 148.225C91.6404 128.902 78.2988 112 59 112C39.7011 112 27.1461 128.114 27.1461 147.438L24 238H32.004L38.9438 178.938Z" fill="#2F2E41"/>
<path d="M21.5789 235L16.8421 275.765L4.21053 334.562C4.21053 334.562 -5.26316 362 4.21053 362C13.6842 362 13.6842 334.562 13.6842 334.562L26.3158 300.068L35 236.568L21.5789 235Z" fill="#EEBCC3"/>
<path d="M128.287 479L132.825 512.96L137.981 527.135C137.981 527.135 161.355 547.135 140.016 551.126C118.677 555.118 123.101 544.14 123.101 544.14L115.678 541.662C115.035 541.449 114.469 541.044 114.051 540.5C113.633 539.956 113.383 539.296 113.331 538.606C112.994 534.051 112.412 523.923 113.368 518.09C114.628 510.4 109 481.633 109 481.633L128.287 479Z" fill="#2F2E41"/>
<path d="M33.6062 481.366L37.518 515.281L35.9532 530.267C35.9532 530.267 17.9589 555.506 39.865 553.929C61.7711 552.352 54.7299 542.887 54.7299 542.887L61.3983 538.609C61.976 538.239 62.4317 537.705 62.7074 537.073C62.9832 536.442 63.0665 535.742 62.9468 535.063C62.1559 530.584 60.2326 520.665 57.8593 515.281C54.7299 508.183 53.1652 479 53.1652 479L33.6062 481.366Z" fill="#2F2E41"/>
<path d="M19.7088 305.342C19.7088 305.342 14.9622 331.689 21.291 370.332C27.6197 408.975 29.2019 425.662 29.2019 425.662C29.2019 425.662 24.4553 431.81 27.6197 435.323C30.7841 438.836 27.6197 445.862 27.6197 445.862L34.5 517L57.6814 511.73L56.0992 446.74C56.0992 446.74 59.2636 439.714 57.6814 437.958C56.0992 436.201 59.2636 425.662 59.2636 425.662L63.2191 342.228L87.7431 433.566C87.7431 433.566 85.3698 437.079 87.7431 439.714C90.1164 442.349 94.863 455.523 94.863 455.523L110.685 517L136 511.73L121.76 441.471C121.76 441.471 123.342 437.079 120.969 434.445C120.277 433.639 119.771 432.658 119.496 431.587C119.22 430.516 119.183 429.387 119.387 428.297C119.387 428.297 121.76 425.662 118.596 422.149C115.431 418.636 113.849 404.584 113.849 404.584C113.849 404.584 111.476 310.611 103.565 305.342C95.6541 300.073 19.7088 305.342 19.7088 305.342Z" fill="#2F2E41"/>
<path d="M59 167C71.1503 167 81 157.15 81 145C81 132.85 71.1503 123 59 123C46.8497 123 37 132.85 37 145C37 157.15 46.8497 167 59 167Z" fill="#EEBCC3"/>
<path d="M48.7778 160.57C48.7778 160.57 55 181.759 48.7778 188.038C42.5556 194.316 41 196.671 41 196.671L58.8889 221L90 182.544C90 182.544 68.2222 176.266 73.6667 159L48.7778 160.57Z" fill="#EEBCC3"/>
<path d="M58.3001 212.513L86.3232 181.386C86.3232 181.386 102.287 179.416 107 184.38L102.287 284.5C102.287 284.5 105.429 286.982 103.858 292.774C102.946 296.575 102.946 300.556 103.858 304.358C103.858 304.358 108.571 310.15 106.215 312.632C103.858 315.115 19.0259 313.46 19.0259 313.46C19.0259 313.46 15.884 307.668 20.5969 304.358C25.3098 301.048 22.9534 291.946 22.9534 291.946C22.9534 291.946 21.3824 289.464 25.3098 285.327C29.2372 281.19 32.3791 247.265 32.3791 247.265L22.1679 205.894C22.1679 205.894 32.4468 193.672 44.1952 192.75L58.3001 212.513Z" fill="#6D0230"/>
<path d="M97.5714 184H107.786C107.786 184 110.143 184 112.5 191.917C114.857 199.833 118 219.625 118 219.625L96 222L97.5714 184Z" fill="#6D0230"/>
<path d="M115.919 216L117.496 260.223L119.073 326.556C119.073 326.556 129.321 354.195 116.708 354.985C104.095 355.775 107.248 324.977 107.248 324.977L97 218.369L115.919 216Z" fill="#EEBCC3"/>
<path d="M25.6129 204.795L22.5161 204C22.5161 204 15.5484 218.318 14.7742 231.045L14 235.818L38 239L25.6129 204.795Z" fill="#6D0230"/>
<path d="M40.5082 141C54.7383 133.2 60.5838 133.531 78.2787 141L83 129.305C82.9976 127.103 82.1361 124.992 80.6046 123.435C79.0731 121.878 76.9966 121.002 74.8307 121H43.1694C41.0035 121.002 38.9269 121.878 37.3954 123.435C35.8639 124.992 35.0024 127.103 35 129.305L40.5082 141Z" fill="#2F2E41"/>
<rect x="265" y="93" width="240" height="306" rx="20" fill="#B94559"/>
<path d="M370.961 155.341L375.091 196.231H409.077L407.443 134.079C407.443 120.701 398.207 109 384.846 109C371.485 109 362.793 120.156 362.793 133.534L360.615 196.231H366.157L370.961 155.341Z" fill="white"/>
<path d="M358.939 194.154L355.66 222.376L346.915 263.081C346.915 263.081 340.356 282.077 346.915 282.077C353.474 282.077 353.474 263.081 353.474 263.081L362.219 239.201L368.231 195.239L358.939 194.154Z" fill="white"/>
<path d="M357.645 242.685C357.645 242.685 354.358 259.051 358.74 283.053C363.121 307.056 364.217 317.421 364.217 317.421C364.217 317.421 360.931 321.239 363.121 323.421C365.312 325.603 363.121 329.967 363.121 329.967L366.955 367.062L383.933 364.335L382.838 330.513C382.838 330.513 385.029 326.149 383.933 325.058C382.838 323.967 385.029 317.421 385.029 317.421L387.767 265.597L404.745 322.33C404.745 322.33 403.102 324.512 404.745 326.149C406.388 327.785 409.674 335.968 409.674 335.968L420.628 374.154L438.154 370.881L428.296 327.24C428.296 327.24 429.391 324.512 427.748 322.876C427.269 322.375 426.919 321.766 426.728 321.101C426.537 320.436 426.511 319.734 426.653 319.057C426.653 319.057 428.296 317.421 426.105 315.239C423.914 313.056 422.819 304.328 422.819 304.328C422.819 304.328 421.176 245.958 415.699 242.685C410.222 239.412 357.645 242.685 357.645 242.685Z" fill="white"/>
<path d="M369.343 364.715L372.051 388.195L370.968 398.57C370.968 398.57 358.51 416.043 373.676 414.951C388.842 413.859 383.967 407.306 383.967 407.306L388.583 404.345C388.983 404.089 389.299 403.719 389.49 403.282C389.681 402.845 389.738 402.36 389.655 401.89C389.108 398.789 387.776 391.922 386.133 388.195C383.967 383.28 382.884 363.077 382.884 363.077L369.343 364.715Z" fill="white"/>
<path d="M434.891 363.077L438.033 386.588L441.602 396.401C441.602 396.401 457.785 410.247 443.011 413.01C428.238 415.774 431.301 408.174 431.301 408.174L426.162 406.459C425.717 406.311 425.325 406.031 425.035 405.654C424.746 405.277 424.573 404.821 424.537 404.343C424.304 401.189 423.901 394.177 424.562 390.139C425.435 384.815 421.538 364.899 421.538 364.899L434.891 363.077Z" fill="white"/>
<path d="M384.846 147.077C393.258 147.077 400.077 140.258 400.077 131.846C400.077 123.434 393.258 116.615 384.846 116.615C376.434 116.615 369.615 123.434 369.615 131.846C369.615 140.258 376.434 147.077 384.846 147.077Z" fill="white"/>
<path d="M377.769 142.625C377.769 142.625 382.077 157.295 377.769 161.642C373.462 165.988 372.385 167.618 372.385 167.618L384.769 184.462L406.308 157.838C406.308 157.838 391.231 153.492 395 141.538L377.769 142.625Z" fill="white"/>
<path d="M384.362 177.438L403.762 157.022C403.762 157.022 414.814 155.73 418.077 158.986L414.814 224.652C414.814 224.652 416.989 226.28 415.902 230.078C415.27 232.572 415.27 235.183 415.902 237.676C415.902 237.676 419.165 241.475 417.533 243.103C415.902 244.731 357.172 243.646 357.172 243.646C357.172 243.646 354.997 239.847 358.259 237.676C361.522 235.505 359.891 229.536 359.891 229.536C359.891 229.536 358.803 227.908 361.522 225.194C364.241 222.481 366.416 200.231 366.416 200.231L359.347 173.096C359.347 173.096 366.463 165.08 374.597 164.476L384.362 177.438Z" fill="white"/>
<path d="M411.549 158.846H418.621C418.621 158.846 420.253 158.846 421.885 164.327C423.516 169.808 425.692 183.51 425.692 183.51L410.462 185.154L411.549 158.846Z" fill="white"/>
<path d="M424.252 181L425.343 211.616L426.435 257.539C426.435 257.539 433.53 276.674 424.798 277.22C416.066 277.767 418.249 256.446 418.249 256.446L411.154 182.64L424.252 181Z" fill="white"/>
<path d="M361.732 173.243L359.588 172.692C359.588 172.692 354.764 182.605 354.228 191.416L353.692 194.72L370.308 196.923L361.732 173.243Z" fill="white"/>
<path d="M372.044 129.077C381.896 123.677 385.943 123.906 398.193 129.077L401.461 120.981C401.46 119.456 400.863 117.995 399.803 116.917C398.743 115.839 397.305 115.232 395.806 115.231H373.886C372.387 115.232 370.949 115.839 369.889 116.917C368.829 117.995 368.232 119.456 368.231 120.981L372.044 129.077Z" fill="white"/>
</svg>
