<?xml version="1.0" encoding="UTF-8" standalone="no"?>
<svg
   xmlns:dc="http://purl.org/dc/elements/1.1/"
   xmlns:cc="http://creativecommons.org/ns#"
   xmlns:rdf="http://www.w3.org/1999/02/22-rdf-syntax-ns#"
   xmlns:svg="http://www.w3.org/2000/svg"
   xmlns="http://www.w3.org/2000/svg"
   xmlns:xlink="http://www.w3.org/1999/xlink"
   xmlns:sodipodi="http://sodipodi.sourceforge.net/DTD/sodipodi-0.dtd"
   xmlns:inkscape="http://www.inkscape.org/namespaces/inkscape"
   id="Layer_1"
   data-name="Layer 1"
   viewBox="0 0 325.62 276.12"
   width="406"
   height="306"
   class="illustration styles_illustrationTablet__1DWOa"
   version="1.1"
   sodipodi:docname="LinkedIn_Monochromatic.svg"
   inkscape:version="0.92.4 (5da689c313, 2019-01-14)">
  <metadata
     id="metadata113">
    <rdf:RDF>
      <cc:Work
         rdf:about="">
        <dc:format>image/svg+xml</dc:format>
        <dc:type
           rdf:resource="http://purl.org/dc/dcmitype/StillImage" />
      </cc:Work>
    </rdf:RDF>
  </metadata>
  <sodipodi:namedview
     pagecolor="#ffffff"
     bordercolor="#666666"
     borderopacity="1"
     objecttolerance="10"
     gridtolerance="10"
     guidetolerance="10"
     inkscape:pageopacity="0"
     inkscape:pageshadow="2"
     inkscape:window-width="3360"
     inkscape:window-height="1890"
     id="namedview111"
     showgrid="false"
     inkscape:zoom="3.0849673"
     inkscape:cx="64.99142"
     inkscape:cy="127.00615"
     inkscape:window-x="0"
     inkscape:window-y="733"
     inkscape:window-maximized="0"
     inkscape:current-layer="Layer_1" />
  <defs
     id="defs24">
    <linearGradient
       id="linear-gradient"
       x1="1177.01"
       y1="218.6"
       x2="1185.2"
       y2="328.99"
       gradientTransform="matrix(-1, 0, 0, 1, 1336.36, -43.14)"
       gradientUnits="userSpaceOnUse">
      <stop
         offset="0.01"
         id="stop2" />
      <stop
         offset="0.08"
         stop-opacity="0.69"
         id="stop4" />
      <stop
         offset="0.21"
         stop-opacity="0.32"
         id="stop6" />
      <stop
         offset="1"
         stop-opacity="0"
         id="stop8" />
    </linearGradient>
    <linearGradient
       id="linear-gradient-2"
       x1="416.73"
       y1="31.99"
       x2="1.15"
       y2="238.93"
       gradientUnits="userSpaceOnUse">
      <stop
         offset="0.01"
         id="stop11" />
      <stop
         offset="0.13"
         stop-opacity="0.69"
         id="stop13" />
      <stop
         offset="0.25"
         stop-opacity="0.32"
         id="stop15" />
      <stop
         offset="1"
         stop-opacity="0"
         id="stop17" />
    </linearGradient>
    <linearGradient
       id="linear-gradient-3"
       x1="203.1"
       y1="63.03"
       x2="194.66"
       y2="230.84"
       xlink:href="#linear-gradient-2" />
    <linearGradient
       id="linear-gradient-4"
       x1="213.66"
       y1="199"
       x2="259.08"
       y2="39.07"
       xlink:href="#linear-gradient-2" />
    <linearGradient
       id="linear-gradient-5"
       x1="257.74"
       y1="198.43"
       x2="398.1"
       y2="229.44"
       gradientTransform="matrix(-1, 0, 0, 1, 603.56, 0)"
       xlink:href="#linear-gradient-2" />
    <linearGradient
       id="linear-gradient-6"
       x1="119.92"
       y1="121.24"
       x2="125.59"
       y2="136.17"
       xlink:href="#linear-gradient-2" />
  </defs>
  <title
     id="title26">1</title>
  <path
     d="M153.29,51.08c-18,9.66-31.1,27.33-36.94,46.9-3.45,11.58-4.53,23.81-8.46,35.23-11.21,32.51-43.5,53.66-57.27,85.17-7.67,17.54-9,38-2.53,56S69,307.67,87,314c11.06,3.9,23,4.48,34.69,4.85,22,.7,44.09.78,65.7-3.12,10.3-1.85,20.44-4.61,30.83-5.81,20.1-2.33,40.62,1.21,60.6-2,13.91-2.26,27.09-7.74,39.69-14.06,9.45-4.74,18.75-10,26.55-17.2,20.63-18.92,28.27-49.61,22.73-77.05s-23-51.55-44.89-69c-9.65-7.65-20.15-14.13-30.26-21.15a338.3,338.3,0,0,1-37-29.78C227.85,53.93,192,30.33,153.29,51.08Z"
     transform="translate(-43.96 -43.14)"
     fill="#b94559"
     opacity="0.18"
     style="isolation: isolate;"
     id="path28" />
  <polygon
     points="116.86 234.61 193.06 234.61 179.57 186.16 128.24 186.16 116.86 234.61"
     fill="#b94559"
     id="polygon30" />
  <polygon
     points="116.86 234.61 193.06 234.61 179.57 186.16 128.24 186.16 116.86 234.61"
     fill="url(#linear-gradient)"
     id="polygon32" />
  <path
     d="M313,99.82v125a13.67,13.67,0,0,1-13.68,13.67H101.92a13.66,13.66,0,0,1-13.67-13.67v-125a13.67,13.67,0,0,1,13.67-13.67H299.36A13.67,13.67,0,0,1,313,99.82Z"
     transform="translate(-43.96 -43.14)"
     fill="#b94559"
     id="path34" />
  <path
     d="M313,99.82V209.4H88.25V99.82a13.69,13.69,0,0,1,13.68-13.68H299.37A13.68,13.68,0,0,1,313,99.82Z"
     transform="translate(-43.96 -43.14)"
     fill="#473f47"
     id="path36" />
  <path
     d="M309.66,102.43V205.74h-218V102.43A13.2,13.2,0,0,1,104.9,89.31H296.4A13.2,13.2,0,0,1,309.66,102.43Z"
     transform="translate(-43.96 -43.14)"
     fill="#fff"
     id="path38" />
  <path
     d="M309.66,102.43V205.74h-218V102.43A13.2,13.2,0,0,1,104.9,89.31H296.39A13.2,13.2,0,0,1,309.66,102.43Z"
     transform="translate(-43.96 -43.14)"
     fill="#b94559"
     opacity="0.18"
     style="isolation: isolate;"
     id="path40" />
  <rect
     x="47.68"
     y="112.74"
     width="216.16"
     height="50.64"
     fill="#fff"
     id="rect42" />
  <rect
     x="196.2"
     y="96.58"
     width="59.94"
     height="60.6"
     fill="url(#linear-gradient-2)"
     id="rect44" />
  <line
     x1="231.65"
     y1="103.09"
     x2="201.4"
     y2="86.6"
     fill="none"
     id="line46" />
  <path
     d="M309.66,102.43v19.08h-218V102.43A13.2,13.2,0,0,1,104.9,89.31H296.39A13.2,13.2,0,0,1,309.66,102.43Z"
     transform="translate(-43.96 -43.14)"
     fill="#b94559"
     id="path48" />
  <path
     d="M309.66,102.43v19.08h-218V102.43A13.2,13.2,0,0,1,104.9,89.31H296.39A13.2,13.2,0,0,1,309.66,102.43Z"
     transform="translate(-43.96 -43.14)"
     fill="url(#linear-gradient-3)"
     id="path50" />
  <rect
     x="200.26"
     y="92.94"
     width="59.94"
     height="60.6"
     fill="#fff"
     id="rect52" />
  <rect
     x="203.39"
     y="97.51"
     width="53.68"
     height="52.37"
     fill="#b94559"
     opacity="0.18"
     style="isolation: isolate;"
     id="rect54" />
  <circle
     cx="247.5"
     cy="107.54"
     r="4.86"
     fill="#b94559"
     id="circle56" />
  <polygon
     points="203.39 126.88 216.53 117.21 233.23 126.88 236.75 126.88 224.64 119.75 234.53 112.2 258.37 126.17 258.37 149.88 203.39 149.88 203.39 126.88"
     fill="url(#linear-gradient-4)"
     id="polygon58" />
  <path
     d="M313.37,182.36a7.46,7.46,0,0,1,3.69,3.53,2.67,2.67,0,0,1-.19,2.81,2.52,2.52,0,0,1-2,.72,8.09,8.09,0,0,1-3.13-.89c-.88-.39-1.75-.82-2.62-1.24a4.09,4.09,0,0,1-1.4-.95,3.57,3.57,0,0,1-.56-2.57c.06-.87.38-3.07,1.53-3.16a7.65,7.65,0,0,1,2.23.76A20.76,20.76,0,0,1,313.37,182.36Z"
     transform="translate(-43.96 -43.14)"
     fill="#ffbaaa"
     id="path60" />
  <path
     d="M309.45,180.37a34.44,34.44,0,0,1-.35,7.92,16.74,16.74,0,0,1-6-2.95,11.89,11.89,0,0,1-2.28-1.83,7.33,7.33,0,0,1-1.59-3.54c-.35-2-2.13-6.88.35-5.7S306.94,179,309.45,180.37Z"
     transform="translate(-43.96 -43.14)"
     fill="#b94559"
     id="path62" />
  <path
     d="M291,244.55a51.07,51.07,0,0,0,5.58,7.36,114,114,0,0,0,10.22,9.43c1.77,1.52,3.54,3.06,5.24,4.67,1.41,1.33,3.21,2.25,3.56,4.33.21,1.22,0,2.69.92,3.52A2.27,2.27,0,0,0,319,274a5.26,5.26,0,0,0,1.85-1.84,2.82,2.82,0,0,0,.45-.9,2.36,2.36,0,0,0,0-1.09c-.38-1.71-1.7-3-2.86-4.32a28.27,28.27,0,0,1-2.79-3.75,21.29,21.29,0,0,0-2.42-2.86l-6.78-7.64c-2.44-2.75-4.94-5.6-6-9.09a14.67,14.67,0,0,0-1.44-3.93c-1.74-2.54-5.8-2.92-8.46-1.72C287.18,238.36,289.65,242.47,291,244.55Z"
     transform="translate(-43.96 -43.14)"
     fill="#ffbaaa"
     id="path64" />
  <path
     d="M305,239.53s1.76,15.36,0,23.67a66,66,0,0,0-1.37,15.56,1.93,1.93,0,0,1-.83,2.53,5.46,5.46,0,0,1-2.86.62l-4,.15a1.64,1.64,0,0,1-1.34-.35c-.52-.57,0-1.53.71-1.87s1.53-.36,2.2-.77c1.26-.76,1.42-2.49,1.45-4l.1-6.44c.15-9.25.3-18.55-1.11-27.69a3,3,0,0,1,0-1.26c.2-.76.94-1.23,1.62-1.63a6.65,6.65,0,0,1,2.43-1,2.28,2.28,0,0,1,2.29,1"
     transform="translate(-43.96 -43.14)"
     fill="#ffbaaa"
     id="path66" />
  <path
     d="M283.08,182.94a1.12,1.12,0,0,0-.42-.25c-.9-.26-2.71,1-3.51,1.34a19.16,19.16,0,0,1-8.27,1.6,36.87,36.87,0,0,1-7.58-1.75c-3.18-.89-6.43-1.47-9.56-2.5a19.12,19.12,0,0,1-8.39-5c-.52.37-.15,1.39-.7,1.71s-1-.32-1.59-.37c-2.12-.18-.79,5.21-.47,6.1a1.2,1.2,0,0,0,.31.55,1.44,1.44,0,0,0,.63.25c7.56,1.6,14.19,6.29,21.76,7.87a28.11,28.11,0,0,0,11.41-.05,22,22,0,0,0,9.94-4.61c.25-.2.53-.53.36-.8a.66.66,0,0,0-.37-.26,5.7,5.7,0,0,1-2.32-1.6C283.83,184.55,283.63,183.46,283.08,182.94Z"
     transform="translate(-43.96 -43.14)"
     fill="#ffbaaa"
     id="path68" />
  <path
     d="M288.84,167.63A2.91,2.91,0,0,0,291,169.1a1,1,0,0,1,.66.14.82.82,0,0,1,.16.69l-.24,3a1.17,1.17,0,0,0,.1.72,1.19,1.19,0,0,0,.72.41c1.1.3,2.46.53,3.23-.3a3.13,3.13,0,0,0,.63-1.67c.59-3.46,1.15-7,.62-10.46-.32-2.1-1.16-4.3-3-5.4-2.09-1.26-7.48-1.65-7.25,1.87a40.18,40.18,0,0,1,.45,4.26A8.58,8.58,0,0,0,288.84,167.63Z"
     transform="translate(-43.96 -43.14)"
     fill="#ffbaaa"
     id="path70" />
  <path
     d="M286.52,155.28c-.13.52-.22,1.07-.33,1.61l-.13.69a.41.41,0,0,0,0,.22.34.34,0,0,0,.22.14l1.88.62a.59.59,0,0,0,.41,0,.6.6,0,0,0,.25-.2l.78-.89.09.9a.32.32,0,0,0,.08.21.29.29,0,0,0,.16.07l3.54.83.22-.52a29.85,29.85,0,0,1-.12,10.41,14.88,14.88,0,0,0,8.74-.1,2.78,2.78,0,0,0,1.07-.54,2.84,2.84,0,0,0,.72-1.33,16.19,16.19,0,0,0-1.56-13,6.45,6.45,0,0,0-5.46-3.57,14.88,14.88,0,0,0-6.83.46,6.18,6.18,0,0,0-2.72,1.79A5.12,5.12,0,0,0,286.52,155.28Z"
     transform="translate(-43.96 -43.14)"
     fill="#fb682d"
     id="path72" />
  <path
     d="M290,205.09c.23,7.51-2.5,14.57-4.55,21.79-.9,3.14-1.9,6.37-1.57,9.61a2.28,2.28,0,0,0,0,.26c9.9,2.85,20.76,4.27,30.34.47a81.75,81.75,0,0,1-1.62-15.37,28.11,28.11,0,0,0-.42-6.08c-.77-3.41-3-6.31-5.28-9a9.5,9.5,0,0,1-2.14-3.23,8.83,8.83,0,0,1-.13-3.55,70,70,0,0,0,.27-11.67,28.24,28.24,0,0,0-2.68-10.16,13.88,13.88,0,0,0-2.65-3.93,6.81,6.81,0,0,0-4.2-2,4.53,4.53,0,0,0-4.11,1.91c-2.41,3.72-6.43,4.55-9.35,7.88a1.15,1.15,0,0,0-.33.61,1.19,1.19,0,0,0,.25.69l3.09,4.9a9.11,9.11,0,0,0,1.08,1.47h0c.37.38.81.69,1.17,1.07a7.86,7.86,0,0,1,1.69,4.11A66,66,0,0,1,290,205.09Z"
     transform="translate(-43.96 -43.14)"
     fill="#b94559"
     id="path74" />
  <path
     d="M293,280.74l1-.32a9.35,9.35,0,0,1,2.48-.55.78.78,0,0,1,.43.06,1,1,0,0,1,.38.45,1.88,1.88,0,0,0,.59.72,2,2,0,0,0,1.68,0,7.57,7.57,0,0,0,1.69-.61c.53-.3,1-.71,1.52-1a1.1,1.1,0,0,1,1-.08,1.21,1.21,0,0,1,.4.38,2.45,2.45,0,0,1,.49.82,2.53,2.53,0,0,1,0,.91,1.58,1.58,0,0,1-.23.77,1.59,1.59,0,0,1-1.26.46l-4.88.31c-1.53.1-3.07.19-4.6.17a10,10,0,0,1-2.5-.27c-.11,0-.24-.07-.28-.19a.38.38,0,0,1,0-.23,4.23,4.23,0,0,1,2.63-2"
     transform="translate(-43.96 -43.14)"
     fill="#b94559"
     id="path76" />
  <path
     d="M320.27,268.34c-.13.49,0,1-.12,1.52a3,3,0,0,1-.62,1l-1.19,1.47a1.87,1.87,0,0,1-.47.46,2,2,0,0,1-1.6-.05.51.51,0,0,0-.45,0,.59.59,0,0,0-.15.28l-.68,2.37a11.61,11.61,0,0,0-.46,3,.92.92,0,0,0,.36.28c1.09.55,2.94-1.9,3.86-2.69a8.19,8.19,0,0,0,2-3.05c.26-.6.51-1.2.74-1.81a5.55,5.55,0,0,0,.55-1.76.9.9,0,0,0-.49-.82C321.25,268.42,320.42,267.81,320.27,268.34Z"
     transform="translate(-43.96 -43.14)"
     fill="#b94559"
     id="path78" />
  <path
     d="M283.85,236.49a5.22,5.22,0,0,0,4.35-.43c2.27-1.42,3.17-4.26,3.59-6.89.9-5.79.37-12.08,3.41-17.07.93-1.52,2.23-3.06,2-4.84s-1.93-3.12-2.93-4.7a12.79,12.79,0,0,1-1.49-5.88c-.35-3.82-.68-7.65-1-11.47,0,1-4.23,3-5.77,4.49.37.38.81.69,1.17,1.07a7.86,7.86,0,0,1,1.69,4.11,66,66,0,0,1,1.1,10.21c.23,7.51-2.5,14.57-4.55,21.79C284.52,230,283.52,233.25,283.85,236.49Z"
     transform="translate(-43.96 -43.14)"
     fill="url(#linear-gradient-5)"
     id="path80" />
  <path
     d="M135.94,121.65A13.94,13.94,0,1,1,122,107.71,13.9,13.9,0,0,1,135.94,121.65Z"
     transform="translate(-43.96 -43.14)"
     fill="#fff"
     id="path82" />
  <path
     d="M132.08,131.28a13.94,13.94,0,0,1-18.06,1.8l.68-2.46a4.07,4.07,0,0,1,3.91-3h1.57l5.86.11a6.56,6.56,0,0,1,4.66,2Z"
     transform="translate(-43.96 -43.14)"
     fill="#b94559"
     id="path84" />
  <path
     d="M116.23,125.31l10.56-.47s1-8.89-2.91-10.75c-3.62-1.74-6.48-.22-7.32,2.88S116.23,125.31,116.23,125.31Z"
     transform="translate(-43.96 -43.14)"
     fill="#fb682d"
     id="path86" />
  <path
     d="M120.18,125v2.69a4,4,0,0,0,0,.77,2.5,2.5,0,0,0,1.39,1.48,1.83,1.83,0,0,0,.79.25.9.9,0,0,0,.76-.29,1.47,1.47,0,0,0,.25-.65,3.25,3.25,0,0,0,.19-1.62c-.16-.45-.25-.94-.38-1.41l-.47-1.79Z"
     transform="translate(-43.96 -43.14)"
     fill="#ffbaaa"
     id="path88" />
  <path
     d="M120.26,125.94s1,2.08,2.14,1.85.69-2,.69-2Z"
     transform="translate(-43.96 -43.14)"
     fill="url(#linear-gradient-6)"
     id="path90" />
  <path
     d="M124.72,123.1a6.07,6.07,0,0,1-.9,2.18,2.65,2.65,0,0,1-2,1.16,2.72,2.72,0,0,1-1.58-.5c-1.78-1.14-2.53-3.39-2.65-5.51a5.69,5.69,0,0,1,1.48-4.64,4.08,4.08,0,0,1,5.67.7C125.92,118.2,125.17,121.29,124.72,123.1Z"
     transform="translate(-43.96 -43.14)"
     fill="#ffbaaa"
     id="path92" />
  <path
     d="M117.6,117.21l-.27,3h1l.39-1.88.22,1.88h1.85l.16-1.93.26,1.74h1.93v-1.81l.54,1.88h1.8s1.06-3.52-1.36-4.76S118.37,114.63,117.6,117.21Z"
     transform="translate(-43.96 -43.14)"
     fill="#fb682d"
     id="path94" />
  <rect
     x="59.79"
     y="99.2"
     width="42.8"
     height="2.25"
     rx="1.05"
     fill="#b94559"
     id="rect98" />
  <rect
     x="59.79"
     y="104.63"
     width="29.19"
     height="2.25"
     rx="0.86"
     fill="#b94559"
     id="rect100" />
  <rect
     x="94.05"
     y="104.63"
     width="28.33"
     height="2.25"
     rx="0.85"
     fill="#b94559"
     id="rect102" />
  <rect
     x="124.92"
     y="104.63"
     width="28.33"
     height="2.25"
     rx="0.85"
     fill="#b94559"
     id="rect104" />
  <rect
     x="97.14"
     y="123.24"
     width="72.95"
     height="10.35"
     fill="#b94559"
     opacity="0.18"
     style="isolation: isolate;"
     id="rect106" />
  <rect
     x="97.14"
     y="141.35"
     width="72.95"
     height="10.35"
     fill="#b94559"
     opacity="0.18"
     style="isolation: isolate;"
     id="rect108" />
</svg>
