<svg width="855" height="578" viewBox="0 0 855 578" fill="none" xmlns="http://www.w3.org/2000/svg">
<g clip-path="url(#clip0)">
<path d="M208.007 541.232L206.117 567.067C206.032 568.237 206.197 569.411 206.603 570.511C207.008 571.611 207.644 572.612 208.468 573.446C209.292 574.281 210.285 574.929 211.38 575.348C212.475 575.767 213.647 575.947 214.817 575.877L228.087 575.073C228.702 575.035 229.301 574.863 229.842 574.568C230.383 574.273 230.852 573.863 231.216 573.366C231.58 572.869 231.83 572.298 231.949 571.694C232.068 571.089 232.052 570.466 231.902 569.868L224.537 540.406L208.007 541.232Z" fill="#A88D92" fill-opacity="0.5"/>
<path d="M319.003 556.509C334.62 560.163 345.777 565.356 353.106 572.384C355.716 574.867 359.131 576.331 362.729 576.509C367.326 576.751 371.084 576.236 373.909 574.974H373.909C374.633 574.655 375.258 574.148 375.719 573.506C376.181 572.864 376.462 572.111 376.534 571.323C376.619 570.523 376.489 569.715 376.157 568.982C375.825 568.25 375.303 567.619 374.645 567.156L337.606 540.802L321.873 547.096L318.202 550.766C317.805 551.163 317.505 551.648 317.327 552.18C317.148 552.713 317.096 553.28 317.173 553.837C317.251 554.393 317.456 554.924 317.774 555.388C318.091 555.852 318.512 556.236 319.003 556.509H319.003Z" fill="#A88D92" fill-opacity="0.5"/>
<path d="M270.94 134.695L165.067 133.714C165.333 118.294 168.921 103.151 176.764 89.6005C181.914 80.701 181.803 71.0157 180.562 62.8561C178.646 50.2641 183.101 37.3806 192.999 29.3649C200.563 23.2285 210.11 20.0698 219.842 20.4835L221.897 20.5692C228.594 20.8475 235.113 22.8036 240.856 26.258C246.6 29.7123 251.383 34.5542 254.768 40.339C258.208 46.5146 259.595 53.624 258.729 60.6398C258.058 67.2411 259.664 73.9096 263.42 80.6416C269.9 95.4242 271.303 114.34 270.94 134.695Z" fill="#2F2E41"/>
<path d="M341.775 542.176L320.996 547.597L219.813 327.161L226.137 542.176H205.358C183.154 441.018 143.067 324.27 161.09 287.41L268.597 281.086L341.775 542.176Z" fill="#1D121C" fill-opacity="0.8"/>
<path d="M218.909 97.6912C234.376 97.6912 246.915 85.1524 246.915 69.6851C246.915 54.2177 234.376 41.6789 218.909 41.6789C203.442 41.6789 190.903 54.2177 190.903 69.6851C190.903 85.1524 203.442 97.6912 218.909 97.6912Z" fill="#FFB9B9"/>
<path d="M243.302 121.18L219.5 126L197.227 118.47C201.742 108.106 203.546 98.1264 201.744 88.657H236.074C235.996 95.9276 239.614 108.504 243.302 121.18Z" fill="#FFB9B9"/>
<path d="M275 299C274.5 302 226.5 302 214 302C201.5 302 157.014 306.299 157.014 299.649C157.014 293 162.272 269 164 251C165.728 233 172 119.5 172 119.5L199 111.5L218 123.5L240.5 108.5C240.5 108.5 276.5 120 277.5 121.5C278.5 123 267.5 177.5 266 192.5C264.5 207.5 262 245 263 254.5C264 264 275.5 296 275 299Z" fill="#6D0230"/>
<path d="M154.766 221.46L128.567 205.199L150.91 139.759C153.402 133.007 158.175 127.337 164.404 123.731C164.404 123.731 169.5 120.5 172 119.5C174.5 118.5 169.5 176 169.5 176L154.766 221.46Z" fill="#6D0230"/>
<path d="M326 209L304.734 205.199L270 164.5L277.5 121.5L331.837 197.068L326 209Z" fill="#6D0230"/>
<path d="M252.681 248.494C253.08 250.245 254.158 251.767 255.677 252.725C257.196 253.684 259.034 254 260.786 253.606L281.492 248.917L278.5 235.7L257.793 240.389C256.041 240.786 254.518 241.863 253.559 243.383C252.6 244.903 252.285 246.741 252.681 248.494V248.494Z" fill="#FFB9B9"/>
<path d="M243.302 62.4576C227.746 56.0611 212.382 55.5982 197.227 61.5542L190.903 38.9686H248.722L243.302 62.4576Z" fill="#2F2E41"/>
<path d="M271.308 233.205L281 251C300.754 245.49 329.5 213 331.837 208C334.174 203 331.837 197.068 331.837 197.068L303.831 204.295L271.308 233.205Z" fill="#6D0230"/>
<path d="M118.177 165.193L140.724 169.219L192.258 242.495L164.88 236.053L118.177 165.193Z" fill="#B94559"/>
<path d="M114.178 164.296C113.834 164.301 113.498 164.398 113.205 164.578C112.912 164.757 112.673 165.012 112.512 165.316C112.351 165.619 112.275 165.961 112.291 166.304C112.307 166.647 112.416 166.98 112.604 167.267L160.776 240.355C161.045 240.763 161.46 241.053 161.936 241.165L184.349 246.438C184.727 246.527 185.123 246.499 185.484 246.358C185.846 246.217 186.156 245.969 186.373 245.647C186.591 245.325 186.705 244.945 186.702 244.557C186.698 244.169 186.576 243.791 186.353 243.474L133.464 168.272C133.321 168.067 133.138 167.892 132.927 167.758C132.716 167.624 132.481 167.532 132.235 167.489L114.539 164.329C114.42 164.307 114.299 164.296 114.178 164.296V164.296Z" fill="#3F3D56"/>
<path d="M144.227 216.553L145.566 230.038L166.693 227.941C168.481 227.764 170.125 226.883 171.264 225.493C172.403 224.103 172.944 222.317 172.766 220.529C172.589 218.741 171.708 217.096 170.318 215.957C168.928 214.819 167.142 214.278 165.354 214.456L144.227 216.553Z" fill="#FFB9B9"/>
<path d="M125.857 214.991C126 217 128.24 222.758 131.5 226C134.76 229.242 138.402 231.495 143 231.5H146.5L148.5 214.991L129 203.5C129 203.5 125.713 212.982 125.857 214.991Z" fill="#6D0230"/>
<path d="M854.557 0H442.557V217H854.557V0Z" fill="#F8FAF9"/>
<path d="M454.557 205H842.557V12H454.557V205Z" fill="white"/>
<path d="M622.557 40H484.557V178H622.557V40Z" fill="#3F3D56"/>
<path d="M589.557 103C591.766 103 593.557 101.209 593.557 99C593.557 96.7909 591.766 95 589.557 95C587.348 95 585.557 96.7909 585.557 99C585.557 101.209 587.348 103 589.557 103Z" fill="#B94559"/>
<path d="M574.557 89C576.766 89 578.557 87.2091 578.557 85C578.557 82.7909 576.766 81 574.557 81C572.348 81 570.557 82.7909 570.557 85C570.557 87.2091 572.348 89 574.557 89Z" fill="#B94559"/>
<path d="M572.557 99C571.085 99.0003 569.642 99.4091 568.389 100.181C567.285 98.5211 565.988 96.9984 564.524 95.6452C564.541 95.4317 564.557 95.2179 564.557 95C564.558 93.4304 564.097 91.8951 563.231 90.5857C562.366 89.2763 561.134 88.2507 559.689 87.6368C558.244 87.0229 556.651 86.8479 555.108 87.1335C553.564 87.4192 552.139 88.1529 551.01 89.2431C548.868 88.9391 546.694 88.9202 544.547 89.1867C544.549 89.124 544.557 89.0631 544.557 89C544.558 87.661 544.224 86.3429 543.584 85.1667C542.944 83.9905 542.019 82.9937 540.894 82.2677C539.769 81.5418 538.479 81.1099 537.144 81.0116C535.808 80.9133 534.47 81.1518 533.25 81.7052C532.031 82.2587 530.97 83.1093 530.165 84.1792C529.36 85.2491 528.836 86.504 528.641 87.8288C528.447 89.1537 528.588 90.5062 529.052 91.7622C529.516 93.0183 530.288 94.1378 531.297 95.0182C529.958 96.1654 528.743 97.4503 527.673 98.8518C526.685 98.0301 525.515 97.4582 524.259 97.1847C523.004 96.9111 521.702 96.9439 520.462 97.2802C519.222 97.6166 518.081 98.2465 517.137 99.1169C516.192 99.9872 515.47 101.072 515.033 102.28C514.597 103.488 514.457 104.784 514.627 106.057C514.796 107.331 515.27 108.544 516.008 109.596C516.746 110.647 517.727 111.506 518.866 112.098C520.006 112.691 521.272 113 522.557 113L522.582 112.999C522.569 113.331 522.557 113.664 522.557 114C522.557 116.013 522.8 118.018 523.28 119.973C520.903 120.868 518.791 122.352 517.145 124.286C515.498 126.22 514.369 128.541 513.865 131.031C513.361 133.521 513.498 136.098 514.262 138.52C515.027 140.943 516.395 143.131 518.237 144.88C520.08 146.629 522.336 147.881 524.795 148.52C527.254 149.158 529.835 149.16 532.295 148.528C534.755 147.895 537.014 146.648 538.861 144.903C540.707 143.158 542.079 140.972 542.849 138.551C548.414 139.621 554.177 138.766 559.192 136.127C559.704 137.332 560.504 138.394 561.522 139.218C562.54 140.042 563.744 140.603 565.03 140.853C566.316 141.103 567.643 141.033 568.895 140.65C570.148 140.267 571.287 139.583 572.213 138.657C573.139 137.731 573.824 136.591 574.207 135.339C574.59 134.086 574.66 132.759 574.41 131.473C574.16 130.188 573.598 128.983 572.774 127.965C571.95 126.947 570.889 126.147 569.684 125.635C571.416 122.347 572.389 118.712 572.531 114.999L572.557 115C574.678 115 576.713 114.157 578.213 112.657C579.714 111.157 580.557 109.122 580.557 107C580.557 104.878 579.714 102.843 578.213 101.343C576.713 99.8429 574.678 99.0001 572.557 99.0001V99Z" fill="#B94559"/>
<path d="M570.557 37H530.557V43H570.557V37Z" fill="#F8FAF9"/>
<path d="M798.557 40H660.557V178H798.557V40Z" fill="#3F3D56"/>
<path d="M755.757 133.6C756.751 133.6 757.557 132.794 757.557 131.8C757.557 130.806 756.751 130 755.757 130C754.763 130 753.957 130.806 753.957 131.8C753.957 132.794 754.763 133.6 755.757 133.6Z" fill="#B94559"/>
<path d="M749.007 127.3C750.001 127.3 750.807 126.494 750.807 125.5C750.807 124.506 750.001 123.7 749.007 123.7C748.013 123.7 747.207 124.506 747.207 125.5C747.207 126.494 748.013 127.3 749.007 127.3Z" fill="#B94559"/>
<path d="M748.107 131.8C747.444 131.8 746.795 131.984 746.231 132.331C745.734 131.584 745.151 130.899 744.492 130.29C744.5 130.194 744.507 130.098 744.507 130C744.507 129.294 744.3 128.603 743.91 128.014C743.521 127.424 742.966 126.963 742.316 126.687C741.666 126.41 740.949 126.332 740.255 126.46C739.56 126.589 738.919 126.919 738.411 127.409C737.447 127.273 736.469 127.264 735.502 127.384C735.503 127.356 735.507 127.328 735.507 127.3C735.507 126.697 735.357 126.104 735.069 125.575C734.781 125.046 734.365 124.597 733.858 124.27C733.352 123.944 732.772 123.749 732.171 123.705C731.57 123.661 730.967 123.768 730.419 124.017C729.87 124.266 729.393 124.649 729.03 125.131C728.668 125.612 728.432 126.177 728.345 126.773C728.257 127.369 728.321 127.978 728.53 128.543C728.739 129.108 729.086 129.612 729.54 130.008C728.937 130.524 728.391 131.103 727.909 131.733C727.465 131.364 726.938 131.106 726.373 130.983C725.808 130.86 725.222 130.875 724.664 131.026C724.106 131.177 723.593 131.461 723.168 131.853C722.742 132.244 722.418 132.733 722.221 133.276C722.025 133.82 721.962 134.403 722.038 134.976C722.115 135.549 722.328 136.095 722.66 136.568C722.992 137.041 723.433 137.428 723.946 137.694C724.459 137.961 725.029 138.1 725.607 138.1L725.618 138.099C725.612 138.249 725.607 138.399 725.607 138.55C725.607 139.456 725.716 140.358 725.932 141.238C724.862 141.64 723.912 142.308 723.171 143.179C722.43 144.049 721.922 145.093 721.695 146.214C721.469 147.334 721.53 148.494 721.874 149.584C722.218 150.674 722.834 151.659 723.663 152.446C724.492 153.233 725.507 153.797 726.614 154.084C727.72 154.371 728.882 154.372 729.989 154.087C731.096 153.803 732.113 153.241 732.943 152.456C733.774 151.671 734.392 150.687 734.738 149.598C737.242 150.079 739.836 149.695 742.092 148.507C742.323 149.05 742.683 149.527 743.141 149.898C743.599 150.269 744.141 150.522 744.72 150.634C745.298 150.746 745.895 150.715 746.459 150.543C747.023 150.37 747.535 150.062 747.952 149.645C748.369 149.229 748.677 148.716 748.849 148.152C749.022 147.589 749.053 146.992 748.941 146.413C748.828 145.834 748.575 145.292 748.205 144.834C747.834 144.376 747.356 144.016 746.814 143.786C747.593 142.306 748.031 140.671 748.095 138.999L748.107 139C749.061 139 749.977 138.621 750.652 137.946C751.327 137.27 751.707 136.355 751.707 135.4C751.707 134.445 751.327 133.53 750.652 132.854C749.977 132.179 749.061 131.8 748.107 131.8V131.8Z" fill="#B94559"/>
<path d="M769.878 99.4417C770.873 99.4417 771.678 98.6358 771.678 97.6417C771.678 96.6476 770.873 95.8417 769.878 95.8417C768.884 95.8417 768.078 96.6476 768.078 97.6417C768.078 98.6358 768.884 99.4417 769.878 99.4417Z" fill="#B94559"/>
<path d="M774.113 91.2367C775.107 91.2367 775.913 90.4308 775.913 89.4367C775.913 88.4426 775.107 87.6367 774.113 87.6367C773.119 87.6367 772.313 88.4426 772.313 89.4367C772.313 90.4308 773.119 91.2367 774.113 91.2367Z" fill="#B94559"/>
<path d="M767.805 90.2781C767.625 89.6407 767.272 89.0655 766.785 88.6169C767.369 87.9363 767.87 87.1886 768.278 86.3896C768.373 86.3709 768.467 86.3516 768.561 86.325C769.241 86.134 769.85 85.7471 770.312 85.2124C770.773 84.6778 771.067 84.019 771.157 83.3184C771.247 82.6178 771.128 81.9063 770.816 81.2726C770.504 80.6389 770.013 80.1111 769.403 79.7549C769.273 78.7899 769.016 77.8463 768.639 76.9488C768.666 76.9418 768.693 76.9377 768.721 76.9301C769.301 76.7675 769.831 76.4618 770.262 76.0411C770.694 75.6205 771.013 75.0982 771.19 74.5223C771.367 73.9464 771.397 73.3352 771.277 72.7447C771.156 72.1543 770.89 71.6035 770.501 71.1429C770.113 70.6822 769.615 70.3264 769.053 70.1082C768.492 69.8899 767.884 69.8161 767.287 69.8935C766.689 69.9709 766.12 70.1971 765.633 70.5513C765.145 70.9055 764.755 71.3764 764.496 71.9209C763.836 71.4807 763.131 71.1112 762.394 70.8186C762.629 70.2906 762.734 69.7137 762.7 69.1367C762.665 68.5596 762.492 67.9994 762.195 67.5034C761.898 67.0074 761.486 66.5902 760.994 66.2871C760.502 65.984 759.943 65.8039 759.367 65.762C758.79 65.7201 758.212 65.8178 757.681 66.0466C757.15 66.2754 756.683 66.6287 756.317 67.0767C755.952 67.5246 755.699 68.0539 755.582 68.6199C755.464 69.1859 755.485 69.7719 755.641 70.3283L755.645 70.3392C755.499 70.374 755.354 70.4094 755.208 70.4503C754.336 70.696 753.497 71.0458 752.709 71.4923C752.032 70.5716 751.131 69.8381 750.093 69.3607C749.054 68.8833 747.911 68.6777 746.771 68.763C745.631 68.8484 744.532 69.222 743.576 69.8487C742.62 70.4755 741.839 71.3349 741.306 72.3462C740.773 73.3576 740.506 74.4877 740.529 75.6307C740.553 76.7736 740.866 77.8917 741.441 78.8802C742.015 79.8687 742.831 80.6951 743.812 81.2819C744.793 81.8687 745.907 82.1966 747.049 82.2348C747.265 84.7757 748.338 87.1677 750.093 89.0178C749.633 89.3867 749.271 89.8627 749.038 90.4042C748.805 90.9456 748.709 91.5359 748.758 92.1233C748.806 92.7106 748.999 93.2771 749.317 93.7729C749.636 94.2686 750.071 94.6786 750.585 94.9668C751.1 95.255 751.677 95.4125 752.266 95.4256C752.855 95.4387 753.439 95.307 753.965 95.042C754.491 94.777 754.945 94.3868 755.285 93.9057C755.625 93.4245 755.843 92.8672 755.917 92.2826C757.553 92.632 759.246 92.6101 760.872 92.2187L760.874 92.2298C761.002 92.6852 761.218 93.1109 761.511 93.4826C761.803 93.8543 762.166 94.1648 762.579 94.3962C762.991 94.6276 763.445 94.7755 763.915 94.8313C764.385 94.8872 764.861 94.85 765.316 94.7217C765.771 94.5935 766.197 94.3769 766.568 94.0841C766.94 93.7914 767.25 93.4283 767.481 93.0156C767.712 92.6029 767.86 92.1488 767.915 91.679C767.971 91.2093 767.933 90.7333 767.805 90.2781V90.2781Z" fill="#B94559"/>
<path d="M700.162 74.9815C701.156 74.9815 701.962 74.1756 701.962 73.1815C701.962 72.1874 701.156 71.3815 700.162 71.3815C699.168 71.3815 698.362 72.1874 698.362 73.1815C698.362 74.1756 699.168 74.9815 700.162 74.9815Z" fill="#B94559"/>
<path d="M690.958 75.7189C691.952 75.7189 692.758 74.913 692.758 73.9189C692.758 72.9248 691.952 72.1189 690.958 72.1189C689.964 72.1189 689.158 72.9248 689.158 73.9189C689.158 74.913 689.964 75.7189 690.958 75.7189Z" fill="#B94559"/>
<path d="M695.004 78.8312C694.557 79.3204 694.256 79.9239 694.132 80.5746C693.245 80.4378 692.346 80.407 691.452 80.4828C691.386 80.4124 691.32 80.3423 691.247 80.2762C690.726 79.7996 690.076 79.487 689.378 79.3774C688.68 79.2678 687.966 79.366 687.323 79.6599C686.681 79.9537 686.14 80.4301 685.766 81.0297C685.393 81.6293 685.204 82.3256 685.224 83.0317C684.473 83.6514 683.807 84.3678 683.245 85.1623C683.224 85.1428 683.206 85.1216 683.185 85.1025C682.741 84.6957 682.201 84.4069 681.616 84.2628C681.031 84.1186 680.419 84.1235 679.837 84.2772C679.254 84.4309 678.719 84.7283 678.281 85.1423C677.844 85.5563 677.517 86.0736 677.331 86.6468C677.145 87.2199 677.105 87.8306 677.217 88.4228C677.328 89.015 677.586 89.5698 677.967 90.0364C678.349 90.5029 678.841 90.8663 679.399 91.0932C679.957 91.3201 680.564 91.4032 681.162 91.335C681.137 92.1281 681.196 92.9217 681.337 93.7026C680.764 93.7815 680.219 93.9971 679.747 94.3313C679.275 94.6654 678.891 95.1082 678.627 95.6223C678.362 96.1364 678.226 96.7066 678.228 97.2847C678.231 97.8627 678.372 98.4317 678.641 98.9434C678.91 99.4551 679.299 99.8945 679.773 100.224C680.248 100.554 680.795 100.765 681.368 100.839C681.942 100.913 682.524 100.847 683.067 100.648C683.61 100.449 684.097 100.123 684.486 99.6956L684.494 99.6868C684.6 99.792 684.707 99.8971 684.819 99.999C685.488 100.61 686.228 101.137 687.023 101.571C686.599 102.632 686.452 103.784 686.595 104.918C686.738 106.053 687.167 107.132 687.842 108.055C688.516 108.978 689.414 109.714 690.451 110.195C691.488 110.676 692.631 110.885 693.771 110.804C694.911 110.722 696.012 110.352 696.97 109.728C697.928 109.105 698.712 108.248 699.248 107.238C699.784 106.229 700.055 105.1 700.035 103.957C700.016 102.814 699.706 101.694 699.135 100.704C701.179 99.1791 702.643 97.0045 703.287 94.5373C703.843 94.7329 704.439 94.789 705.022 94.7007C705.604 94.6124 706.156 94.3824 706.63 94.031C707.103 93.6795 707.482 93.2172 707.735 92.6848C707.988 92.1523 708.106 91.566 708.079 90.9772C708.052 90.3885 707.881 89.8153 707.581 89.308C707.281 88.8007 706.861 88.3749 706.358 88.0678C705.855 87.7607 705.284 87.5819 704.696 87.5469C704.108 87.5119 703.52 87.6218 702.984 87.8671C702.417 86.2938 701.504 84.8677 700.313 83.6936L700.321 83.6856C700.641 83.3366 700.888 82.9281 701.05 82.4833C701.211 82.0385 701.284 81.5662 701.262 81.0935C701.241 80.6208 701.127 80.1569 700.927 79.7284C700.726 79.2998 700.443 78.915 700.093 78.596C699.744 78.2769 699.335 78.0299 698.89 77.8691C698.445 77.7082 697.973 77.6366 697.5 77.6585C697.027 77.6803 696.563 77.7952 696.135 77.9964C695.707 78.1976 695.323 78.4813 695.004 78.8312V78.8312Z" fill="#B94559"/>
<path d="M746.557 37H706.557V43H746.557V37Z" fill="#F8FAF9"/>
<path d="M25.1764 510.243C39.5961 529.554 69.5284 531.587 69.5284 531.587C69.5284 531.587 76.0819 502.31 61.6623 482.999C47.2426 463.688 17.3103 461.655 17.3103 461.655C17.3103 461.655 10.7568 490.932 25.1764 510.243Z" fill="#2FAF43" fill-opacity="0.69"/>
<path d="M98.6331 517.503C89.118 530.245 69.3665 531.587 69.3665 531.587C69.3665 531.587 65.0421 512.268 74.5572 499.525C84.0723 486.782 103.824 485.441 103.824 485.441C103.824 485.441 108.148 504.76 98.6331 517.503Z" fill="#2FAF43" fill-opacity="0.69"/>
<path d="M519.557 575.656H0V577.897H519.557V575.656Z" fill="#3F3D56"/>
<path d="M95.557 576H39.557L33.557 528H101.557L95.557 576Z" fill="#6D0230"/>
<path d="M232 169.667C232 168.833 231.73 147 232 147L255 147C255.14 147 255 168.833 255 169.667C255 170.5 244 177 243.5 177C243 177 232 170.5 232 169.667Z" fill="#B94559" fill-opacity="0.5"/>
<path d="M231.902 149C231.902 149 231.902 147.039 232 147C232.098 146.961 254.953 146.961 255 147C255.047 147.039 255.047 149 255.047 149H231.902Z" fill="#6D0230" fill-opacity="0.54"/>
</g>
<defs>
<clipPath id="clip0">
<rect width="854.557" height="577.897" fill="white"/>
</clipPath>
</defs>
</svg>
