<svg width="729" height="524" viewBox="0 0 729 524" fill="none" xmlns="http://www.w3.org/2000/svg">
<g clip-path="url(#clip0)">
<path d="M711.346 523H274.346C269.839 522.995 265.518 521.202 262.331 518.015C259.144 514.828 257.352 510.507 257.346 506V17C257.352 12.4929 259.144 8.17181 262.331 4.98479C265.518 1.79777 269.839 0.00507387 274.346 0H711.346C715.854 0.00507387 720.175 1.79777 723.362 4.98479C726.549 8.17181 728.341 12.4929 728.346 17V506C728.341 510.507 726.549 514.828 723.362 518.015C720.175 521.202 715.854 522.995 711.346 523V523ZM274.346 2C270.37 2.0045 266.557 3.58629 263.745 6.39836C260.933 9.21043 259.351 13.0231 259.346 17V506C259.351 509.977 260.933 513.79 263.745 516.602C266.557 519.414 270.37 520.996 274.346 521H711.346C715.323 520.996 719.136 519.414 721.948 516.602C724.76 513.79 726.342 509.977 726.346 506V17C726.342 13.0231 724.76 9.21043 721.948 6.39836C719.136 3.58629 715.323 2.0045 711.346 2H274.346Z" fill="#3F3D56"/>
<path d="M727.346 41.5903H258.346V43.5903H727.346V41.5903Z" fill="#3F3D56"/>
<path d="M281.346 30C285.765 30 289.346 26.4183 289.346 22C289.346 17.5817 285.765 14 281.346 14C276.928 14 273.346 17.5817 273.346 22C273.346 26.4183 276.928 30 281.346 30Z" fill="#B94559"/>
<path d="M306.346 30C310.765 30 314.346 26.4183 314.346 22C314.346 17.5817 310.765 14 306.346 14C301.928 14 298.346 17.5817 298.346 22C298.346 26.4183 301.928 30 306.346 30Z" fill="#B94559"/>
<path d="M331.346 30C335.765 30 339.346 26.4183 339.346 22C339.346 17.5817 335.765 14 331.346 14C326.928 14 323.346 17.5817 323.346 22C323.346 26.4183 326.928 30 331.346 30Z" fill="#B94559"/>
<path d="M648.846 115H336.846C333.399 115 330.092 113.63 327.654 111.192C325.216 108.754 323.846 105.448 323.846 102C323.846 98.5522 325.216 95.2456 327.654 92.8076C330.092 90.3696 333.399 89 336.846 89H648.846C652.294 89 655.601 90.3696 658.039 92.8076C660.477 95.2456 661.846 98.5522 661.846 102C661.846 105.448 660.477 108.754 658.039 111.192C655.601 113.63 652.294 115 648.846 115V115ZM336.846 91C333.929 91 331.131 92.1589 329.068 94.2218C327.005 96.2847 325.846 99.0826 325.846 102C325.846 104.917 327.005 107.715 329.068 109.778C331.131 111.841 333.929 113 336.846 113H648.846C651.764 113 654.562 111.841 656.625 109.778C658.688 107.715 659.846 104.917 659.846 102C659.846 99.0826 658.688 96.2847 656.625 94.2218C654.562 92.1589 651.764 91 648.846 91H336.846Z" fill="#3F3D56"/>
<path d="M571.701 217.591H429.701C427.579 217.591 425.544 216.748 424.044 215.247C422.544 213.747 421.701 211.712 421.701 209.591C421.701 207.469 422.544 205.434 424.044 203.934C425.544 202.433 427.579 201.591 429.701 201.591H571.701C573.822 201.591 575.857 202.433 577.357 203.934C578.858 205.434 579.701 207.469 579.701 209.591C579.701 211.712 578.858 213.747 577.357 215.247C575.857 216.748 573.822 217.591 571.701 217.591Z" fill="#CCCCCC"/>
<path d="M653.701 244.591H429.701C427.579 244.591 425.544 243.748 424.044 242.247C422.544 240.747 421.701 238.712 421.701 236.591C421.701 234.469 422.544 232.434 424.044 230.934C425.544 229.433 427.579 228.591 429.701 228.591H653.701C655.822 228.591 657.857 229.433 659.357 230.934C660.858 232.434 661.701 234.469 661.701 236.591C661.701 238.712 660.858 240.747 659.357 242.247C657.857 243.748 655.822 244.591 653.701 244.591Z" fill="#CCCCCC"/>
<path d="M376.492 246.091H333.492C330.974 246.088 328.559 245.086 326.778 243.305C324.997 241.524 323.995 239.109 323.992 236.591V209.591C323.995 207.072 324.997 204.657 326.778 202.876C328.559 201.095 330.974 200.093 333.492 200.091H376.492C379.011 200.093 381.426 201.095 383.207 202.876C384.988 204.657 385.989 207.072 385.992 209.591V236.591C385.989 239.109 384.988 241.524 383.207 243.305C381.426 245.086 379.011 246.088 376.492 246.091V246.091ZM333.492 202.091C331.504 202.093 329.597 202.884 328.191 204.29C326.785 205.696 325.994 207.602 325.992 209.591V236.591C325.994 238.579 326.785 240.485 328.191 241.891C329.597 243.297 331.504 244.088 333.492 244.091H376.492C378.481 244.088 380.387 243.297 381.793 241.891C383.199 240.485 383.99 238.579 383.992 236.591V209.591C383.99 207.602 383.199 205.696 381.793 204.29C380.387 202.884 378.481 202.093 376.492 202.091H333.492Z" fill="#CCCCCC"/>
<path d="M571.701 312.591H429.701C427.579 312.591 425.544 311.748 424.044 310.247C422.544 308.747 421.701 306.712 421.701 304.591C421.701 302.469 422.544 300.434 424.044 298.934C425.544 297.433 427.579 296.591 429.701 296.591H571.701C573.822 296.591 575.857 297.433 577.357 298.934C578.858 300.434 579.701 302.469 579.701 304.591C579.701 306.712 578.858 308.747 577.357 310.247C575.857 311.748 573.822 312.591 571.701 312.591Z" fill="#CCCCCC"/>
<path d="M653.701 339.591H429.701C427.579 339.591 425.544 338.748 424.044 337.247C422.544 335.747 421.701 333.712 421.701 331.591C421.701 329.469 422.544 327.434 424.044 325.934C425.544 324.433 427.579 323.591 429.701 323.591H653.701C655.822 323.591 657.857 324.433 659.357 325.934C660.858 327.434 661.701 329.469 661.701 331.591C661.701 333.712 660.858 335.747 659.357 337.247C657.857 338.748 655.822 339.591 653.701 339.591Z" fill="#CCCCCC"/>
<path d="M376.492 341.091H333.492C330.974 341.088 328.559 340.086 326.778 338.305C324.997 336.524 323.995 334.109 323.992 331.591V304.591C323.995 302.072 324.997 299.657 326.778 297.876C328.559 296.095 330.974 295.093 333.492 295.091H376.492C379.011 295.093 381.426 296.095 383.207 297.876C384.988 299.657 385.989 302.072 385.992 304.591V331.591C385.989 334.109 384.988 336.524 383.207 338.305C381.426 340.086 379.011 341.088 376.492 341.091V341.091ZM333.492 297.091C331.504 297.093 329.597 297.884 328.191 299.29C326.785 300.696 325.994 302.602 325.992 304.591V331.591C325.994 333.579 326.785 335.485 328.191 336.891C329.597 338.297 331.504 339.088 333.492 339.091H376.492C378.481 339.088 380.387 338.297 381.793 336.891C383.199 335.485 383.99 333.579 383.992 331.591V304.591C383.99 302.602 383.199 300.696 381.793 299.29C380.387 297.884 378.481 297.093 376.492 297.091H333.492Z" fill="#CCCCCC"/>
<path d="M571.701 407.591H429.701C427.579 407.591 425.544 406.748 424.044 405.247C422.544 403.747 421.701 401.712 421.701 399.591C421.701 397.469 422.544 395.434 424.044 393.934C425.544 392.433 427.579 391.591 429.701 391.591H571.701C573.822 391.591 575.857 392.433 577.357 393.934C578.858 395.434 579.701 397.469 579.701 399.591C579.701 401.712 578.858 403.747 577.357 405.247C575.857 406.748 573.822 407.591 571.701 407.591Z" fill="#F2F2F2"/>
<path d="M653.701 434.591H429.701C427.579 434.591 425.544 433.748 424.044 432.247C422.544 430.747 421.701 428.712 421.701 426.591C421.701 424.469 422.544 422.434 424.044 420.934C425.544 419.433 427.579 418.591 429.701 418.591H653.701C655.822 418.591 657.857 419.433 659.357 420.934C660.858 422.434 661.701 424.469 661.701 426.591C661.701 428.712 660.858 430.747 659.357 432.247C657.857 433.748 655.822 434.591 653.701 434.591Z" fill="#F2F2F2"/>
<path d="M376.492 436.091H333.492C330.974 436.088 328.559 435.086 326.778 433.305C324.997 431.524 323.995 429.109 323.992 426.591V399.591C323.995 397.072 324.997 394.657 326.778 392.876C328.559 391.095 330.974 390.093 333.492 390.091H376.492C379.011 390.093 381.426 391.095 383.207 392.876C384.988 394.657 385.989 397.072 385.992 399.591V426.591C385.989 429.109 384.988 431.524 383.207 433.305C381.426 435.086 379.011 436.088 376.492 436.091Z" fill="#F2F2F2"/>
<path d="M173.331 316.848H130.331C127.812 316.845 125.397 315.843 123.616 314.062C121.835 312.281 120.834 309.866 120.831 307.348V280.348C120.834 277.829 121.835 275.414 123.616 273.633C125.397 271.852 127.812 270.85 130.331 270.848H173.331C175.849 270.85 178.264 271.852 180.045 273.633C181.826 275.414 182.828 277.829 182.831 280.348V307.348C182.828 309.866 181.826 312.281 180.045 314.062C178.264 315.843 175.849 316.845 173.331 316.848V316.848ZM130.331 272.848C128.342 272.85 126.436 273.641 125.03 275.047C123.624 276.453 122.833 278.359 122.831 280.348V307.348C122.833 309.336 123.624 311.242 125.03 312.648C126.436 314.054 128.342 314.845 130.331 314.848H173.331C175.319 314.845 177.226 314.054 178.632 312.648C180.038 311.242 180.829 309.336 180.831 307.348V280.348C180.829 278.359 180.038 276.453 178.632 275.047C177.226 273.641 175.319 272.85 173.331 272.848H130.331Z" fill="#3F3D56"/>
<path d="M126.965 512.106L138.087 509.46L133.175 465.302L116.76 469.207L126.965 512.106Z" fill="#FFB8B8"/>
<path d="M161.992 514.685L127.038 523L123.826 509.495L145.275 504.393C147.048 503.971 148.888 503.902 150.688 504.191C152.488 504.48 154.213 505.121 155.765 506.077C157.318 507.032 158.667 508.285 159.735 509.762C160.804 511.239 161.571 512.912 161.992 514.685V514.685V514.685Z" fill="#2F2E41"/>
<path d="M116.048 483.672L91.8928 400.886L122.078 393.399L139.786 481.075C139.916 481.717 139.904 482.38 139.751 483.017C139.598 483.654 139.307 484.25 138.9 484.764C138.493 485.277 137.978 485.695 137.392 485.989C136.807 486.282 136.164 486.445 135.509 486.464L120.502 486.91C120.457 486.911 120.412 486.912 120.367 486.912C119.393 486.912 118.446 486.596 117.668 486.012C116.889 485.427 116.321 484.607 116.048 483.672V483.672Z" fill="#2F2E41"/>
<path d="M58.0899 512.384L69.5219 512.383L74.9589 468.287L58.0859 468.289L58.0899 512.384Z" fill="#FFB8B8"/>
<path d="M91.571 522.997L55.6413 523L55.6401 509.118L77.6879 509.116C81.3696 509.116 84.9006 510.578 87.5042 513.181C90.1078 515.784 91.5707 519.315 91.571 522.997V522.997V522.997Z" fill="#2F2E41"/>
<path d="M56.0825 495.251C55.6624 494.844 55.3272 494.358 55.0964 493.821C54.8656 493.284 54.7438 492.706 54.7381 492.121L44.3225 409.536C44.3183 408.345 44.7858 407.201 45.6229 406.353C46.46 405.506 47.5987 405.024 48.7898 405.014L72.0381 404.846H72.0713C73.2518 404.849 74.3841 405.314 75.2252 406.143C76.0662 406.971 76.5492 408.096 76.5703 409.277L77.8062 490.631C77.8246 491.818 77.3729 492.965 76.5493 493.82C75.7258 494.676 74.5975 495.17 73.4104 495.197L59.2976 496.538C59.2759 496.539 59.2541 496.539 59.2324 496.539C58.0537 496.542 56.9215 496.079 56.0825 495.251V495.251Z" fill="#2F2E41"/>
<path d="M61.0647 221.909C74.6294 221.909 85.6257 210.913 85.6257 197.348C85.6257 183.783 74.6294 172.787 61.0647 172.787C47.5 172.787 36.5037 183.783 36.5037 197.348C36.5037 210.913 47.5 221.909 61.0647 221.909Z" fill="#FFB8B8"/>
<path d="M28.7075 405.223C12.7271 392.736 12.8963 378.169 18.3491 358.713C19.8852 353.232 21.5432 347.677 23.2983 341.795C31.4533 314.471 40.6963 283.499 37.1872 257.927L37.6826 257.859L37.1872 257.927C36.2261 250.923 38.676 243.556 43.9084 237.715C49.1411 231.873 56.1841 228.637 63.2639 228.819C70.3313 229.008 77.2036 232.62 82.1181 238.732C87.0088 244.813 89.343 266.198 90.0349 269.263C93.2114 283.329 95.1286 291.82 96.5036 305.365C98.1299 321.378 117.606 369.256 123.812 377.285C125.46 379.405 126.639 381.849 127.273 384.457C127.906 387.066 127.98 389.779 127.489 392.418C127.032 394.928 126.04 397.311 124.581 399.405C123.122 401.499 121.231 403.254 119.034 404.553C108.962 410.71 97.8946 415.065 86.3279 417.424C81.3105 418.397 76.2116 418.887 71.1008 418.889C55.2439 418.889 40.0925 414.118 28.7075 405.223Z" fill="#B94559"/>
<path d="M130.845 312.69C130.209 311.475 129.314 310.415 128.224 309.584C127.134 308.753 125.875 308.171 124.536 307.879C123.196 307.587 121.809 307.592 120.472 307.894C119.135 308.196 117.88 308.788 116.797 309.627L98.1852 299.007L88.9731 308.743L115.467 323.371C116.997 325.099 119.109 326.204 121.4 326.479C123.692 326.753 126.005 326.178 127.9 324.861C129.796 323.545 131.143 321.578 131.685 319.335C132.228 317.092 131.929 314.727 130.845 312.69V312.69Z" fill="#FFB8B8"/>
<path d="M102.473 319.889L69.1163 309.409C64.6377 307.992 60.7015 305.235 57.8388 301.511C54.9761 297.786 53.3246 293.273 53.107 288.581L51.6717 256.17C51.591 254.347 51.879 252.526 52.5182 250.816C53.1575 249.107 54.1349 247.544 55.3921 246.221C56.6494 244.898 58.1605 243.842 59.8351 243.117C61.5098 242.391 63.3136 242.011 65.1386 241.999C66.9636 241.986 68.7723 242.342 70.4566 243.045C72.1409 243.748 73.6661 244.783 74.941 246.089C76.2159 247.395 77.2143 248.945 77.8765 250.646C78.5387 252.346 78.8511 254.163 78.795 255.987L77.8775 285.807L113.379 300.285C114.006 300.541 114.567 300.935 115.021 301.438C115.474 301.94 115.808 302.539 115.999 303.189C116.189 303.838 116.23 304.523 116.119 305.19C116.008 305.858 115.747 306.492 115.357 307.046L107.5 318.189C106.952 318.97 106.169 319.555 105.265 319.861C104.361 320.167 103.383 320.176 102.473 319.889H102.473Z" fill="#2F2E41"/>
<path d="M21.4822 227.911C22.6045 221.18 22.5632 214.203 22.5232 207.456C22.5125 205.625 22.5015 203.794 22.5127 201.966C22.5649 193.473 23.092 184.47 26.5645 176.182C30.3438 167.163 37.3423 160.65 45.2856 158.76C54.2412 156.627 63.9587 161.342 66.8843 169.105C68.8182 168.013 70.9705 167.364 73.1859 167.204C75.4012 167.044 77.6244 167.378 79.695 168.182C81.7656 168.986 83.6319 170.239 85.1594 171.852C86.6869 173.464 87.8374 175.396 88.5279 177.507C89.2184 179.618 89.4318 181.856 89.1525 184.059C88.8732 186.263 88.1083 188.377 86.9129 190.249C85.7175 192.121 84.1216 193.704 82.2401 194.884C80.3586 196.065 78.2386 196.813 76.033 197.075L75.6577 197.108L72.7312 189.502C72.7146 189.636 72.6987 189.77 72.6826 189.906C72.4963 191.483 72.3037 193.114 71.0017 194.056C69.3762 195.231 67.3518 199.101 67.9434 203.021C68.3122 205.027 68.8618 206.996 69.5854 208.903C70.3897 210.996 70.9736 213.168 71.3276 215.382C71.6996 218.221 70.9569 221.093 69.2554 223.396C68.7511 224.068 68.1152 224.63 67.3864 225.048C66.6577 225.466 65.8515 225.732 65.0168 225.828L32.0291 229.239L30.5542 218.221L21.1709 229.777L21.4822 227.911Z" fill="#2F2E41"/>
<path d="M193 523.591H1C0.734784 523.591 0.480429 523.485 0.292892 523.298C0.105356 523.11 0 522.856 0 522.591C0 522.325 0.105356 522.071 0.292892 521.883C0.480429 521.696 0.734784 521.591 1 521.591H193C193.265 521.591 193.52 521.696 193.707 521.883C193.895 522.071 194 522.325 194 522.591C194 522.856 193.895 523.11 193.707 523.298C193.52 523.485 193.265 523.591 193 523.591Z" fill="#CCCCCC"/>
<path d="M150.391 280.009L146.729 287.507L138.536 288.713C137.067 288.929 136.479 290.758 137.544 291.806L143.471 297.639L142.069 305.879C141.817 307.369 143.37 308.484 144.671 307.788L152 303.897L159.329 307.788C160.63 308.479 162.183 307.369 161.931 305.879L160.529 297.639L166.456 291.806C167.521 290.758 166.933 288.929 165.464 288.713L157.271 287.507L153.609 280.009C152.953 278.672 151.052 278.655 150.391 280.009Z" fill="#FDA225"/>
<path d="M353.391 208.009L349.729 215.507L341.536 216.713C340.067 216.929 339.479 218.758 340.544 219.806L346.471 225.639L345.069 233.879C344.817 235.369 346.37 236.484 347.671 235.788L355 231.897L362.329 235.788C363.63 236.479 365.183 235.369 364.931 233.879L363.529 225.639L369.456 219.806C370.521 218.758 369.933 216.929 368.464 216.713L360.271 215.507L356.609 208.009C355.953 206.672 354.052 206.655 353.391 208.009Z" fill="#FDA225"/>
<path d="M353.391 304.009L349.729 311.507L341.536 312.713C340.067 312.929 339.479 314.758 340.544 315.806L346.471 321.639L345.069 329.879C344.817 331.369 346.37 332.484 347.671 331.788L355 327.897L362.329 331.788C363.63 332.479 365.183 331.369 364.931 329.879L363.529 321.639L369.456 315.806C370.521 314.758 369.933 312.929 368.464 312.713L360.271 311.507L356.609 304.009C355.953 302.672 354.052 302.655 353.391 304.009Z" fill="#FDA225"/>
</g>
<defs>
<clipPath id="clip0">
<rect width="728.346" height="523.591" fill="white"/>
</clipPath>
</defs>
</svg>
